<?xml version="1.0" encoding="UTF-8" standalone="no"?>
<!-- Created with Inkscape (http://www.inkscape.org/) -->

<svg
   xmlns:dc="http://purl.org/dc/elements/1.1/"
   xmlns:cc="http://creativecommons.org/ns#"
   xmlns:rdf="http://www.w3.org/1999/02/22-rdf-syntax-ns#"
   xmlns:svg="http://www.w3.org/2000/svg"
   xmlns="http://www.w3.org/2000/svg"
   xmlns:xlink="http://www.w3.org/1999/xlink"
   xmlns:sodipodi="http://sodipodi.sourceforge.net/DTD/sodipodi-0.dtd"
   xmlns:inkscape="http://www.inkscape.org/namespaces/inkscape"
   width="210mm"
   height="297mm"
   id="svg3949"
   version="1.1"
   inkscape:version="0.48.4 r9939"
   sodipodi:docname="Nouveau document 10">
  <defs
     id="defs3951">
    <linearGradient
       inkscape:collect="always"
       id="linearGradient4508">
      <stop
         style="stop-color:#ffffff;stop-opacity:1;"
         offset="0"
         id="stop4510" />
      <stop
         style="stop-color:#ffffff;stop-opacity:0;"
         offset="1"
         id="stop4512" />
    </linearGradient>
    <linearGradient
       inkscape:collect="always"
       xlink:href="#linearGradient4508"
       id="linearGradient4514"
       x1="144.80074"
       y1="213.58458"
       x2="324.37424"
       y2="393.15808"
       gradientUnits="userSpaceOnUse"
       gradientTransform="translate(19.641053,169.81947)" />
    <linearGradient
       inkscape:collect="always"
       xlink:href="#linearGradient4508"
       id="linearGradient4518"
       gradientUnits="userSpaceOnUse"
       x1="144.80074"
       y1="213.58458"
       x2="324.37424"
       y2="393.15808"
       gradientTransform="translate(282.28071,169.81947)" />
  </defs>
  <sodipodi:namedview
     id="base"
     pagecolor="#ffffff"
     bordercolor="#666666"
     borderopacity="1.0"
     inkscape:pageopacity="0.0"
     inkscape:pageshadow="2"
     inkscape:zoom="0.7"
     inkscape:cx="539.69356"
     inkscape:cy="481.71814"
     inkscape:document-units="px"
     inkscape:current-layer="layer1"
     showgrid="false"
     inkscape:window-width="868"
     inkscape:window-height="430"
     inkscape:window-x="1244"
     inkscape:window-y="684"
     inkscape:window-maximized="0" />
  <metadata
     id="metadata3954">
    <rdf:RDF>
      <cc:Work
         rdf:about="">
        <dc:format>image/svg+xml</dc:format>
        <dc:type
           rdf:resource="http://purl.org/dc/dcmitype/StillImage" />
        <dc:title></dc:title>
      </cc:Work>
    </rdf:RDF>
  </metadata>
  <g
     inkscape:label="Calque 1"
     inkscape:groupmode="layer"
     id="layer1">
    <rect
       style="fill:#d2c8b2;fill-opacity:1;stroke:none"
       id="rect3965"
       width="378.80719"
       height="439.41635"
       x="185.30609"
       y="271.62811" />
    <path
       style="fill:#917c6f;fill-opacity:1;stroke:none"
       d="m 147.9431,383.7695 0,203.03125 203.03125,0 0,-85.875 59.59375,0 0,85.875 203.03125,0 0,-203.03125 -203.03125,0 0,82.8125 -59.59375,0 0,-82.8125 -203.03125,0 z"
       id="rect3957"
       inkscape:connector-curvature="0" />
    <path
       style="fill:#393322;fill-opacity:1;stroke:none"
       d="m 331.78571,44.33799 0,16.15625 -75.78125,0 0,10.125 -102,0 0,69.6875 -67.687496,0 0,111.125 23.218746,0 0,50.5 68.6875,0 0,19.1875 72.75,0 0,16.15625 111.125,0 0,-22.21875 37.375,0 0,12.125 111.09375,0 0,-8.0625 87.90625,0 0,-30.3125 69.6875,0 0,-111.125 -46.46875,0 0,-58.59375 -37.375,0 0,-39.375 -50.5,0 0,-23.25 -90.9375,0 0,-12.125 -111.09375,0 z"
       id="rect4475"
       inkscape:connector-curvature="0" />
    <path
       style="opacity:0.17857145;fill:url(#linearGradient4514);fill-opacity:1;stroke:none"
       d="m 158.05508,393.8585 0,182.82819 12.52247,0 C 169.45614,467.27237 294.33935,438.3729 340.88327,431.39779 l 0,-37.53929 -182.82819,0 z"
       id="path4503"
       inkscape:connector-curvature="0" />
    <path
       inkscape:connector-curvature="0"
       id="path4516"
       d="m 420.69474,393.8585 0,182.82819 12.52247,0 C 432.0958,467.27237 556.97901,438.3729 603.52293,431.39779 l 0,-37.53929 -182.82819,0 z"
       style="opacity:0.17857145;fill:url(#linearGradient4518);fill-opacity:1;stroke:none" />
    <rect
       style="fill:#4ca84c;fill-opacity:1;stroke:none"
       id="rect4531"
       width="35.190292"
       height="35.190292"
       x="70.328812"
       y="800.875" />
    <rect
       y="821.82159"
       x="91.275406"
       height="35.190292"
       width="35.190292"
       id="rect4533"
       style="fill:#4ca84c;fill-opacity:1;stroke:none" />
    <rect
       style="fill:#4ca84c;fill-opacity:1;stroke:none"
       id="rect4535"
       width="35.190292"
       height="35.190292"
       x="112.22202"
       y="842.76819" />
    <rect
       y="-925.71674"
       x="70.328812"
       height="35.190292"
       width="35.190292"
       id="rect4541"
       style="fill:#4ca84c;fill-opacity:1;stroke:none"
       transform="scale(1,-1)" />
    <rect
       style="fill:#4ca84c;fill-opacity:1;stroke:none"
       id="rect4543"
       width="35.190292"
       height="35.190292"
       x="91.275406"
       y="-904.77008"
       transform="scale(1,-1)" />
    <rect
       y="-883.82349"
       x="112.22202"
       height="35.190292"
       width="35.190292"
       id="rect4545"
       style="fill:#4ca84c;fill-opacity:1;stroke:none"
       transform="scale(1,-1)" />
    <rect
       style="fill:#4ca84c;fill-opacity:1;stroke:none"
       id="rect4547"
       width="105.29436"
       height="120.54391"
       x="168.98248"
       y="800.66431" />
    <rect
       y="899.01257"
       x="288.65927"
       height="22.195652"
       width="105.29436"
       id="rect4549"
       style="fill:#4ca84c;fill-opacity:1;stroke:none" />
    <rect
       style="fill:#4ca84c;fill-opacity:1;stroke:none"
       id="rect4551"
       width="105.29436"
       height="22.195652"
       x="408.33606"
       y="899.01257" />
    <rect
       y="899.01257"
       x="529.19781"
       height="22.195652"
       width="105.29436"
       id="rect4553"
       style="fill:#4ca84c;fill-opacity:1;stroke:none" />
  </g>
</svg>
