<?xml version="1.0" encoding="UTF-8" standalone="no"?>
<!-- Created with Inkscape (http://www.inkscape.org/) -->

<svg
   xmlns:dc="http://purl.org/dc/elements/1.1/"
   xmlns:cc="http://creativecommons.org/ns#"
   xmlns:rdf="http://www.w3.org/1999/02/22-rdf-syntax-ns#"
   xmlns:svg="http://www.w3.org/2000/svg"
   xmlns="http://www.w3.org/2000/svg"
   xmlns:sodipodi="http://sodipodi.sourceforge.net/DTD/sodipodi-0.dtd"
   xmlns:inkscape="http://www.inkscape.org/namespaces/inkscape"
   width="64px"
   height="64px"
   id="svg4574"
   version="1.1"
   inkscape:version="0.48.4 r9939"
   sodipodi:docname="logo_java.svg">
  <defs
     id="defs4576" />
  <sodipodi:namedview
     id="base"
     pagecolor="#ffffff"
     bordercolor="#666666"
     borderopacity="1.0"
     inkscape:pageopacity="0.0"
     inkscape:pageshadow="2"
     inkscape:zoom="15.556349"
     inkscape:cx="54.187203"
     inkscape:cy="35.352072"
     inkscape:current-layer="layer1"
     showgrid="true"
     inkscape:document-units="px"
     inkscape:grid-bbox="true"
     inkscape:window-width="3200"
     inkscape:window-height="1751"
     inkscape:window-x="0"
     inkscape:window-y="25"
     inkscape:window-maximized="1" />
  <metadata
     id="metadata4579">
    <rdf:RDF>
      <cc:Work
         rdf:about="">
        <dc:format>image/svg+xml</dc:format>
        <dc:type
           rdf:resource="http://purl.org/dc/dcmitype/StillImage" />
        <dc:title></dc:title>
      </cc:Work>
    </rdf:RDF>
  </metadata>
  <g
     id="layer1"
     inkscape:label="Layer 1"
     inkscape:groupmode="layer">
    <path
       style="fill:#000000"
       d="m -84.902925,-21.609934 c -0.900846,-0.462015 -1.657945,-1.135687 -2.353959,-2.094575 -0.279284,-0.384781 -0.590758,-0.699604 -0.692153,-0.699604 -0.101388,0 -0.184343,-0.13018 -0.184343,-0.289291 0,-0.15911 -0.238178,-0.585685 -0.529297,-0.947945 -0.291109,-0.362261 -1.052523,-1.313337 -1.692053,-2.113508 l -1.162767,-1.454849 -0.09162,-4.698802 c -0.103343,-5.299608 -0.314575,-6.992506 -1.096016,-8.783686 -0.597433,-1.369423 -0.971312,-1.623531 -1.961364,-1.33306 -2.025166,0.594159 -3.282495,2.540747 -4.068734,6.299211 -0.318403,1.52209 -0.338161,1.996259 -0.247388,5.939569 0.05413,2.356983 0.14205,4.72471 0.195096,5.261616 0.08378,0.848084 0.03929,1.065303 -0.339236,1.655259 -0.37319,0.581629 -0.543099,0.679069 -1.184111,0.679069 -1.05919,0 -1.90854,-0.620403 -3.15962,-2.30792 -1.6995,-2.292377 -1.68167,-2.155996 -1.68167,-12.856398 0,-7.593485 0.0426,-9.200322 0.29822,-11.213052 0.69538,-5.478283 2.35444,-14.988539 2.8317,-16.232226 0.40673,-1.059931 1.0366,-1.791433 1.91264,-2.221285 1.423533,-0.69849 4.954129,-1.294311 8.14903,-1.375221 l 2.931464,-0.07423 2.004152,-1.338164 c 2.56399,-1.711969 3.645136,-2.142374 5.386719,-2.144455 1.406784,-0.0017 2.249186,0.391634 2.600092,1.213977 0.125573,0.294272 0.385961,0.290035 2.527207,-0.04112 3.482272,-0.538558 8.311465,-0.364366 10.689274,0.385571 2.997289,0.945318 5.881611,2.472837 7.61546,4.03311 1.310524,1.179335 1.40885,1.198832 6.391312,1.26762 l 4.640603,0.06406 1.276003,-0.899443 c 0.737112,-0.519591 1.495573,-0.899442 1.795926,-0.899442 0.640048,0 1.243829,0.524258 1.243829,1.080022 0,0.228279 0.09592,0.415053 0.213155,0.415053 0.59394,0 0.790012,0.537658 0.87707,2.405184 0.08544,1.832761 0.08112,1.859932 -0.434208,2.713204 -0.625359,1.035501 -0.848693,1.062433 -2.667911,0.321715 -1.278333,-0.520488 -1.461364,-0.538014 -5.018728,-0.480558 l -3.692008,0.05962 0.337842,0.96112 c 1.664145,4.734279 1.394638,11.45496 -0.690848,17.228439 l -0.835964,2.314307 0.05217,7.724381 c 0.0602,8.921699 0.140458,8.436695 -1.583713,9.575756 -0.939778,0.620859 -1.040639,0.640747 -3.249892,0.640747 -2.156888,0 -2.324574,-0.03083 -3.104564,-0.57069 -0.45349,-0.31388 -0.920504,-0.722355 -1.037818,-0.907722 -0.117304,-0.18537 -0.295916,-0.337571 -0.396899,-0.338228 -0.728788,-0.0048 -1.527731,-0.59017 -2.564778,-1.879402 -1.473035,-1.831261 -1.608917,-2.19172 -1.608917,-4.268216 l 0,-1.684803 -3.135039,0.0063 c -2.378679,0.0048 -3.422475,-0.08093 -4.326413,-0.354831 -0.655261,-0.19857 -1.223235,-0.361026 -1.262151,-0.361026 -0.03896,0 -0.07078,2.079282 -0.07078,4.620628 0,2.841643 -0.07144,4.933578 -0.185705,5.433472 -0.448487,1.963155 -2.222589,2.981364 -5.165091,2.964408 -1.27721,-0.0073 -1.933546,-0.112546 -2.493171,-0.39956 z m -5.434952,-9.964801 c -0.0033,-1.007073 0.03953,-1.867838 0.09499,-1.912817 0.05552,-0.04497 0.06708,-0.384081 0.02575,-0.753563 -0.05331,-0.475571 -0.115919,-0.58749 -0.214648,-0.383173 -0.249349,0.516042 -0.172198,4.88096 0.08631,4.880609 0.0082,-10e-6 0.01099,-0.823985 0.0082,-1.831056 z m -13.479983,0.607043 c -0.0413,-0.207808 -0.0779,-0.0895 -0.0811,0.262913 -0.003,0.35241 0.0304,0.522435 0.075,0.377833 0.0446,-0.144603 0.0473,-0.432938 0.005,-0.640746 z m -0.16345,-1.71272 c -0.041,-0.205572 -0.0745,-0.03738 -0.0745,0.373769 0,0.411144 0.0336,0.57934 0.0745,0.373768 0.0409,-0.205574 0.0409,-0.541965 0,-0.747537 z m -0.15541,-5.339549 c -0.0335,-0.557983 -0.061,-0.101452 -0.061,1.014514 0,1.115965 0.0275,1.572497 0.061,1.014515 0.0335,-0.557983 0.0335,-1.471046 0,-2.029029 z m 13.764438,0.747538 c -0.04174,-0.734189 -0.111924,-1.382945 -0.156171,-1.441678 -0.08877,-0.117841 -0.01649,2.359939 0.07619,2.616378 0.132699,0.366664 0.151578,0.0892 0.07988,-1.1747 z m -0.255589,-2.549635 c -0.05199,-0.170381 -0.09057,-0.119774 -0.0984,0.12904 -0.0082,0.225148 0.03142,0.351297 0.08553,0.280326 0.05405,-0.07097 0.05987,-0.255187 0.01288,-0.409366 z m -13.384269,-2.420262 c 0.0563,-1.407377 0.12899,-3.235427 0.16161,-4.06233 0.0326,-0.826905 0.17404,-2.316637 0.31426,-3.310519 0.14021,-0.993882 0.29537,-2.191505 0.34479,-2.661385 0.10199,-0.96995 0.25852,-2.222251 0.46719,-3.737685 0.4465,-3.242803 1.12258,-6.887292 1.58485,-8.543277 0.61239,-2.193743 1.26504,-2.950088 3.029539,-3.510841 0.515812,-0.163925 0.780669,-0.306052 0.588559,-0.315839 -0.617445,-0.03146 -2.470642,0.83088 -2.970118,1.38207 -0.57189,0.631068 -0.88274,1.775204 -1.79574,6.609457 -1.26773,6.71243 -1.78065,11.27438 -1.90911,16.979764 -0.0987,4.384697 0.0244,5.167182 0.18417,1.170585 z m 18.278147,-1.923563 c 0.215878,-0.1983 0.461248,-0.823792 0.626926,-1.598221 0.149725,-0.699824 0.379981,-1.389686 0.511688,-1.533023 0.13671,-0.148797 1.053678,-0.326128 2.137195,-0.413307 2.347349,-0.188873 3.17731,-0.55617 4.155495,-1.839007 1.139425,-1.494311 1.48802,-2.587579 1.48802,-4.66679 0,-1.551291 -0.04732,-1.815496 -0.466031,-2.608867 -0.843,-1.596781 -1.473371,-1.832866 -5.152782,-1.92981 -2.915126,-0.0768 -3.205219,-0.05102 -3.532578,0.313981 -0.292923,0.326584 -0.487888,1.237489 -1.090841,5.096462 -1.359969,8.704083 -1.345175,8.569856 -1.00028,9.069657 0.373329,0.540992 1.780975,0.606991 2.323188,0.108925 z m -2.067097,-0.411352 c -0.155845,-0.246259 -0.0082,-1.530875 0.718363,-6.247273 1.096434,-7.118036 1.133635,-7.285896 1.65217,-7.456576 0.218619,-0.07195 1.66034,-0.09356 3.203818,-0.048 2.489259,0.07349 2.889136,0.136183 3.539198,0.554927 1.118413,0.720436 1.547586,1.709354 1.54524,3.560557 -0.0024,1.785493 -0.44875,3.196483 -1.346364,4.254775 -0.313671,0.369826 -0.651636,0.771987 -0.751029,0.893696 -0.350448,0.429117 -1.66636,0.792412 -3.437895,0.949126 -0.985304,0.08716 -1.920013,0.230334 -2.077137,0.318159 -0.173509,0.09698 -0.420929,0.743568 -0.630049,1.646481 -0.269369,1.163036 -0.431117,1.530056 -0.742788,1.685459 -0.595276,0.296816 -1.451285,0.239866 -1.673527,-0.11134 z m 6.534231,-6.29161 c 1.107668,-0.99538 1.710999,-2.905813 1.263775,-4.001729 -0.32955,-0.807544 -1.328649,-1.387759 -2.389669,-1.387759 -1.208153,0 -1.425819,0.322182 -1.827436,2.704853 -0.39603,2.349504 -0.399762,2.543584 -0.05757,2.992321 0.41815,0.548385 2.268705,0.359277 3.010927,-0.307686 z m -2.776195,-0.09644 c -0.137727,-0.217638 -0.117666,-0.713608 0.07988,-1.975633 0.405159,-2.587981 0.556935,-2.851283 1.646454,-2.856472 0.914895,-0.0044 1.773102,0.558078 2.013642,1.319661 0.160813,0.509124 0.145083,0.756796 -0.09174,1.445538 -0.337513,0.981622 -0.963372,1.814253 -1.601256,2.130327 -0.646339,0.320262 -1.827353,0.283675 -2.047005,-0.06343 z m 18.660414,6.804951 c 0.196769,-0.180748 0.501862,-0.924065 0.700369,-1.706334 0.193439,-0.762342 0.437383,-1.455521 0.542107,-1.540396 0.104714,-0.08488 1.033405,-0.221317 2.06376,-0.303203 2.12126,-0.168582 3.016767,-0.518264 3.981099,-1.554565 1.904005,-2.046117 2.328035,-6.470911 0.794392,-8.289736 -0.757747,-0.898658 -1.496361,-1.091179 -4.571111,-1.191472 -3.095124,-0.100953 -3.847302,0.04473 -4.022509,0.779134 -0.203584,0.853429 -1.874184,11.967216 -1.910269,12.708355 -0.02944,0.605096 0.04223,0.903111 0.269753,1.121304 0.410407,0.393565 1.71405,0.379581 2.152409,-0.0231 z m -1.980089,-0.449778 c -0.143804,-0.188583 -0.22709,-0.500948 -0.185098,-0.69414 0.04199,-0.193197 0.488649,-3.042397 0.99257,-6.331559 0.763832,-4.985645 0.974807,-6.045713 1.268516,-6.373623 0.320488,-0.357828 0.617281,-0.385718 3.288005,-0.308978 3.522885,0.101218 4.089645,0.317868 4.82843,1.84563 1.257896,2.601255 -0.07012,6.760623 -2.515413,7.878471 -0.3741,0.171009 -1.542878,0.384606 -2.597312,0.474654 -2.249842,0.19214 -2.457077,0.348562 -2.727854,2.059102 -0.118093,0.74606 -0.304881,1.262031 -0.532577,1.471189 -0.461987,0.424372 -1.488791,0.412665 -1.819267,-0.02073 z m 6.223298,-6.090455 c 1.260437,-0.800204 2.048834,-3.133855 1.458158,-4.31612 -0.355901,-0.712363 -1.286289,-1.234261 -2.217144,-1.243717 -1.391709,-0.01413 -1.51323,0.193344 -2.057731,3.513633 -0.259084,1.579892 -0.258338,1.687054 0.01451,2.082423 0.406381,0.588893 1.846923,0.570275 2.802234,-0.03621 z m -2.54794,-0.267425 c -0.10209,-0.161317 -0.153293,-0.425624 -0.113778,-0.587351 0.03953,-0.161726 0.192274,-1.038518 0.339482,-1.948424 0.147215,-0.909907 0.377889,-1.798942 0.512622,-1.975633 0.550875,-0.722455 2.61461,-0.173977 3.012305,0.800586 0.407923,0.999598 -0.358788,2.982848 -1.390751,3.597489 -0.791675,0.471519 -2.093645,0.534044 -2.35988,0.113333 z m -10.951474,2.909681 c 0.254391,-0.280489 0.479586,-1.191627 0.902313,-3.650896 0.327237,-1.90373 0.681064,-3.44776 0.844288,-3.684287 0.202716,-0.293769 0.500714,-0.407163 1.070026,-0.407163 0.932019,0 1.440491,0.519437 1.440491,1.471563 0,0.339479 -0.146576,1.551457 -0.325712,2.693284 -0.547207,3.48774 -0.413835,3.951268 1.136859,3.951268 1.30297,0 1.522687,-0.367795 2.048316,-3.428838 0.230871,-1.344566 0.459683,-3.165506 0.508456,-4.046533 0.07989,-1.44313 0.052,-1.662628 -0.282646,-2.215096 -0.525457,-0.867706 -1.187919,-1.163388 -2.939648,-1.312082 -2.434604,-0.206659 -2.289496,-0.09161 -2.162711,-1.714582 0.144871,-1.854313 -0.09338,-2.233607 -1.402953,-2.233607 -0.678423,0 -0.993875,0.100135 -1.177513,0.373771 -0.245739,0.366171 -2.242535,12.269112 -2.242535,13.367767 0,0.855584 0.402945,1.2092 1.377891,1.2092 0.587099,0 0.975249,-0.120396 1.205078,-0.373769 z m -2.053673,-0.194848 c -0.302608,-0.160138 -0.259018,-0.694109 0.372058,-4.557495 0.316592,-1.938176 0.754713,-4.655653 0.973593,-6.038838 0.521693,-3.296971 0.5498,-3.358624 1.53088,-3.358624 1.064841,0 1.210278,0.271975 1.069196,1.999561 -0.139941,1.713667 -0.10226,1.747358 2.125131,1.900589 2.430372,0.167194 3.334261,0.837443 3.334261,2.472404 0,0.398406 -0.192972,2.062263 -0.428812,3.697459 -0.520168,3.60665 -0.712311,4.026397 -1.843108,4.026397 -1.182713,0 -1.259782,-0.233932 -0.900009,-2.73165 0.446666,-3.100882 0.480005,-4.024456 0.167883,-4.649201 -0.147101,-0.29441 -0.332453,-0.482607 -0.411901,-0.418213 -0.07947,0.06439 -0.190487,0.0194 -0.246748,-0.09999 -0.132708,-0.281594 -1.641329,-0.281458 -2.042608,1.84e-4 -0.352384,0.247328 -0.668041,1.499152 -1.156994,4.588345 -0.342434,2.163583 -0.533002,2.863177 -0.857181,3.147063 -0.199401,0.174605 -1.368442,0.189865 -1.685641,0.022 z M -96.56134,-68.543442 c -0.111957,-0.05925 -0.295186,-0.05925 -0.407152,0 -0.111966,0.05925 -0.02034,0.107728 0.203577,0.107728 0.22394,0 0.315542,-0.04848 0.203575,-0.107728 z m 1.140009,-0.213582 c -0.111967,-0.05925 -0.295179,-0.05925 -0.407137,0 -0.111966,0.05925 -0.02033,0.107728 0.203577,0.107728 0.223924,0 0.315517,-0.04848 0.20356,-0.107728 z m 3.257184,-0.226635 c -0.291111,-0.04738 -0.767475,-0.04738 -1.058584,0 -0.291111,0.04739 -0.05281,0.08614 0.529304,0.08614 0.58222,0 0.820398,-0.03877 0.52928,-0.08614 z m 5.70007,-1.34216 c 1.15505,-0.767895 1.519145,-1.302107 0.510942,-0.749649 -0.620513,0.340017 -2.505965,1.792941 -2.505965,1.931094 0,0.101919 0.591627,-0.248437 1.995023,-1.181445 z m 1.74602,-1.057975 c 0.131773,-0.109284 0.199705,-0.250986 0.150981,-0.314895 -0.04871,-0.06392 -0.229829,0.02393 -0.402437,0.195176 -0.343369,0.340681 -0.134724,0.440016 0.251456,0.119719 z m 1.959028,-0.935853 c 0.13479,-0.05886 0.05749,-0.114235 -0.172444,-0.123538 -0.229205,-0.0092 -0.558993,0.125986 -0.732863,0.300577 -0.293546,0.294757 -0.281227,0.303584 0.172444,0.123538 0.268719,-0.106644 0.598508,-0.241905 0.732863,-0.300577 z"
       id="path4663"
       inkscape:connector-curvature="0" />
    <path
       style="fill:#000000"
       d="m -86.739163,57.077941 c -1.179342,-0.386657 -2.132803,-1.303325 -2.491195,-2.395084 -0.207173,-0.631068 -0.216627,-0.862211 -0.216627,-5.293344 l 0,-4.633464 -1.776989,-0.0012 c -1.909888,-0.0012 -2.416625,-0.08967 -3.224312,-0.562999 -0.507331,-0.297357 -1.286718,-1.131334 -1.523438,-1.630191 -0.490507,-1.033651 -0.480208,-0.726766 -0.480208,-14.30959 l 0,-12.752084 17.360136,0 17.360149,0 -0.02803,13.057018 -0.02804,13.057016 -0.330523,0.6978 c -0.4136,0.873164 -1.255211,1.735795 -2.062665,2.114167 -0.570731,0.267449 -0.672578,0.27978 -2.577234,0.312083 l -1.983014,0.03364 0,4.609055 c 0,3.930592 -0.02444,4.690986 -0.165302,5.165678 -0.304435,1.02516 -1.054535,1.867235 -2.096308,2.353378 -0.493868,0.230463 -0.710837,0.266768 -1.601417,0.267947 -0.932091,0.0012 -1.088963,-0.02739 -1.648219,-0.301077 -0.846248,-0.414097 -1.692542,-1.28429 -2.010072,-2.066873 l -0.250794,-0.618086 -0.03505,-4.71289 -0.03495,-4.712881 -2.510744,0 -2.510734,0 -0.03631,4.712881 -0.03631,4.71289 -0.267653,0.612578 c -0.378639,0.866633 -1.054192,1.59122 -1.869265,2.00492 -0.582452,0.295641 -0.803679,0.34904 -1.583893,0.382289 -0.592255,0.02528 -1.057474,-0.01081 -1.340971,-0.103668 z M -102.87123,38.614474 c -0.80011,-0.245858 -1.49767,-0.739269 -1.98931,-1.407103 -0.85099,-1.155981 -0.81114,-0.638759 -0.81114,-10.530267 0,-9.677108 -0.0344,-9.150026 0.66527,-10.207081 0.78011,-1.178675 1.96911,-1.747282 3.49209,-1.669994 0.68818,0.03493 1.01896,0.107194 1.4569,0.318291 0.737701,0.355594 1.467156,1.077874 1.825451,1.807479 l 0.286336,0.583061 0.02741,9.082736 c 0.02715,9.008166 0.0257,9.087482 -0.188919,9.660888 -0.710476,1.898895 -2.838158,2.953788 -4.764078,2.36199 z m 45.410069,0.02155 c -0.780231,-0.193375 -1.558826,-0.729916 -2.073238,-1.428692 -0.851318,-1.156426 -0.811147,-0.632391 -0.811147,-10.581778 0,-8.081782 0.01455,-8.844023 0.176761,-9.248514 0.706216,-1.761129 2.113032,-2.671831 3.980926,-2.577032 1.683501,0.08544 2.845859,0.957566 3.472983,2.605799 0.185658,0.487952 0.197656,0.948929 0.228012,8.756183 0.03388,8.713552 0.0028,9.461598 -0.426368,10.399902 -0.767218,1.675817 -2.664245,2.540981 -4.547929,2.074132 z m -39.093778,-25.186 c 0,-0.893292 0.354519,-2.814207 0.721611,-3.9098954 1.026713,-3.064527 2.737111,-5.473643 5.354787,-7.5422951 0.841782,-0.6652167 0.991852,-0.7658369 2.149295,-1.44100976 0.578921,-0.3376987 0.617849,-0.3826058 0.491216,-0.5665771 -0.07567,-0.1098956 -0.405644,-0.7097233 -0.733346,-1.33296124 -0.327712,-0.6232318 -0.629253,-1.179507 -0.670108,-1.2361678 -0.04089,-0.056673 -0.260175,-0.4506862 -0.48738,-0.8756177 -0.227196,-0.4249312 -0.500096,-0.9227236 -0.606427,-1.106203 -0.177129,-0.3056381 -0.180113,-0.3574333 -0.03559,-0.6180803 0.195975,-0.3534489 0.698562,-0.4392421 0.941553,-0.1607186 0.08897,0.1019021 0.395185,0.6256545 0.680624,1.1639074 0.285455,0.5382471 0.801376,1.4850734 1.146532,2.1040653 0.345145,0.6189858 0.629074,1.15208164 0.630961,1.18465804 0.0019,0.032559 0.09113,0.1644121 0.198373,0.2929679 l 0.19495,0.2337439 0.960534,-0.356681 c 2.123719,-0.78860384 3.929602,-1.09437614 6.471781,-1.09578544 2.77586,-0.00183 4.764292,0.3735856 7.456631,1.40673924 0.09143,0.035109 0.339763,-0.3057726 0.73457,-1.00848004 0.328018,-0.583822 0.653474,-1.1559691 0.723266,-1.271435 0.06983,-0.1154655 0.392901,-0.7180996 0.718034,-1.3391811 0.699072,-1.3353424 0.821328,-1.4903023 1.174167,-1.4882191 0.342143,0.00181 0.479111,0.095342 0.570731,0.3888505 0.07476,0.2393924 0.02553,0.3601428 -0.639238,1.566838 -0.171657,0.3116159 -0.703898,1.2831461 -1.182766,2.1589579 l -0.870667,1.59237504 0.921459,0.5445093 c 1.286529,0.76023076 2.435434,1.68395006 3.579595,2.87798756 2.546877,2.6579022 4.039733,5.9656872 4.291183,9.5081996 l 0.06623,0.933354 -17.476291,0 -17.476283,0 0,-0.607846 z m 10.132821,-5.7736734 c 0.358429,-0.136277 0.786658,-0.802636 0.786658,-1.224105 0,-1.033815 -1.074584,-1.763396 -1.936642,-1.314866 -0.833594,0.43372 -1.11364,1.467329 -0.564261,2.082573 0.471149,0.527636 1.092064,0.692947 1.714245,0.456398 z m 16.059859,-0.168993 c 0.389354,-0.28984 0.590945,-0.688834 0.590945,-1.169661 0,-0.35329 -0.06901,-0.499868 -0.404676,-0.859727 -0.383788,-0.411439 -0.434869,-0.433819 -0.990404,-0.433819 -0.562196,0 -0.601844,0.01816 -0.98602,0.451059 -0.325223,0.366478 -0.400281,0.529475 -0.400281,0.869244 0,0.465878 0.2911,0.973443 0.714844,1.246385 0.339853,0.218904 1.115601,0.164502 1.475592,-0.103483 z"
       id="path4727"
       inkscape:connector-curvature="0" />
    <path
       style="fill:#000000"
       d="m -172.94571,142.14486 c -5.82578,-0.15074 -9.53597,-0.58023 -11.49012,-1.33007 -0.65705,-0.25213 -0.7319,-0.59156 -0.0995,-0.45116 2.40712,0.53438 14.51515,0.84006 19.84657,0.50105 8.3589,-0.53153 15.34558,-2.01219 18.52537,-3.926 0.69303,-0.41712 0.77405,-0.43044 0.77405,-0.12732 0,0.60753 -1.14493,1.68139 -2.53544,2.37804 -4.43976,2.22436 -13.21544,3.26093 -25.02094,2.95546 z m -4.57616,-3.0258 c -3.88808,-0.15288 -8.04113,-0.47721 -9.69881,-0.75743 -0.62888,-0.10631 -1.85193,-0.27033 -2.71788,-0.36449 -6.1283,-0.66639 -6.09921,-2.86739 0.0643,-4.86609 1.81963,-0.59007 3.77598,-0.88347 4.86553,-0.7297 1.13968,0.16084 0.86116,0.36503 -0.97444,0.71437 -2.17647,0.41421 -4.17287,1.34482 -4.17287,1.94517 0,0.29378 1.559,0.92893 2.98446,1.2159 7.37296,1.48431 22.2653,1.43607 32.23201,-0.10441 3.82524,-0.59123 5.76993,-1.42111 5.76993,-2.46226 0,-0.48995 0.36637,-0.60127 0.75605,-0.22974 0.38259,0.36477 0.27625,1.19044 -0.20891,1.62206 -3.0299,2.69555 -16.14365,4.51818 -28.89938,4.01662 z m 2.48705,-6.17161 c -2.98806,-0.49898 -5.51887,-1.35228 -6.344,-2.13898 -0.90811,-0.86582 -0.36323,-1.9195 1.34447,-2.59988 0.90148,-0.35917 0.98007,-0.34205 0.87336,0.19016 -0.15813,0.78871 0.53687,1.01906 4.13316,1.36986 2.79585,0.27272 3.6695,0.28649 5.9619,0.094 1.4773,-0.12405 3.40226,-0.34964 4.2777,-0.50131 l 1.59171,-0.27577 1.8415,0.80003 c 1.01282,0.44002 1.81272,0.88236 1.77755,0.98297 -0.10172,0.29093 -2.8342,1.16554 -5.11128,1.63602 -1.70079,0.3514 -2.81028,0.4404 -5.96889,0.4788 -2.13388,0.0259 -4.10361,0.01 -4.37718,-0.0359 z m -1.69119,-7.02965 c -1.51272,-0.17661 -4.17022,-0.67985 -4.91741,-0.9312 -2.68131,-0.90195 -2.84841,-2.30817 -0.41278,-3.47355 1.15931,-0.55469 1.50707,-0.53722 1.22103,0.0613 -0.5555,1.16239 0.45918,1.58028 4.47843,1.84439 3.90745,0.25678 8.39834,0.0717 12.30173,-0.50692 l 3.12078,-0.46263 1.0277,0.65937 c 0.56523,0.36266 1.10823,0.65938 1.20667,0.65938 0.38171,0 0.15483,0.53043 -0.2687,0.62822 -5.26302,1.21518 -8.98464,1.65722 -13.63657,1.6197 -1.9382,-0.0156 -3.79259,-0.0598 -4.12088,-0.0981 z m 21.18956,-0.61414 c 0,-0.0944 0.47453,-0.42693 1.05451,-0.739 1.6005,-0.86119 4.1381,-2.74677 4.87482,-3.62225 1.34795,-1.60187 1.78139,-3.40879 1.15858,-4.82994 -0.63197,-1.44204 -2.72674,-2.37152 -4.59483,-2.03878 -1.82978,0.32592 -1.05802,-0.5083 0.86152,-0.93123 3.45573,-0.76141 6.98459,1.49092 6.99037,4.46168 0.003,1.59987 -1.2039,3.44029 -3.15556,4.81154 -1.61012,1.13128 -2.77305,1.698 -5.06641,2.46897 -1.89419,0.63679 -2.123,0.68195 -2.123,0.41901 z m -24.37297,-6.09539 c -6.56339,-0.26555 -10.13938,-1.29461 -9.01951,-2.59554 0.84406,-0.98052 6.25901,-2.66555 9.11899,-2.83766 1.03958,-0.0626 1.84539,-0.0691 1.79067,-0.0145 -0.0547,0.0546 -1.09115,0.41483 -2.30317,0.80049 -3.50974,1.11677 -4.5833,1.87288 -3.32674,2.34302 1.24056,0.46416 3.17187,0.60374 8.30271,0.60003 5.59522,-0.004 9.67815,-0.2589 15.18304,-0.94775 1.77764,-0.22244 3.38923,-0.37379 3.58134,-0.33633 0.59183,0.11541 -2.10576,1.42276 -3.62999,1.75923 -4.67652,1.0323 -12.49747,1.52027 -19.69734,1.22897 z m 12.83312,-3.87887 c 0,-0.0506 0.27199,-0.51346 0.60442,-1.02857 0.69954,-1.08393 0.94647,-2.49529 0.60778,-3.47376 -0.12622,-0.36462 -0.75583,-1.3278 -1.39913,-2.1404 -1.37477,-1.73656 -2.11294,-3.10029 -2.42208,-4.47465 -0.97448,-4.332164 3.19371,-8.59135 11.20956,-11.454285 2.07207,-0.74006 3.26825,-1.022835 3.07669,-0.727331 -0.0679,0.104744 -0.95477,0.68792 -1.97083,1.29595 -3.1418,1.880124 -4.99366,3.228871 -6.47573,4.716432 -1.1454,1.149635 -1.48726,1.635617 -1.74482,2.480314 -0.29259,0.95957 -0.29318,1.13957 -0.007,2.07863 0.18458,0.60537 0.92157,1.8919 1.79243,3.12896 1.07281,1.52393 1.51582,2.33522 1.61318,2.95425 0.2584,1.64279 -0.25925,2.97514 -1.78417,4.59221 -1.0535,1.11716 -3.10046,2.47208 -3.10046,2.05225 z m -5.89819,-4.55554 c -4.24905,-4.04224 -5.69314,-6.2744 -5.70663,-8.82083 -0.0133,-2.510878 1.67653,-4.574514 7.12815,-8.704944 3.97216,-3.009517 5.02738,-3.922139 6.16568,-5.3325 1.88519,-2.335744 2.6109,-4.541291 2.4,-7.294021 -0.12852,-1.67749 -0.12539,-1.693946 0.25961,-1.361763 0.66956,0.577728 1.25818,2.178187 1.36493,3.711301 0.27408,3.936219 -2.19396,7.77025 -7.93678,12.329508 -2.62517,2.084129 -4.1696,3.699829 -5.02438,5.256209 -0.55129,1.0038 -0.61013,1.27733 -0.60636,2.81893 0.005,2.13656 0.34112,2.88125 3.00341,6.65898 2.73521,3.88121 2.45959,4.07566 -1.04763,0.73913 z"
       id="path4791"
       inkscape:connector-curvature="0"
       sodipodi:nodetypes="ssssssssssssssssssssscsssssscsssscsssssscssssssssssssssscsscssssssccsssssssssssssssssssssssssss" />
    <path
       style="fill:#000000"
       d="m -425.49518,185.36916 c -6.86785,-0.96533 -12.07512,-3.57999 -13.8907,-6.97476 -0.70568,-1.31946 -0.72354,-1.62293 -0.72354,-12.29321 0,-10.7096 0.0156,-10.97203 0.7402,-12.44256 0.96006,-1.94842 2.80337,-3.7985 4.64834,-4.66539 1.38763,-0.65201 2.12531,-0.69963 13.22638,-0.85381 l 11.75679,-0.16329 1.94169,-0.95335 c 2.56641,-1.2601 4.57311,-3.32392 5.81753,-5.9832 0.97751,-2.08891 1.02037,-2.36563 1.16074,-7.49519 l 0.14576,-5.3262 3.63158,0.008 c 5.87489,0.0129 8.14935,0.88233 10.01842,3.82955 3.19008,5.03023 4.62142,15.67107 2.9619,22.01939 -1.51767,5.8057 -3.74543,9.55515 -6.39131,10.75695 -1.22413,0.55601 -2.45724,0.60216 -16.26546,0.60879 l -14.94092,0.007 0,1.30631 0,1.30631 9.30745,0 9.30747,0 -0.002,3.02084 c -0.003,6.02356 -0.84677,8.33275 -3.84027,10.51942 -3.88214,2.83581 -12.63495,4.6081 -18.61015,3.76825 z m 15.6973,-6.24309 c 1.20162,-0.61451 1.84183,-1.67963 1.84183,-3.06427 0,-3.04052 -3.33552,-4.51175 -5.61379,-2.47611 -0.91566,0.81815 -1.06653,1.1684 -1.06653,2.47611 0,1.30772 0.15087,1.65798 1.06653,2.47613 1.14058,1.0191 2.51133,1.23284 3.77196,0.58814 z m -41.19171,-13.70046 c -2.85111,-0.5612 -5.71786,-3.22942 -6.94186,-6.46109 -1.70735,-4.50781 -2.55084,-11.3214 -1.94655,-15.72376 1.12305,-8.1816 3.14922,-11.81362 7.80931,-13.99869 l 1.83537,-0.86058 14.30726,-0.0977 14.30727,-0.0976 -0.10114,-1.04538 -0.10115,-1.04537 -9.22581,-0.0867 -9.22581,-0.0867 0.002,-4.64864 c 0.002,-4.99847 0.2424,-6.39238 1.39994,-8.11613 2.09308,-3.11692 9.83194,-4.85416 19.66249,-4.4139 7.69701,0.34471 10.90427,1.3937 13.67144,4.47146 2.43986,2.7137 2.5539,3.4356 2.43355,15.40434 -0.10001,9.94668 -0.1226,10.2529 -0.86645,11.7492 -0.42008,0.84499 -1.42092,2.1421 -2.22412,2.88246 -2.65995,2.45185 -2.46776,2.41984 -15.62704,2.60261 l -11.75679,0.1633 -1.95946,0.91425 c -2.55951,1.19422 -4.7843,3.41154 -5.92776,5.90782 -0.86291,1.88386 -0.92093,2.30161 -1.03679,7.46569 l -0.12274,5.47018 -3.47777,-0.0358 c -1.91278,-0.0197 -4.11202,-0.16062 -4.88721,-0.31321 z m 21.24901,-45.37619 c 1.99982,-2.1949 0.56893,-5.54748 -2.36768,-5.54748 -1.94221,0 -3.26985,1.35494 -3.2554,3.3223 0.0117,1.5935 0.44032,2.31316 1.81672,3.05042 1.28496,0.68828 2.70858,0.37963 3.80636,-0.82524 z"
       id="path4871"
       inkscape:connector-curvature="0" />
    <path
       style="fill:#000000"
       d="m -190.84115,63.265601 c -3.66538,-1.216647 -5.71939,-3.153463 -6.8944,-6.501066 -0.92114,-2.624301 -1.01053,-4.35015 -0.61226,-11.821321 0.20423,-3.831299 0.42153,-7.104556 0.4829,-7.273901 0.0613,-0.169337 0.42523,-0.307882 0.80857,-0.307882 l 0.69699,0 0.0152,-2.032073 c 0.0365,-4.872461 2.90804,-10.976235 8.04022,-17.090901 7.97676,-9.5037696 20.26749,-16.346402 26.26947,-14.6250448 l 0.84715,0.2429494 -0.84877,-0.7284163 c -0.7131,-0.6119986 -0.78971,-0.7696233 -0.4793,-0.9862731 0.245,-0.1709947 3.27379,-0.2343815 8.99037,-0.1881478 8.6136,0.069701 8.6223,0.070219 10.2733,0.7090436 3.17086,1.2268473 5.26828,3.4002549 6.33384,6.5632955 0.73857,2.1923995 0.67199,5.9193145 -0.34202,19.1452035 -0.46737,6.0962 -1.20873,15.850131 -1.64746,21.675406 -0.43872,5.825266 -0.81423,10.620436 -0.83447,10.655951 -0.1435,0.251897 -39.62028,2.834317 -44.69528,2.923805 -4.38679,0.07738 -5.22716,0.03006 -6.4041,-0.360628 z m 0.49491,-20.721029 c 1.8276,-0.400583 4.87468,-0.958255 6.77128,-1.239268 4.59807,-0.681301 4.80306,-0.728684 4.80306,-1.109937 0,-0.180927 0.4806,-0.754034 1.068,-1.273555 0.90415,-0.799706 8.16929,-7.540085 13.01505,-12.075015 1.34269,-1.256549 1.45234,-1.308328 2.77101,-1.308328 1.47388,0 1.5311,-0.06676 1.1619,-1.356333 -0.17241,-0.602144 0.15495,-1.888707 1.78575,-7.018239 l 1.99686,-6.280953 1.95077,-0.474498 1.95078,-0.4745057 L -153.91416,9.216 c -0.46329,-0.3948478 -1.67366,-1.3330561 -2.6897,-2.0848873 -1.01603,-0.7518225 -1.98893,-1.4782782 -2.16199,-1.6143364 -0.17307,-0.1360582 -0.0123,0.3353132 0.35715,1.047492 0.57405,1.1064565 0.67046,1.5865685 0.66255,3.2994 -0.0112,2.4272147 -0.53589,4.4374267 -1.95347,7.4843857 -5.52307,11.871242 -20.85909,24.400897 -30.03313,24.537284 -2.43449,0.03619 -3.58317,-0.348278 -4.86237,-1.627473 -0.54313,-0.543144 -0.92618,-0.835118 -0.85121,-0.648845 0.075,0.186274 0.38774,1.086852 0.69505,2.001282 0.30731,0.914431 0.67649,1.662599 0.82043,1.662599 0.14393,0 1.757,-0.327747 3.58461,-0.728329 z"
       id="path4954"
       inkscape:connector-curvature="0" />
    <path
       style="fill:#000000"
       d="M 5.9139518,1.2446838 5.1923884,1.4604352 C 3.9353782,1.836331 3.0683745,2.3774235 2.1886735,3.3374465 1.6629176,3.9112349 1.0553247,5.0546025 0.83186596,5.8856855 0.7055183,6.3555689 0.69762355,7.8416133 0.69762355,31.660508 l 0,25.276196 0.17259172,0.599307 c 0.51459703,1.775411 1.75586453,3.210502 3.43041523,3.969782 0.7937252,0.359895 1.5350295,0.529809 2.5338391,0.582526 0.5062962,0.02678 0.9895718,0.07692 1.0739623,0.11027 0.1452841,0.05732 0.1442612,0.06013 -0.01921,0.06474 -0.2419424,0.007 -0.2155406,0.147556 0.038342,0.203773 0.1160321,0.02569 0.3145181,0.07544 0.4411001,0.112667 0.6472228,0.190341 4.157062,0.607436 6.098505,0.72396 0.400806,0.02406 1.539964,0.09278 2.53145,0.153421 2.322336,0.142044 5.501743,0.263737 8.783383,0.338007 4.787825,0.108348 12.808741,0.05724 15.955834,-0.103078 0.379723,-0.01929 1.294494,-0.05599 2.032839,-0.0815 1.568256,-0.05412 7.46412,-0.409185 7.608748,-0.457865 0.05427,-0.01827 0.65301,-0.08695 1.328063,-0.153421 2.246708,-0.221163 3.685782,-0.55076 3.380064,-0.774305 -0.09234,-0.06754 0.147431,-0.09793 1.049973,-0.131837 1.269895,-0.04772 1.833055,-0.166165 2.76638,-0.584923 0.735846,-0.330152 1.238558,-0.685026 1.831478,-1.287301 1.038799,-1.055175 1.534912,-2.041592 1.747564,-3.475965 0.06138,-0.415549 0.07906,-7.499112 0.06231,-25.50633 L 63.523706,6.3076457 63.343907,5.7347009 C 62.675476,3.5770463 61.063185,2.0191836 58.87791,1.422117 l -0.647246,-0.1773942 -26.158379,0 -26.1583644,0 z m 0.9205178,1.610924 25.2378464,0 25.237854,0 0.596894,0.1749968 c 0.645036,0.1869601 1.40135,0.537727 1.79312,0.8318404 0.134306,0.1008208 0.275232,0.182181 0.311637,0.182181 0.03639,0 0.331261,0.2807136 0.656828,0.6232732 0.728115,0.7660819 1.228672,1.6465481 1.488676,2.6249454 0.181713,0.6838075 0.186109,0.8033771 0.230136,4.3269754 0.02483,1.993519 0.0745,3.624575 0.107872,3.624575 0.03335,0 0.0709,-0.146706 0.0839,-0.326013 7.8e-4,-0.01406 0.0039,-0.01944 0.0055,-0.02155 0.01664,0.05286 0.05107,0.810264 0.08149,1.843464 0.03678,1.247562 0.09533,2.166432 0.139038,2.193443 0.04131,0.02561 0.07434,0.335696 0.07434,0.69039 -3.59e-4,0.354711 0.03358,1.387036 0.07434,2.294139 0.04373,0.974414 0.06465,8.209595 0.05279,17.68183 -0.0189,15.005627 -0.02881,16.054663 -0.15342,16.377756 -0.07325,0.189857 -0.133017,0.500534 -0.134242,0.69039 -7.81e-4,0.228167 -0.02507,0.309942 -0.0695,0.239717 -0.04099,-0.06465 -0.05209,0.04022 -0.0264,0.268492 0.03678,0.326904 0.02843,0.363589 -0.07192,0.280479 -0.09856,-0.08166 -0.130181,-0.0349 -0.210956,0.326013 -0.05185,0.231705 -0.121983,0.419508 -0.158215,0.419508 -0.03624,0 -0.08265,0.07762 -0.103079,0.172601 -0.02038,0.09493 -0.01843,-0.03452 0.0055,-0.287664 0.0232,-0.25314 0.07083,-0.479488 0.107864,-0.503415 0.138943,-0.08977 0.161691,-1.895573 0.09589,-7.934769 -0.03717,-3.41746 -0.0773,-5.514541 -0.08873,-4.660173 -0.0175,1.310626 -0.03858,1.553388 -0.13425,1.553388 -0.09113,0 -0.112675,0.126333 -0.112675,0.642453 0,0.400267 -0.04521,0.747481 -0.117453,0.920533 -0.06786,0.162456 -0.08381,0.278075 -0.03834,0.278075 0.046,0 0.07908,0.250282 0.07908,0.613683 0,0.337531 -0.03186,0.613692 -0.0695,0.613692 -0.03764,0 -0.09365,0.864559 -0.124653,1.920163 -0.03092,1.055611 -0.08543,1.938178 -0.122255,1.960918 -0.03678,0.02272 -0.06708,-0.01335 -0.06708,-0.07907 0,-0.06583 -0.05178,-0.119866 -0.115064,-0.119866 -0.09269,0 -0.115071,0.119327 -0.115071,0.613684 0,0.357989 -0.03194,0.613683 -0.07677,0.613683 -0.112799,0 -0.09478,0.594513 0.01921,0.632863 0.129464,0.04357 -0.04373,0.25553 -0.316432,0.385953 -0.191449,0.09155 -0.20424,0.128964 -0.22534,0.767105 -0.01226,0.368728 -0.05536,0.668823 -0.09589,0.668823 -0.04053,0 -0.07192,0.138084 -0.07192,0.306841 0,0.273569 -0.02132,0.30685 -0.186983,0.30685 -0.10528,0 -0.288218,0.103632 -0.421906,0.23732 -0.263377,0.263377 -0.295831,0.376365 -0.11027,0.376365 0.101929,0 0.106975,0.02085 0.02874,0.115063 -0.05247,0.06333 -0.141513,0.115079 -0.196574,0.115079 -0.05498,0 -0.168734,0.08631 -0.25171,0.19177 -0.08301,0.105483 -0.188257,0.191778 -0.234923,0.191778 -0.0467,0 -0.0839,0.03967 -0.0839,0.08632 0,0.04662 -0.08632,0.151952 -0.191779,0.234922 -0.105475,0.083 -0.19177,0.196651 -0.19177,0.251704 0,0.05498 -0.05178,0.14166 -0.115072,0.194175 -0.09424,0.07817 -0.115064,0.07317 -0.115064,-0.02874 0,-0.0684 -0.03304,-0.124653 -0.07192,-0.124653 -0.09213,0 -0.541764,0.452039 -0.541764,0.544161 0,0.03896 -0.138084,0.0695 -0.306842,0.0695 -0.221608,0 -0.306849,0.03201 -0.306849,0.115065 0,0.08309 -0.08524,0.115064 -0.306842,0.115064 -0.168758,0 -0.306842,0.03178 -0.306842,0.0695 0,0.03772 -0.27616,0.09239 -0.613684,0.122264 -0.33753,0.02991 -0.613683,0.08685 -0.613683,0.124653 0,0.03772 -0.138085,0.06708 -0.306851,0.06708 -0.168757,0 -0.306841,-0.03452 -0.306841,-0.07677 0,-0.04474 -0.255702,-0.07676 -0.613684,-0.07676 -0.357982,0 -0.613684,0.03201 -0.613684,0.07676 0,0.04225 -0.138085,0.07677 -0.306842,0.07677 -0.221608,0 -0.306849,0.03201 -0.306849,0.115064 0,0.09589 -0.153422,0.115072 -0.920526,0.115072 -0.562552,0 -0.920526,0.02991 -0.920526,0.07676 0,0.04474 -0.25571,0.07677 -0.613692,0.07677 -0.494357,0 -0.613684,0.02233 -0.613684,0.115064 0,0.09589 -0.15342,0.115063 -0.920526,0.115063 -0.506296,0 -0.920533,0.03209 -0.920533,0.0695 0,0.03741 -0.552314,0.09155 -1.227368,0.122256 -0.675061,0.03077 -1.227383,0.08282 -1.227383,0.115063 0,0.03233 -0.543686,0.08417 -1.208189,0.115073 -0.70023,0.03264 -1.231546,0.08984 -1.260938,0.136639 -0.03069,0.04896 -0.651853,0.102591 -1.57256,0.13664 l -1.51984,0.05755 1.879416,-0.01437 c 1.033677,-0.007 1.706817,0.0121 1.495861,0.04077 -0.48387,0.06575 -21.586947,0.05887 -22.054348,-0.007 -0.326115,-0.04607 -0.310207,-0.05099 0.287663,-0.110269 0.348081,-0.03452 0.632863,-0.08855 0.632863,-0.119851 0,-0.06185 -1.49736,-0.158215 -2.46673,-0.158215 -0.330901,0 -0.601697,-0.02983 -0.601697,-0.06708 0,-0.03741 -0.552314,-0.09395 -1.227375,-0.124661 -0.675054,-0.03077 -1.227368,-0.08489 -1.227368,-0.122264 0,-0.03741 -0.276153,-0.0695 -0.613692,-0.0695 -0.494348,0 -0.613684,-0.02233 -0.613684,-0.115071 0,-0.0959 -0.153421,-0.115072 -0.920526,-0.115072 -0.562543,0 -0.920533,-0.02991 -0.920533,-0.07677 0,-0.04686 -0.35799,-0.07677 -0.920526,-0.07677 -0.767104,0 -0.920526,-0.01921 -0.920526,-0.115071 0,-0.0831 -0.08525,-0.115064 -0.306849,-0.115064 -0.168757,0 -0.306843,-0.03452 -0.306843,-0.07677 0,-0.04474 -0.255694,-0.07677 -0.613683,-0.07677 -0.357982,0 -0.6136846,0.03202 -0.6136846,0.07677 0,0.04474 -0.2557093,0.07677 -0.6136919,0.07677 -0.4943564,0 -0.6136836,-0.02234 -0.6136836,-0.115064 0,-0.0831 -0.085239,-0.115071 -0.3068423,-0.115071 -0.168765,0 -0.3068415,-0.03452 -0.3068415,-0.07677 0,-0.04225 -0.1380844,-0.07676 -0.3068419,-0.07676 -0.2216081,0 -0.3068419,-0.03201 -0.3068419,-0.115064 0,-0.07004 -0.071217,-0.115064 -0.1821889,-0.115064 -0.1003131,0 -0.2255516,-0.05178 -0.2780818,-0.115071 -0.052476,-0.06333 -0.1415125,-0.115064 -0.196565,-0.115064 -0.055131,0 -0.168742,-0.08632 -0.2517113,-0.191779 -0.172287,-0.219022 -0.3188283,-0.249953 -0.3188283,-0.06708 0,0.101938 -0.02085,0.106982 -0.1150638,0.02874 -0.06333,-0.05247 -0.1150715,-0.139107 -0.1150715,-0.194168 0,-0.05498 -0.086311,-0.168741 -0.1917704,-0.25171 -0.1054823,-0.08292 -0.1917781,-0.188257 -0.1917781,-0.234923 0,-0.04662 -0.039591,-0.08631 -0.086319,-0.08631 -0.046697,0 -0.1519529,-0.08632 -0.2349299,-0.191778 -0.083009,-0.105483 -0.1966509,-0.191778 -0.2517036,-0.191778 -0.054974,0 -0.1416529,-0.05178 -0.1941754,-0.115064 -0.078175,-0.09424 -0.073169,-0.115072 0.028736,-0.115072 0.1855702,0 0.1507192,-0.112987 -0.1126663,-0.376372 -0.133688,-0.133688 -0.3166344,-0.23732 -0.4219136,-0.23732 -0.1657121,0 -0.1845862,-0.03326 -0.1845862,-0.306841 0,-0.168766 -0.034515,-0.306842 -0.076762,-0.306842 -0.044355,0 -0.076762,-0.244348 -0.076762,-0.580129 0,-0.596411 -0.084976,-0.877367 -0.2612928,-0.877367 -0.2536166,0 -0.352391,-0.267704 -0.352391,-0.944515 0,-0.540131 -0.021631,-0.666424 -0.1150638,-0.666424 -0.083102,0 -0.1150715,-0.08524 -0.1150715,-0.306842 0,-0.168757 -0.029049,-0.306834 -0.064735,-0.306834 -0.035687,0 -0.090255,-0.680614 -0.1198584,-1.512642 -0.03481,-0.976288 -0.083787,-1.531242 -0.1390976,-1.565398 -0.054584,-0.03373 -0.094503,-0.43344 -0.1078797,-1.102731 -0.020928,-1.047388 -0.05474,-1.24179 -0.1821887,-1.035589 -0.1084654,0.175504 -0.1411221,-0.131321 -0.1917704,-1.80271 -0.026082,-0.861194 -0.078721,-1.54383 -0.1198663,-1.558182 -0.099751,-0.03483 -0.09508,-1.24176 0.00547,-1.24176 0.045448,0 0.029518,-0.11561 -0.038342,-0.278074 -0.07231,-0.173045 -0.1150716,-0.520267 -0.1150716,-0.920526 0,-0.520126 -0.021943,-0.642451 -0.1150638,-0.642451 -0.1012268,0 -0.1150637,0.672351 -0.1150637,5.587898 0,3.073135 -0.025925,6.326632 -0.057552,7.229994 l -0.057552,1.64209 -0.052787,-0.920534 c -0.0096,-0.165689 -0.019757,-0.697785 -0.026394,-1.361618 0.00547,0.0055 0.010542,-0.0062 0.016711,-0.03834 0.018272,-0.09493 0.018272,-0.250266 0,-0.345199 -0.00702,-0.03561 -0.013899,-0.04568 -0.01921,-0.036 -0.01101,-1.377556 -0.016789,-3.322864 -0.011948,-5.429675 0.014915,-6.54201 0.015539,-6.879946 -0.021552,-11.851818 -0.023348,-3.129219 0.062315,-13.399513 0.124653,-14.958603 0.019444,-0.485189 0.060753,-3.712799 0.093504,-7.172451 0.059422,-6.2743758 0.061687,-6.291649 0.2373083,-6.8272676 0.6771544,-2.065338 2.02873,-3.4122673 4.1088346,-4.094435 L 6.8362265,2.8557249 z M 62.528895,13.499236 c 0.0039,0.0024 0.007,0.01461 0.01194,0.03834 0.01828,0.09494 0.01828,0.250275 0,0.3452 -0.01827,0.09494 -0.03357,0.01726 -0.03357,-0.172599 0,-0.142395 0.0096,-0.220258 0.02155,-0.210957 z m -51.475321,1.517437 -0.383557,0.179784 c -0.438906,0.205287 -0.8144344,0.56045 -1.0140216,0.961287 -0.1289171,0.258895 -0.1369126,0.653931 -0.1390374,6.144054 -7.8e-4,3.227604 0.00549,4.953592 0.014369,3.835533 0.032954,-3.853962 0.1863352,-9.161373 0.2732876,-9.473774 0.089352,-0.321007 0.3684304,-0.751597 0.6328624,-0.975665 0.08543,-0.07247 0.328418,-0.191411 0.539374,-0.266103 0.363371,-0.128643 1.493073,-0.13564 21.502979,-0.136631 20.056017,-7.81e-4 21.106264,-0.009 20.826979,-0.134243 -0.276075,-0.124122 -1.579602,-0.133072 -21.272858,-0.134242 l -20.980393,0 z m 43.578909,4.226279 c -0.0062,0.0805 -0.0096,1.485795 -0.0096,3.864308 0,3.45966 0.01005,4.887638 0.02155,3.171513 0.01148,-1.716134 0.01148,-4.546765 0,-6.290284 -0.0039,-0.544857 -0.009,-0.782129 -0.01194,-0.745537 z m -39.474885,1.217787 0,9.938839 0,9.938831 0.170203,-0.119858 c 0.147603,-0.103389 0.593692,-0.119859 3.329727,-0.119859 1.738084,0 3.206409,0.01921 3.262603,0.04077 0.08247,0.03155 0.09754,0.431901 0.07677,2.075981 l -0.0264,2.037631 0.232526,-0.119859 c 0.188912,-0.09769 0.522288,-0.122256 1.764352,-0.122256 0.842469,0 1.578713,0.01921 1.634898,0.04077 0.08211,0.03147 0.09796,0.392701 0.07676,1.845855 l -0.0264,1.807496 0.232525,-0.119858 c 0.206685,-0.10688 0.921979,-0.122264 6.215973,-0.122264 l 5.983433,0 0.02397,-1.579758 c 0.0232,-1.55413 0.02561,-1.581836 0.203772,-1.725996 0.165626,-0.133984 0.321281,-0.146229 1.821881,-0.146229 1.260322,0 1.642808,-0.02225 1.644479,-0.09589 7.81e-4,-0.05279 0.0098,-0.867386 0.01921,-1.809894 0.01679,-1.6989 0.01702,-1.714899 0.196573,-1.860238 0.171842,-0.1391 0.345293,-0.146229 3.394448,-0.146229 2.519229,0 3.214203,-0.0207 3.214664,-0.09589 2.89e-4,-0.05279 6.16e-4,-4.362561 0,-9.576851 -7.81e-4,-9.395865 -0.0016,-9.481888 0.151031,-9.620019 0.0847,-0.07668 0.15581,-0.101379 0.15581,-0.05513 0,0.04622 -0.03452,0.105771 -0.07676,0.131845 -0.05052,0.03123 -0.07677,3.308261 -0.07677,9.579256 0,7.310418 -0.02288,9.551792 -0.09349,9.6224 -0.06864,0.06864 -0.898372,0.0911 -3.260213,0.0911 -3.065874,0 -3.171675,0.0055 -3.320138,0.15342 -0.144519,0.144519 -0.153421,0.257162 -0.153421,1.917775 l 0,1.761946 -0.1726,0.03834 c -0.09493,0.02148 -0.875343,0.04904 -1.733188,0.05989 -1.442696,0.01843 -1.567865,0.03006 -1.668444,0.167805 -0.08489,0.116204 -0.107887,0.47175 -0.107887,1.615726 0,1.037816 -0.02827,1.493011 -0.09349,1.558183 -0.07004,0.07004 -1.526119,0.0911 -6.088915,0.0911 -5.851612,0 -6.003338,0.0039 -6.180013,0.151024 -0.18037,0.150251 -0.154202,0.150875 6.206384,0.153421 l 6.386168,0.0024 0,-1.725995 0,-1.725995 1.841059,0 1.841052,0 0,-1.956115 0,-1.956132 3.413633,0 3.413626,0 -0.0024,-10.010758 0,-10.010752 -16.914718,0 -16.912336,0 z m 4.756065,0.767104 0.958884,0 0.958883,0 0,0.256506 0,0.254102 -0.958883,0 -0.958884,0 0,-0.254102 0,-0.256506 z m 3.221857,0 0.958883,0 0.958882,0 0,0.263699 0,0.266087 -0.918136,-0.0055 c -0.504141,-0.0024 -0.935643,-0.02468 -0.958883,-0.04794 -0.02327,-0.02327 -0.04077,-0.139373 -0.04077,-0.258912 l 0,-0.21814 z m 3.221848,0 0.958882,0 0.958883,0 0,0.261301 0,0.261293 -0.958883,-0.007 -0.958882,-0.007 0,-0.254101 0,-0.254109 z m 3.221848,0 0.95889,0 0.958884,0 0,0.268485 0,0.268493 -0.958884,0 -0.95889,0 0,-0.268493 0,-0.268485 z m 3.221855,0 0.958883,0 0.958884,0 0,0.270882 0,0.270891 -0.958884,-0.0096 -0.958883,-0.0095 0,-0.2613 0,-0.261292 z m 3.221848,0 0.958899,0 0.958875,0 0,0.258903 0,0.261294 -0.958875,-0.0055 -0.958899,-0.0055 0,-0.256497 0,-0.254117 z m 3.221863,0 0.958876,0 0.958883,0 0,0.256506 0,0.258896 -0.906142,0.01203 c -0.498362,0.007 -0.929873,-0.0093 -0.958875,-0.03834 -0.02896,-0.02898 -0.05279,-0.151344 -0.05279,-0.270882 l 0,-0.218149 z m 3.221848,0 0.958884,0 0.95889,0 0,0.275678 0,0.273286 -0.95889,-0.02155 -0.958884,-0.02155 0,-0.25172 0,-0.2541 z m -20.6352,1.802703 0,1.112304 -0.0024,1.112311 -0.882175,0 c -0.485221,0 -0.91442,-0.0099 -0.956487,-0.02397 -0.046,-0.0153 -0.07676,-0.452165 -0.07676,-1.090735 l 0,-1.061961 0.958883,-0.02397 0.958884,-0.02397 z m 6.443703,0 0,1.112304 0,1.112311 -0.96128,0 -0.96128,0 0.02155,-1.095531 0.02155,-1.097919 0.939705,-0.01437 0.93972,-0.01671 z m 1.304083,0 0.95889,0 0.958884,0 0,1.112304 0,1.112311 -0.958884,0 -0.95889,0 0,-1.112311 0,-1.112304 z m 5.139622,0 0,1.112304 0,1.112311 -0.827039,0 c -1.210813,0 -1.090728,0.123717 -1.090728,-1.117105 0,-0.801067 0.02397,-1.070504 0.09589,-1.073948 0.05279,-0.0024 0.484276,-0.01117 0.958891,-0.01921 l 0.862991,-0.01437 z m 6.443703,0 0,1.112304 0,1.112311 -0.961281,0 -0.961272,0 0.02155,-1.095531 0.02155,-1.097919 0.939696,-0.01437 0.939721,-0.01671 z m 3.221863,0 0,1.112304 0,1.112311 -0.95889,0 -0.958884,0 0,-1.088338 0,-1.088331 0.958884,-0.02397 0.95889,-0.02397 z m -7.071779,0.01671 c 0.337312,-0.0039 0.581433,0.0039 0.594506,0.01679 0.01741,0.01764 0.03357,0.518119 0.03357,1.112304 l 0,1.078742 -0.958875,0 -0.95889,0 0,-1.088332 0,-1.08833 0.925328,-0.02397 c 0.127488,-0.0024 0.251938,-0.0062 0.364369,-0.007 z m -14.177105,0.02155 0.958883,0 0.958882,0 0,1.093118 0,1.093141 -0.958882,0 -0.958883,0 0,-1.093141 0,-1.093118 z m 31.492168,10.624435 -0.04077,6.443704 c -0.04419,7.118991 -0.0096,6.674596 -0.539358,7.277934 -0.138405,0.157638 -0.383877,0.354522 -0.54417,0.436297 -0.281018,0.143355 -0.547464,0.149071 -7.448136,0.174997 -5.48229,0.02053 -7.209519,0.04912 -7.385813,0.122256 -0.182149,0.07559 -3.044742,0.08551 -13.731227,0.0456 -12.384242,-0.04631 -13.962103,-0.07192 -14.421617,-0.237327 -0.118367,-0.04256 -0.133696,-0.03397 -0.06708,0.03834 0.0474,0.05154 0.220047,0.140521 0.383548,0.198962 0.250955,0.0897 3.578043,0.104686 21.35436,0.09109 20.089314,-0.0153 21.068758,-0.02194 21.332791,-0.15342 0.363488,-0.180987 0.730888,-0.546958 0.937299,-0.932505 l 0.167805,-0.311644 0,-6.597125 0.0024,-6.597125 z m -35.977352,6.482067 c -2.962835,0 -3.101107,0.0062 -3.274589,0.151023 -0.180635,0.150492 -0.171061,0.150875 3.214656,0.153421 1.866946,7.81e-4 3.394448,-0.01062 3.394448,-0.02874 0,-0.01804 -0.05591,-0.08712 -0.122256,-0.153421 -0.1056,-0.105599 -0.502899,-0.122264 -3.212259,-0.122264 z m 5.254686,3.912245 c -1.39914,0 -1.535342,0.01218 -1.702023,0.151024 l -0.179791,0.151031 1.821881,0.0024 c 1.002034,7.8e-4 1.82188,-0.01062 1.82188,-0.02874 0,-0.01804 -0.05599,-0.08712 -0.122256,-0.15342 -0.101472,-0.101473 -0.359941,-0.122256 -1.639691,-0.122256 z M 3.7276934,55.747592 c 0.042246,0 0.076762,0.138076 0.076762,0.306841 0,0.168758 -0.034515,0.306842 -0.076762,0.306842 -0.042247,0 -0.076762,-0.138084 -0.076762,-0.306842 0,-0.168765 0.034515,-0.306841 0.076762,-0.306841 z m 58.1611386,2.869456 c 0.0349,-0.01038 0.06231,0.02156 0.06231,0.07907 0,0.06575 -0.03452,0.119874 -0.07676,0.119874 -0.04225,0 -0.07677,-0.03218 -0.07677,-0.07192 0,-0.03975 0.03452,-0.0938 0.07677,-0.119867 0.0055,-0.0024 0.0093,-0.0055 0.01444,-0.007 z m -41.975169,3.353701 c 0.03467,0 0.0695,0.0062 0.09589,0.01679 0.05279,0.02132 0.0096,0.03834 -0.09589,0.03834 -0.105474,0 -0.148626,-0.0171 -0.09589,-0.03834 0.0264,-0.01062 0.06123,-0.01679 0.09589,-0.01679 z m 3.221857,0 c -0.285033,0 -0.570057,0.0024 -0.786292,0.0096 -0.432455,0.01366 -0.07862,0.0264 0.786292,0.0264 0.864918,0 1.218738,-0.01273 0.786283,-0.0264 -0.216236,-0.007 -0.50126,-0.0096 -0.786283,-0.0096 z"
       id="path5023"
       inkscape:connector-curvature="0" />
    <path
       style="fill:#000000"
       d="m -337.85193,288.14721 c -1.93256,-3.81373 -3.26253,-4.10587 -7.03172,-1.54465 -2.07986,1.4133 -2.73465,1.57316 -4.02875,0.98354 -1.37514,-0.62657 -1.54523,-1.12381 -1.54523,-4.51745 0,-4.71625 -0.72339,-5.42497 -5.28978,-5.1826 -3.0783,0.16338 -3.51307,0.0178 -4.33815,-1.45215 -0.83993,-1.49644 -0.7727,-1.84606 0.80001,-4.16052 2.59156,-3.81382 2.30805,-5.13762 -1.51523,-7.07501 -2.78413,-1.41085 -3.23223,-1.90374 -3.23223,-3.55546 0,-1.65172 0.4481,-2.14463 3.23223,-3.55546 3.81373,-1.93257 4.10588,-3.26254 1.54465,-7.03173 -1.4133,-2.07985 -1.57316,-2.73466 -0.98354,-4.02875 0.62502,-1.37175 1.12654,-1.54523 4.46731,-1.54523 2.0698,0 4.11234,-0.34909 4.53899,-0.77573 0.42666,-0.42666 0.77574,-2.4692 0.77574,-4.53899 0,-3.34079 0.17348,-3.8423 1.54523,-4.46731 1.2941,-0.58963 1.94889,-0.42977 4.02875,0.98353 3.76919,2.56124 5.09916,2.26909 7.03172,-1.54465 1.41084,-2.78413 1.90374,-3.23223 3.55546,-3.23223 1.65173,0 2.14463,0.4481 3.55546,3.23223 1.9374,3.82329 3.26119,4.10679 7.07502,1.51523 2.31076,-1.57021 2.6659,-1.63891 4.15385,-0.80376 1.47236,0.82643 1.6112,1.25547 1.46035,4.51233 -0.20949,4.52239 0.57674,5.2831 5.20626,5.03738 3.07154,-0.16302 3.51412,-0.016 4.33074,1.43893 0.83194,1.4822 0.7573,1.85059 -0.87444,4.31633 -2.36591,3.57512 -1.91775,5.25376 1.8975,7.10735 2.51839,1.22353 2.9318,1.70022 2.9318,3.38053 0,1.68029 -0.41341,2.157 -2.9318,3.38051 -3.80205,1.84719 -4.26198,3.53438 -1.92579,7.06461 1.46728,2.2172 1.64111,2.90474 1.05797,4.18458 -0.61923,1.35904 -1.1271,1.53145 -4.51117,1.53145 -4.71624,0 -5.42498,0.7234 -5.1826,5.28979 0.16338,3.0783 0.0178,3.51306 -1.45216,4.33815 -1.49642,0.83991 -1.84605,0.77269 -4.16051,-0.80002 -3.81383,-2.59156 -5.13762,-2.30804 -7.07502,1.51523 -1.41083,2.78413 -1.90373,3.23223 -3.55546,3.23223 -1.65172,0 -2.14462,-0.4481 -3.55546,-3.23223 z m 8.32881,-11.77575 c 3.55083,-1.04911 8.90608,-6.40437 9.95521,-9.95521 1.79088,-6.0613 0.52829,-10.89304 -4.04029,-15.46162 -6.05692,-6.05692 -14.11237,-6.49013 -20.41216,-1.09774 -5.41243,4.63283 -7.13051,11.65258 -4.34247,17.74245 3.45633,7.54964 11.03461,11.07822 18.83971,8.77212 z m 26.98079,-34.11568 c -0.93693,-3.1272 -2.83392,-3.85244 -5.91255,-2.26042 -2.04443,1.05722 -2.13317,1.04499 -3.6861,-0.50795 -1.55293,-1.55293 -1.56517,-1.64166 -0.50794,-3.6861 1.59202,-3.07862 0.86678,-4.9756 -2.26042,-5.91254 -2.40165,-0.71956 -2.57952,-0.93704 -2.57952,-3.15398 0,-2.21694 0.17787,-2.43443 2.57952,-3.15399 3.1272,-0.93692 3.85244,-2.83391 2.26042,-5.91253 -1.05723,-2.04443 -1.04499,-2.13318 0.50794,-3.68611 1.55293,-1.55293 1.64167,-1.56517 3.6861,-0.50794 3.07863,1.59202 4.97562,0.86679 5.91255,-2.26043 0.71954,-2.40164 0.93703,-2.5795 3.15397,-2.5795 2.21694,0 2.43443,0.17786 3.15399,2.5795 0.93693,3.12722 2.83391,3.85245 5.91253,2.26043 2.04445,-1.05723 2.13319,-1.04499 3.68612,0.50794 1.55292,1.55293 1.56516,1.64168 0.50794,3.68611 -1.59203,3.07862 -0.86679,4.97561 2.26042,5.91253 2.40165,0.71956 2.57951,0.93705 2.57951,3.15399 0,2.21694 -0.17786,2.43442 -2.57951,3.15398 -3.12721,0.93694 -3.85245,2.83392 -2.26042,5.91254 1.05722,2.04444 1.04498,2.13317 -0.50794,3.6861 -1.55293,1.55294 -1.64167,1.56517 -3.68612,0.50795 -3.07862,-1.59202 -4.9756,-0.86678 -5.91253,2.26042 -0.71956,2.40164 -0.93705,2.57952 -3.15399,2.57952 -2.21694,0 -2.43443,-0.17788 -3.15397,-2.57952 z m 6.96945,-8.37784 c 6.11864,-3.12149 5.94146,-11.25198 -0.31116,-14.27882 -3.34562,-1.61959 -5.81455,-1.31402 -8.64822,1.07034 -4.35067,3.66086 -3.74011,10.57243 1.16277,13.16258 3.02675,1.599 4.73262,1.60904 7.79661,0.0459 z"
       id="path5088"
       inkscape:connector-curvature="0" />
    <path
       sodipodi:type="arc"
       style="fill:#000000;fill-opacity:1;stroke:none"
       id="path5098"
       sodipodi:cx="323.04544"
       sodipodi:cy="82.954544"
       sodipodi:rx="5.8636365"
       sodipodi:ry="5.8636365"
       d="m 328.90908,82.954544 a 5.8636365,5.8636365 0 1 1 -11.72728,0 5.8636365,5.8636365 0 1 1 11.72728,0 z"
       transform="matrix(0.42822702,0,0,0.42822702,-433.127,222.714)" />
    <path
       d="m 328.90908,82.954544 a 5.8636365,5.8636365 0 1 1 -11.72728,0 5.8636365,5.8636365 0 1 1 11.72728,0 z"
       sodipodi:ry="5.8636365"
       sodipodi:rx="5.8636365"
       sodipodi:cy="82.954544"
       sodipodi:cx="323.04544"
       id="path5100"
       style="fill:#4ca84c;fill-opacity:1;stroke:none"
       sodipodi:type="arc"
       transform="matrix(0.42822702,0,0,0.42822702,-428.72794,231.20068)" />
    <path
       transform="matrix(0.42822702,0,0,0.42822702,-428.72794,231.17472)"
       sodipodi:type="arc"
       style="fill:#000000;fill-opacity:1;stroke:none"
       id="path5102"
       sodipodi:cx="323.04544"
       sodipodi:cy="82.954544"
       sodipodi:rx="5.8636365"
       sodipodi:ry="5.8636365"
       d="m 328.90908,82.954544 a 5.8636365,5.8636365 0 1 1 -11.72728,0 5.8636365,5.8636365 0 1 1 11.72728,0 z" />
    <path
       transform="matrix(0.42822702,0,0,0.42822702,-437.99321,231.20068)"
       d="m 328.90908,82.954544 a 5.8636365,5.8636365 0 1 1 -11.72728,0 5.8636365,5.8636365 0 1 1 11.72728,0 z"
       sodipodi:ry="5.8636365"
       sodipodi:rx="5.8636365"
       sodipodi:cy="82.954544"
       sodipodi:cx="323.04544"
       id="path5104"
       style="fill:#000000;fill-opacity:1;stroke:none"
       sodipodi:type="arc" />
    <path
       sodipodi:type="arc"
       style="fill:#000000;fill-opacity:1;stroke:none"
       id="path5106"
       sodipodi:cx="323.04544"
       sodipodi:cy="82.954544"
       sodipodi:rx="5.8636365"
       sodipodi:ry="5.8636365"
       d="m 328.90908,82.954544 a 5.8636365,5.8636365 0 1 1 -11.72728,0 5.8636365,5.8636365 0 1 1 11.72728,0 z"
       transform="matrix(0.42822702,0,0,0.42822702,-431.97858,239.63545)" />
    <path
       transform="matrix(0.42822702,0,0,0.42822702,-440.71829,239.63545)"
       d="m 328.90908,82.954544 a 5.8636365,5.8636365 0 1 1 -11.72728,0 5.8636365,5.8636365 0 1 1 11.72728,0 z"
       sodipodi:ry="5.8636365"
       sodipodi:rx="5.8636365"
       sodipodi:cy="82.954544"
       sodipodi:cx="323.04544"
       id="path5108"
       style="fill:#000000;fill-opacity:1;stroke:none"
       sodipodi:type="arc" />
    <path
       transform="matrix(0.42822702,0,0,0.42822702,-423.23885,239.63545)"
       d="m 328.90908,82.954544 a 5.8636365,5.8636365 0 1 1 -11.72728,0 5.8636365,5.8636365 0 1 1 11.72728,0 z"
       sodipodi:ry="5.8636365"
       sodipodi:rx="5.8636365"
       sodipodi:cy="82.954544"
       sodipodi:cx="323.04544"
       id="path5110"
       style="fill:#000000;fill-opacity:1;stroke:none"
       sodipodi:type="arc" />
    <path
       sodipodi:type="arc"
       style="fill:#000000;fill-opacity:1;stroke:none"
       id="path5112"
       sodipodi:cx="323.04544"
       sodipodi:cy="82.954544"
       sodipodi:rx="5.8636365"
       sodipodi:ry="5.8636365"
       d="m 328.90908,82.954544 a 5.8636365,5.8636365 0 1 1 -11.72728,0 5.8636365,5.8636365 0 1 1 11.72728,0 z"
       transform="matrix(0.42822702,0,0,0.42822702,-425.80821,248.09618)" />
    <path
       transform="matrix(0.42822702,0,0,0.42822702,-433.7888,248.09618)"
       d="m 328.90908,82.954544 a 5.8636365,5.8636365 0 1 1 -11.72728,0 5.8636365,5.8636365 0 1 1 11.72728,0 z"
       sodipodi:ry="5.8636365"
       sodipodi:rx="5.8636365"
       sodipodi:cy="82.954544"
       sodipodi:cx="323.04544"
       id="path5114"
       style="fill:#000000;fill-opacity:1;stroke:none"
       sodipodi:type="arc" />
    <path
       style="fill:none;stroke:#000000;stroke-width:0.42822701px;stroke-linecap:butt;stroke-linejoin:miter;stroke-opacity:1"
       d="m -295.2379,258.80186 -4.2701,7.39603"
       id="path5116"
       inkscape:connector-curvature="0" />
    <path
       style="fill:none;stroke:#000000;stroke-width:0.42822701px;stroke-linecap:butt;stroke-linejoin:miter;stroke-opacity:1"
       d="m -294.42037,258.724 4.79147,8.29906"
       id="path5118"
       inkscape:connector-curvature="0" />
    <path
       style="fill:none;stroke:#000000;stroke-width:0.42822701px;stroke-linecap:butt;stroke-linejoin:miter;stroke-opacity:1"
       d="m -298.508,267.95034 4.00441,6.93582"
       id="path5120"
       inkscape:connector-curvature="0" />
    <path
       style="fill:none;stroke:#000000;stroke-width:0.42822701px;stroke-linecap:butt;stroke-linejoin:miter;stroke-opacity:1"
       d="m -300.33769,268.69001 -1.52786,5.70203"
       id="path5122"
       inkscape:connector-curvature="0" />
    <path
       style="fill:none;stroke:#000000;stroke-width:0.42822701px;stroke-linecap:butt;stroke-linejoin:miter;stroke-opacity:1"
       d="m -298.27441,267.09389 12.71092,7.33865"
       id="path5124"
       inkscape:connector-curvature="0" />
    <path
       style="fill:none;stroke:#000000;stroke-width:0.42822701px;stroke-linecap:butt;stroke-linejoin:miter;stroke-opacity:1"
       d="m -293.56391,275.58057 5.48909,6.69592"
       id="path5126"
       inkscape:connector-curvature="0" />
    <path
       style="fill:none;stroke:#000000;stroke-width:0.42822701px;stroke-linecap:butt;stroke-linejoin:miter;stroke-opacity:1"
       d="m -294.22572,276.43703 -1.09004,6.1509"
       id="path5128"
       inkscape:connector-curvature="0" />
    <path
       style="fill:#000000"
       d="m -201.61491,-21.372766 c -0.79631,-0.194158 -1.18994,-0.474518 -1.49996,-1.068338 l -0.3105,-0.594732 0.0923,-22.731936 c 0.0967,-23.824761 0.17357,-29.093391 0.43346,-29.703503 l 0.15482,-0.363443 30.66822,0 30.66822,0 0.15482,0.363443 c 0.25988,0.610112 0.33677,5.878742 0.43346,29.703503 l 0.0922,22.731936 -0.31048,0.593837 c -0.25251,0.482922 -0.43393,0.64338 -0.97132,0.859055 -0.65405,0.262506 -0.96037,0.265436 -29.93478,0.286036 -16.10069,0.01149 -29.4524,-0.02266 -29.67047,-0.07583 z m 56.10295,-5.297539 c -0.1263,-0.08163 -9.76682,-0.128108 -26.56465,-0.128108 -16.79782,0 -26.43834,0.04653 -26.56464,0.128108 -0.12835,0.08295 9.23817,0.128116 26.56464,0.128116 17.32648,0 26.69299,-0.04517 26.56465,-0.128116 z m -53.30252,-12.125899 c -0.0333,-0.127205 -0.0604,-0.02314 -0.0604,0.231289 0,0.254411 0.0272,0.358486 0.0604,0.23128 0.0333,-0.127205 0.0333,-0.335363 0,-0.462569 z m 0.002,-1.121841 c -0.0316,-0.164401 -0.0587,-0.06099 -0.0601,0.22974 -0.002,0.290761 0.0244,0.42527 0.0575,0.298911 0.033,-0.12636 0.0342,-0.364249 0.002,-0.528651 z m -0.006,-0.926677 c -0.0366,-0.09087 -0.0667,-0.01652 -0.0667,0.165207 0,0.18172 0.03,0.256064 0.0667,0.165198 0.0366,-0.09086 0.0366,-0.23954 0,-0.330405 z m 53.52855,-0.256064 c -0.0421,-0.105424 -0.0735,-0.07408 -0.0798,0.07985 -0.006,0.139314 0.0255,0.217377 0.0694,0.173462 0.0439,-0.0439 0.0486,-0.157906 0.0105,-0.253312 z m -53.52496,-0.602984 c -0.0333,-0.127215 -0.0604,-0.02315 -0.0604,0.231279 0,0.254412 0.0272,0.358487 0.0604,0.231281 0.0333,-0.127206 0.0333,-0.335355 0,-0.46256 z m 26.73784,-30.033919 26.69565,0 0.0342,14.108336 0.0343,14.108343 0.0324,-14.174416 0.0324,-14.174425 -26.82897,0 -26.82897,0 0.0325,14.9674 0.0325,14.967391 0.0342,-14.901311 0.0342,-14.901318 26.69565,0 z m 26.79032,29.044233 c -0.0316,-0.164393 -0.0587,-0.06099 -0.0601,0.229747 -0.002,0.290754 0.0244,0.425261 0.0575,0.298902 0.0331,-0.126352 0.0342,-0.364249 0.002,-0.528649 z m -57.09736,-3.56166 c -0.0421,-0.105431 -0.0735,-0.07415 -0.0799,0.07984 -0.006,0.139323 0.0255,0.217386 0.0694,0.173469 0.0439,-0.0439 0.0486,-0.157904 0.0105,-0.253309 z m 60.66553,-0.669074 c -0.0315,-0.163554 -0.0572,-0.02978 -0.0572,0.297362 0,0.327101 0.0258,0.460916 0.0572,0.29737 0.0314,-0.163555 0.0314,-0.431184 0,-0.594732 z m -60.66828,-0.792975 c -0.0366,-0.09087 -0.0666,-0.01651 -0.0666,0.165199 0,0.181731 0.03,0.256072 0.0666,0.165208 0.0366,-0.09087 0.0366,-0.239549 0,-0.330407 z m 60.6666,-0.06353 c -0.0335,-0.128595 -0.0631,-0.05539 -0.0659,0.162686 -0.002,0.218069 0.0247,0.323278 0.0609,0.233801 0.0362,-0.08948 0.0384,-0.267892 0.005,-0.396487 z m -60.65929,-1.190162 c -0.0304,-0.200902 -0.056,-0.06793 -0.0571,0.295549 -8e-4,0.363443 0.0239,0.527813 0.0552,0.365264 0.0314,-0.162558 0.0322,-0.459918 0.002,-0.660813 z m 60.65929,0.26502 c -0.0335,-0.128587 -0.0631,-0.05539 -0.0659,0.162692 -0.002,0.218063 0.0247,0.323271 0.0609,0.233795 0.0362,-0.08948 0.0384,-0.267901 0.005,-0.396487 z m 0.15701,-18.967819 0.0207,-7.764542 -30.53896,0 -30.53896,0 0.0359,8.557511 c 0.0197,4.706638 0.0706,10.163294 0.11304,12.125904 0.0474,2.193947 0.0872,-0.816824 0.10323,-7.816744 l 0.0262,-11.385123 0.56169,-0.05922 c 0.30893,-0.03257 0.62117,-0.01644 0.69385,0.03592 0.0727,0.05236 0.25111,0.05044 0.39649,-0.004 0.14538,-0.0546 0.35353,-0.05492 0.46257,-7.98e-4 0.10903,0.05412 0.55508,0.05835 0.99121,0.0094 0.43614,-0.04893 1.06061,-0.07008 1.38771,-0.04685 0.3271,0.02315 1.27868,0.03297 2.1146,0.02179 1.68173,-0.02251 2.28326,-0.0064 2.72103,0.07311 0.16132,0.02921 0.49923,0.0064 0.75091,-0.05005 0.26344,-0.05939 0.5559,-0.04821 0.68925,0.0265 0.13954,0.07806 0.26481,0.08132 0.31503,0.0081 0.0675,-0.09831 1.08142,-0.135411 1.33892,-0.04901 0.0363,0.01221 0.77976,0.0092 1.65204,-0.0064 1.50131,-0.02738 3.05666,-0.0089 4.46063,0.05276 0.34535,0.01517 0.62782,-0.0024 0.62771,-0.03847 -1.1e-4,-0.0364 0.22284,-0.05476 0.49546,-0.04095 0.49462,0.02506 0.62925,0.02849 1.75121,0.04494 0.32711,0.0048 0.71368,0.01437 0.85906,0.02139 0.14537,0.0072 0.79958,-0.0024 1.45378,-0.02099 0.65421,-0.01852 1.24894,-0.02131 1.32162,-0.0064 0.28581,0.05899 2.77445,-7.98e-4 2.99919,-0.07224 0.13134,-0.04166 0.2388,-0.02602 0.2388,0.03472 0,0.08896 1.20074,0.113741 1.45378,0.03001 0.0364,-0.01205 0.11025,-0.01501 0.16423,-0.0064 0.054,0.0085 0.6487,0.01285 1.32162,0.0098 2.39515,-0.01078 2.61717,-0.0056 2.72688,0.0621 0.0611,0.03775 0.29708,0.01524 0.52452,-0.04997 0.25309,-0.07256 0.4434,-0.07024 0.49052,0.0056 0.0423,0.06848 0.13042,0.09156 0.19572,0.05116 0.16229,-0.100299 1.76808,-0.126503 1.92202,-0.03137 0.0682,0.04214 0.39107,0.02698 0.71755,-0.03368 0.32647,-0.06066 0.64573,-0.05962 0.70949,0.0024 0.0637,0.06194 0.24216,0.0708 0.39648,0.01979 0.15432,-0.051 0.45901,-0.08181 0.67707,-0.06848 1.21365,0.07431 1.64111,0.07176 2.0224,-0.01205 0.28367,-0.06226 0.42261,-0.04302 0.42261,0.05875 0,0.09317 0.10549,0.118091 0.27378,0.06465 0.24919,-0.0791 5.42979,-0.135866 5.7396,-0.0629 0.0727,0.01716 0.19164,0.01964 0.26433,0.0056 0.10185,-0.01963 1.8004,-0.02019 2.90757,-7.98e-4 1.25714,0.02179 5.34866,0.01469 6.21164,-0.01078 0.36345,-0.01078 0.69055,-0.0091 0.7269,0.004 0.17955,0.06274 1.45379,0.06936 1.45386,0.0072 5e-5,-0.03919 0.20821,-0.07303 0.46256,-0.07535 l 0.46249,-0.004 0.0243,12.36129 c 0.02,10.151627 0.0404,11.416293 0.11399,7.074789 0.0493,-2.907567 0.099,-8.780546 0.11028,-13.051035 z m -60.81564,16.919156 c -0.0294,-0.237546 -0.0541,-0.07502 -0.0548,0.36108 -8e-4,0.436134 0.0233,0.630483 0.0535,0.431896 0.0302,-0.198596 0.0307,-0.555438 0.002,-0.792976 z m 26.33671,-5.784477 0,-0.792974 -4.2292,0 -4.2292,0 0,0.792974 0,0.792976 4.2292,0 4.2292,0 0,-0.792976 z m -13.67881,-3.624531 4.22919,-1.640944 0,-1.031894 0,-1.031894 -4.16311,-1.621422 c -2.28972,-0.891781 -4.20773,-1.62162 -4.26224,-1.62186 -0.0545,-2.63e-4 -0.0991,0.409258 -0.0991,0.91003 l 0,0.910465 2.6102,1.024368 c 1.43562,0.563402 2.8421,1.115272 3.12553,1.226369 l 0.51533,0.201996 -3.0925,1.215843 -3.09248,1.215857 -0.0388,0.942594 c -0.0214,0.518427 -0.0214,0.94233 0,0.942012 0.0214,-2.56e-4 1.94197,-0.738995 4.26803,-1.64152 z"
       id="path5224"
       inkscape:connector-curvature="0" />
    <path
       style="fill:#000000"
       d="m -429.22602,272.13022 c -10.68102,-7.62608 -22.6908,-16.29755 -26.68841,-19.26993 -7.20778,-5.35926 -7.29152,-5.3974 -10.04252,-4.57318 -4.51226,1.35191 -4.44687,1.44309 -4.44687,-6.2018 l 0,-7.03294 3.44315,-1.4759 c 1.89372,-0.81176 3.63618,-1.19729 3.87213,-0.85675 0.23595,0.34054 1.59065,1.47607 3.01043,2.52339 l 2.58143,1.90423 20.95675,-9.92609 20.95674,-9.92608 18.68665,6.79027 c 13.79623,5.01323 18.68662,7.09879 18.68662,7.96903 0,0.6483 -3.00516,4.19645 -6.67814,7.88479 l -6.67818,6.70605 2.99466,1.35041 c 5.72239,2.58044 6.61505,0.94601 -13.39075,24.51854 -4.82193,5.68161 -5.84736,7.35088 -6.22983,10.14133 -0.25181,1.83714 -0.71794,3.34025 -1.03583,3.34025 -0.31789,0 -9.31701,-6.23952 -19.99803,-13.86562 z m 19.30142,5.4553 0,-6.19768 -7.68981,-5.23437 c -4.2294,-2.8789 -7.88028,-5.23438 -8.11307,-5.23438 -0.23279,0 -0.42326,1.84503 -0.42326,4.10007 0,2.25503 -0.26477,3.93642 -0.58837,3.73641 -0.32361,-0.2 -1.07039,-0.0473 -1.65949,0.33917 -0.87722,0.57559 -0.68385,1.00069 1.06827,2.34837 3.31721,2.55154 16.95574,12.34007 17.19361,12.34007 0.11666,0 0.21212,-2.78895 0.21212,-6.19766 z m 5.90041,-5.65812 c 0,-0.388 -2.33809,-2.41138 -5.19574,-4.4964 -3.34654,-2.44171 -4.94186,-4.04485 -4.48237,-4.50433 0.45949,-0.45949 2.61,0.62283 6.04228,3.041 4.92598,3.47055 6.58603,4.04757 6.58603,2.28928 0,-0.37847 -2.32343,-2.23312 -5.16317,-4.12143 -4.07849,-2.712 -4.99062,-3.64121 -4.34175,-4.42306 0.93991,-1.13252 0.95297,-1.12669 7.03174,3.1476 3.56225,2.50479 4.7017,2.98515 5.31838,2.24211 0.60394,-0.7277 -0.91337,-2.00555 -6.58364,-5.54462 -4.05264,-2.52943 -7.70664,-4.38995 -8.12,-4.13448 -0.50996,0.31517 -0.50897,0.75679 0.002,1.37376 0.54881,0.66128 -0.0473,1.69233 -2.18557,3.78031 -1.61711,1.57906 -2.8533,3.10372 -2.74709,3.38812 0.10618,0.28442 2.99575,2.51626 6.42116,4.95967 5.78434,4.12605 7.41665,4.78686 7.41665,3.00247 z m -31.71472,-7.02469 c 0,-0.24294 -0.48601,-1.48756 -1.08004,-2.76583 -0.59403,-1.27826 -1.17484,-4.14724 -1.29071,-6.37552 l -0.21068,-4.05139 -12.16889,-8.30468 c -6.6929,-4.56758 -12.2518,-8.05482 -12.35311,-7.74944 -0.10129,0.3054 0.0644,2.95654 0.36808,5.89144 l 0.55228,5.33618 12.53837,9.19801 c 11.89673,8.7273 13.6447,9.85736 13.6447,8.82123 z m -9.52478,-7.85577 c -0.7393,-1.95787 0.24598,-4.24092 1.83021,-4.24092 1.30015,0 2.45906,2.69994 1.96685,4.5822 -0.48936,1.87127 -3.04844,1.64127 -3.79706,-0.34128 z m 53.5645,0.45681 c 0.15269,-0.45866 -3.60139,-3.05427 -8.34241,-5.76802 -7.22041,-4.13294 -8.78108,-4.77304 -9.61196,-3.94216 -0.83086,0.83088 0.35396,1.79814 7.29719,5.95728 8.00734,4.79654 10.06812,5.52224 10.65718,3.7529 z m 4.26992,-5.36214 c 0,-0.55715 -2.42856,-2.26204 -5.39679,-3.78865 -6.37036,-3.27638 -6.73402,-3.57807 -5.29157,-4.38965 0.6051,-0.34046 4.16644,-3.1105 7.91409,-6.15564 l 6.81392,-5.53662 -9.39535,-3.64336 c -23.06304,-8.94344 -22.08184,-8.64605 -24.5969,-7.45494 l -2.2779,1.07879 7.63339,3.11558 c 7.23357,2.95238 10.65403,3.88563 9.07164,2.47515 -0.38537,-0.34352 -3.45167,-1.71359 -6.814,-3.04462 -3.36233,-1.33102 -5.93877,-2.59459 -5.72544,-2.80793 0.21335,-0.21334 3.69227,0.89987 7.73095,2.4738 4.78225,1.86371 7.03612,3.08305 6.46299,3.49648 -0.55344,0.39919 -0.2638,0.4997 0.78043,0.27081 1.06818,-0.23413 1.48545,-0.0807 1.16973,0.43013 -0.31341,0.5071 -0.0334,0.61858 0.77484,0.30845 0.85292,-0.3273 1.09342,-0.20704 0.73755,0.36877 -0.35245,0.57028 -0.1208,0.69814 0.69668,0.38447 1.22313,-0.46937 9.37372,2.23406 9.3085,3.08747 -0.0189,0.24794 -3.02752,2.77409 -6.68572,5.61367 -4.45622,3.45902 -7.30489,5.16285 -8.63178,5.16285 -3.8254,0 -2.35595,1.51402 5.53943,5.70745 7.86935,4.17959 10.18131,4.82621 10.18131,2.84754 z m -34.29615,-2.97981 c 0,-0.38172 -0.36342,-0.91863 -0.8076,-1.19314 -0.49769,-0.30759 -0.0462,-0.99857 1.17637,-1.80059 3.09049,-2.02735 0.81397,-2.55726 -2.64188,-0.61496 l -3.00443,1.68859 1.61414,1.30706 c 1.74343,1.41173 3.6634,1.73302 3.6634,0.61304 z m -3.33795,-7.05027 c 5.85896,-3.85371 11.00771,-7.00675 11.44164,-7.00675 0.43394,0 2.76144,0.9957 5.17224,2.21266 2.41078,1.21696 4.72969,2.21266 5.15312,2.21266 1.08182,0 11.22929,-7.46508 10.77077,-7.92361 -0.20684,-0.20683 -1.39749,-0.49499 -2.64591,-0.64034 -1.24843,-0.14535 -2.89943,-0.60122 -3.6689,-1.01302 -1.76748,-0.94593 -2.44762,-0.95424 -1.87202,-0.0229 0.24675,0.39923 1.50793,1.00037 2.80263,1.33585 l 2.35401,0.60999 -3.95953,2.66651 -3.95954,2.66651 -3.97921,-1.9516 c -2.45195,-1.20255 -3.84012,-2.31408 -3.6168,-2.89604 0.22599,-0.58892 -0.25355,-0.95429 -1.27392,-0.97058 -0.89999,-0.0144 -2.46609,-0.50046 -3.48022,-1.08019 -1.01413,-0.57973 -2.17579,-1.0519 -2.58143,-1.04928 -0.40566,0.002 0.34605,0.58277 1.67045,1.2892 l 2.40803,1.28441 -10.85943,6.98212 c -5.97269,3.84018 -11.61989,7.25871 -12.54935,7.59675 -2.54876,0.927 -1.91941,2.45856 1.08733,2.64614 0.51334,0.0321 5.72706,-3.09481 11.58604,-6.94852 z m -40.86666,4.76814 c 1.22979,-0.65816 1.42662,-1.58589 1.42662,-6.72399 0,-5.82131 -0.0388,-5.9501 -1.65949,-5.51576 -0.91273,0.2446 -1.90843,0.44926 -2.21266,0.45479 -0.89743,0.0163 -0.66485,12.54845 0.23287,12.54845 0.43232,0 1.42802,-0.34357 2.21266,-0.76349 z m 37.93514,-10.7901 c 4.63879,-2.77272 8.44495,-5.2375 8.45814,-5.47726 0.0514,-0.93499 -7.4593,-4.44509 -9.01882,-4.21491 -1.40917,0.208 -1.13029,0.55466 1.8993,2.36093 l 3.55099,2.11714 -2.81345,1.6415 c -1.54738,0.90283 -5.2197,3.03071 -8.16068,4.72862 -2.94099,1.69792 -5.34725,3.44309 -5.34725,3.87816 0,1.3684 2.73583,0.16363 11.43177,-5.03418 z m 12.90743,3.7574 c 0,-0.20283 -0.6638,-0.0135 -1.4751,0.42067 -0.81132,0.43421 -1.47511,0.95541 -1.47511,1.15824 0,0.20282 0.66379,0.0135 1.47511,-0.42069 0.8113,-0.43419 1.4751,-0.95539 1.4751,-1.15822 z m -24.15481,-5.00823 c 3.95511,-1.85901 7.19112,-3.75679 7.19112,-4.21731 0,-0.46054 0.48722,-0.65036 1.08271,-0.42185 0.59549,0.22852 1.26135,0.12641 1.4797,-0.22686 0.21835,-0.35331 -0.002,-0.77533 -0.48956,-0.93787 -1.21823,-0.40609 -7.97326,2.93019 -7.97326,3.93793 0,0.44811 -0.4547,0.64023 -1.01044,0.42698 -0.55575,-0.21326 -4.08652,1.20183 -7.84616,3.14466 -3.75965,1.94281 -6.37502,3.69521 -5.81191,3.8942 0.56309,0.199 2.18545,-0.21907 3.60523,-0.92903 1.41979,-0.70997 5.81744,-2.81185 9.77257,-4.67085 z m 35.64171,-2.20972 2.55801,-1.73822 -9.76037,-4.079 c -5.3682,-2.24345 -10.21011,-3.90642 -10.75979,-3.69548 -1.55256,0.59577 -0.40616,1.22268 8.47154,4.63267 7.69843,2.95704 10.38842,4.92802 5.35063,3.92046 -2.57667,-0.51533 -2.91519,0.64466 -0.52457,1.79761 0.91273,0.44018 1.76007,0.8228 1.88301,0.85025 0.12293,0.0274 1.37462,-0.73227 2.78154,-1.68829 z m -7.06159,-2.30333 c 0,-0.91626 -6.13661,-3.35841 -7.41747,-2.95188 -0.78823,0.25017 -1.43316,0.14088 -1.43316,-0.2429 0,-0.93598 -4.10246,-2.59188 -5.30976,-2.14321 -1.29011,0.47944 5.18359,3.44249 7.56584,3.46293 1.03801,0.009 2.53156,0.50348 3.31899,1.09907 1.38705,1.04912 3.27556,1.49651 3.27556,0.77599 z"
       id="path5304"
       inkscape:connector-curvature="0" />
  </g>
</svg>
