<?xml version="1.0" encoding="UTF-8" standalone="no"?>
<!-- Created with Inkscape (http://www.inkscape.org/) -->

<svg
   xmlns:dc="http://purl.org/dc/elements/1.1/"
   xmlns:cc="http://creativecommons.org/ns#"
   xmlns:rdf="http://www.w3.org/1999/02/22-rdf-syntax-ns#"
   xmlns:svg="http://www.w3.org/2000/svg"
   xmlns="http://www.w3.org/2000/svg"
   xmlns:sodipodi="http://sodipodi.sourceforge.net/DTD/sodipodi-0.dtd"
   xmlns:inkscape="http://www.inkscape.org/namespaces/inkscape"
   width="64px"
   height="64px"
   id="svg4574"
   version="1.1"
   inkscape:version="0.48.4 r9939"
   sodipodi:docname="logo_network.svg">
  <defs
     id="defs4576" />
  <sodipodi:namedview
     id="base"
     pagecolor="#ffffff"
     bordercolor="#666666"
     borderopacity="1.0"
     inkscape:pageopacity="0.0"
     inkscape:pageshadow="2"
     inkscape:zoom="5.5"
     inkscape:cx="116.96595"
     inkscape:cy="62.052723"
     inkscape:current-layer="layer1"
     showgrid="true"
     inkscape:document-units="px"
     inkscape:grid-bbox="true"
     inkscape:window-width="3200"
     inkscape:window-height="1751"
     inkscape:window-x="0"
     inkscape:window-y="25"
     inkscape:window-maximized="1" />
  <metadata
     id="metadata4579">
    <rdf:RDF>
      <cc:Work
         rdf:about="">
        <dc:format>image/svg+xml</dc:format>
        <dc:type
           rdf:resource="http://purl.org/dc/dcmitype/StillImage" />
        <dc:title></dc:title>
      </cc:Work>
    </rdf:RDF>
  </metadata>
  <g
     id="layer1"
     inkscape:label="Layer 1"
     inkscape:groupmode="layer">
    <path
       style="fill:#000000"
       d="m -84.902925,-21.609934 c -0.900846,-0.462015 -1.657945,-1.135687 -2.353959,-2.094575 -0.279284,-0.384781 -0.590758,-0.699604 -0.692153,-0.699604 -0.101388,0 -0.184343,-0.13018 -0.184343,-0.289291 0,-0.15911 -0.238178,-0.585685 -0.529297,-0.947945 -0.291109,-0.362261 -1.052523,-1.313337 -1.692053,-2.113508 l -1.162767,-1.454849 -0.09162,-4.698802 c -0.103343,-5.299608 -0.314575,-6.992506 -1.096016,-8.783686 -0.597433,-1.369423 -0.971312,-1.623531 -1.961364,-1.33306 -2.025166,0.594159 -3.282495,2.540747 -4.068734,6.299211 -0.318403,1.52209 -0.338161,1.996259 -0.247388,5.939569 0.05413,2.356983 0.14205,4.72471 0.195096,5.261616 0.08378,0.848084 0.03929,1.065303 -0.339236,1.655259 -0.37319,0.581629 -0.543099,0.679069 -1.184111,0.679069 -1.05919,0 -1.90854,-0.620403 -3.15962,-2.30792 -1.6995,-2.292377 -1.68167,-2.155996 -1.68167,-12.856398 0,-7.593485 0.0426,-9.200322 0.29822,-11.213052 0.69538,-5.478283 2.35444,-14.988539 2.8317,-16.232226 0.40673,-1.059931 1.0366,-1.791433 1.91264,-2.221285 1.423533,-0.69849 4.954129,-1.294311 8.14903,-1.375221 l 2.931464,-0.07423 2.004152,-1.338164 c 2.56399,-1.711969 3.645136,-2.142374 5.386719,-2.144455 1.406784,-0.0017 2.249186,0.391634 2.600092,1.213977 0.125573,0.294272 0.385961,0.290035 2.527207,-0.04112 3.482272,-0.538558 8.311465,-0.364366 10.689274,0.385571 2.997289,0.945318 5.881611,2.472837 7.61546,4.03311 1.310524,1.179335 1.40885,1.198832 6.391312,1.26762 l 4.640603,0.06406 1.276003,-0.899443 c 0.737112,-0.519591 1.495573,-0.899442 1.795926,-0.899442 0.640048,0 1.243829,0.524258 1.243829,1.080022 0,0.228279 0.09592,0.415053 0.213155,0.415053 0.59394,0 0.790012,0.537658 0.87707,2.405184 0.08544,1.832761 0.08112,1.859932 -0.434208,2.713204 -0.625359,1.035501 -0.848693,1.062433 -2.667911,0.321715 -1.278333,-0.520488 -1.461364,-0.538014 -5.018728,-0.480558 l -3.692008,0.05962 0.337842,0.96112 c 1.664145,4.734279 1.394638,11.45496 -0.690848,17.228439 l -0.835964,2.314307 0.05217,7.724381 c 0.0602,8.921699 0.140458,8.436695 -1.583713,9.575756 -0.939778,0.620859 -1.040639,0.640747 -3.249892,0.640747 -2.156888,0 -2.324574,-0.03083 -3.104564,-0.57069 -0.45349,-0.31388 -0.920504,-0.722355 -1.037818,-0.907722 -0.117304,-0.18537 -0.295916,-0.337571 -0.396899,-0.338228 -0.728788,-0.0048 -1.527731,-0.59017 -2.564778,-1.879402 -1.473035,-1.831261 -1.608917,-2.19172 -1.608917,-4.268216 l 0,-1.684803 -3.135039,0.0063 c -2.378679,0.0048 -3.422475,-0.08093 -4.326413,-0.354831 -0.655261,-0.19857 -1.223235,-0.361026 -1.262151,-0.361026 -0.03896,0 -0.07078,2.079282 -0.07078,4.620628 0,2.841643 -0.07144,4.933578 -0.185705,5.433472 -0.448487,1.963155 -2.222589,2.981364 -5.165091,2.964408 -1.27721,-0.0073 -1.933546,-0.112546 -2.493171,-0.39956 z m -5.434952,-9.964801 c -0.0033,-1.007073 0.03953,-1.867838 0.09499,-1.912817 0.05552,-0.04497 0.06708,-0.384081 0.02575,-0.753563 -0.05331,-0.475571 -0.115919,-0.58749 -0.214648,-0.383173 -0.249349,0.516042 -0.172198,4.88096 0.08631,4.880609 0.0082,-10e-6 0.01099,-0.823985 0.0082,-1.831056 z m -13.479983,0.607043 c -0.0413,-0.207808 -0.0779,-0.0895 -0.0811,0.262913 -0.003,0.35241 0.0304,0.522435 0.075,0.377833 0.0446,-0.144603 0.0473,-0.432938 0.005,-0.640746 z m -0.16345,-1.71272 c -0.041,-0.205572 -0.0745,-0.03738 -0.0745,0.373769 0,0.411144 0.0336,0.57934 0.0745,0.373768 0.0409,-0.205574 0.0409,-0.541965 0,-0.747537 z m -0.15541,-5.339549 c -0.0335,-0.557983 -0.061,-0.101452 -0.061,1.014514 0,1.115965 0.0275,1.572497 0.061,1.014515 0.0335,-0.557983 0.0335,-1.471046 0,-2.029029 z m 13.764438,0.747538 c -0.04174,-0.734189 -0.111924,-1.382945 -0.156171,-1.441678 -0.08877,-0.117841 -0.01649,2.359939 0.07619,2.616378 0.132699,0.366664 0.151578,0.0892 0.07988,-1.1747 z m -0.255589,-2.549635 c -0.05199,-0.170381 -0.09057,-0.119774 -0.0984,0.12904 -0.0082,0.225148 0.03142,0.351297 0.08553,0.280326 0.05405,-0.07097 0.05987,-0.255187 0.01288,-0.409366 z m -13.384269,-2.420262 c 0.0563,-1.407377 0.12899,-3.235427 0.16161,-4.06233 0.0326,-0.826905 0.17404,-2.316637 0.31426,-3.310519 0.14021,-0.993882 0.29537,-2.191505 0.34479,-2.661385 0.10199,-0.96995 0.25852,-2.222251 0.46719,-3.737685 0.4465,-3.242803 1.12258,-6.887292 1.58485,-8.543277 0.61239,-2.193743 1.26504,-2.950088 3.029539,-3.510841 0.515812,-0.163925 0.780669,-0.306052 0.588559,-0.315839 -0.617445,-0.03146 -2.470642,0.83088 -2.970118,1.38207 -0.57189,0.631068 -0.88274,1.775204 -1.79574,6.609457 -1.26773,6.71243 -1.78065,11.27438 -1.90911,16.979764 -0.0987,4.384697 0.0244,5.167182 0.18417,1.170585 z m 18.278147,-1.923563 c 0.215878,-0.1983 0.461248,-0.823792 0.626926,-1.598221 0.149725,-0.699824 0.379981,-1.389686 0.511688,-1.533023 0.13671,-0.148797 1.053678,-0.326128 2.137195,-0.413307 2.347349,-0.188873 3.17731,-0.55617 4.155495,-1.839007 1.139425,-1.494311 1.48802,-2.587579 1.48802,-4.66679 0,-1.551291 -0.04732,-1.815496 -0.466031,-2.608867 -0.843,-1.596781 -1.473371,-1.832866 -5.152782,-1.92981 -2.915126,-0.0768 -3.205219,-0.05102 -3.532578,0.313981 -0.292923,0.326584 -0.487888,1.237489 -1.090841,5.096462 -1.359969,8.704083 -1.345175,8.569856 -1.00028,9.069657 0.373329,0.540992 1.780975,0.606991 2.323188,0.108925 z m -2.067097,-0.411352 c -0.155845,-0.246259 -0.0082,-1.530875 0.718363,-6.247273 1.096434,-7.118036 1.133635,-7.285896 1.65217,-7.456576 0.218619,-0.07195 1.66034,-0.09356 3.203818,-0.048 2.489259,0.07349 2.889136,0.136183 3.539198,0.554927 1.118413,0.720436 1.547586,1.709354 1.54524,3.560557 -0.0024,1.785493 -0.44875,3.196483 -1.346364,4.254775 -0.313671,0.369826 -0.651636,0.771987 -0.751029,0.893696 -0.350448,0.429117 -1.66636,0.792412 -3.437895,0.949126 -0.985304,0.08716 -1.920013,0.230334 -2.077137,0.318159 -0.173509,0.09698 -0.420929,0.743568 -0.630049,1.646481 -0.269369,1.163036 -0.431117,1.530056 -0.742788,1.685459 -0.595276,0.296816 -1.451285,0.239866 -1.673527,-0.11134 z m 6.534231,-6.29161 c 1.107668,-0.99538 1.710999,-2.905813 1.263775,-4.001729 -0.32955,-0.807544 -1.328649,-1.387759 -2.389669,-1.387759 -1.208153,0 -1.425819,0.322182 -1.827436,2.704853 -0.39603,2.349504 -0.399762,2.543584 -0.05757,2.992321 0.41815,0.548385 2.268705,0.359277 3.010927,-0.307686 z m -2.776195,-0.09644 c -0.137727,-0.217638 -0.117666,-0.713608 0.07988,-1.975633 0.405159,-2.587981 0.556935,-2.851283 1.646454,-2.856472 0.914895,-0.0044 1.773102,0.558078 2.013642,1.319661 0.160813,0.509124 0.145083,0.756796 -0.09174,1.445538 -0.337513,0.981622 -0.963372,1.814253 -1.601256,2.130327 -0.646339,0.320262 -1.827353,0.283675 -2.047005,-0.06343 z m 18.660414,6.804951 c 0.196769,-0.180748 0.501862,-0.924065 0.700369,-1.706334 0.193439,-0.762342 0.437383,-1.455521 0.542107,-1.540396 0.104714,-0.08488 1.033405,-0.221317 2.06376,-0.303203 2.12126,-0.168582 3.016767,-0.518264 3.981099,-1.554565 1.904005,-2.046117 2.328035,-6.470911 0.794392,-8.289736 -0.757747,-0.898658 -1.496361,-1.091179 -4.571111,-1.191472 -3.095124,-0.100953 -3.847302,0.04473 -4.022509,0.779134 -0.203584,0.853429 -1.874184,11.967216 -1.910269,12.708355 -0.02944,0.605096 0.04223,0.903111 0.269753,1.121304 0.410407,0.393565 1.71405,0.379581 2.152409,-0.0231 z m -1.980089,-0.449778 c -0.143804,-0.188583 -0.22709,-0.500948 -0.185098,-0.69414 0.04199,-0.193197 0.488649,-3.042397 0.99257,-6.331559 0.763832,-4.985645 0.974807,-6.045713 1.268516,-6.373623 0.320488,-0.357828 0.617281,-0.385718 3.288005,-0.308978 3.522885,0.101218 4.089645,0.317868 4.82843,1.84563 1.257896,2.601255 -0.07012,6.760623 -2.515413,7.878471 -0.3741,0.171009 -1.542878,0.384606 -2.597312,0.474654 -2.249842,0.19214 -2.457077,0.348562 -2.727854,2.059102 -0.118093,0.74606 -0.304881,1.262031 -0.532577,1.471189 -0.461987,0.424372 -1.488791,0.412665 -1.819267,-0.02073 z m 6.223298,-6.090455 c 1.260437,-0.800204 2.048834,-3.133855 1.458158,-4.31612 -0.355901,-0.712363 -1.286289,-1.234261 -2.217144,-1.243717 -1.391709,-0.01413 -1.51323,0.193344 -2.057731,3.513633 -0.259084,1.579892 -0.258338,1.687054 0.01451,2.082423 0.406381,0.588893 1.846923,0.570275 2.802234,-0.03621 z m -2.54794,-0.267425 c -0.10209,-0.161317 -0.153293,-0.425624 -0.113778,-0.587351 0.03953,-0.161726 0.192274,-1.038518 0.339482,-1.948424 0.147215,-0.909907 0.377889,-1.798942 0.512622,-1.975633 0.550875,-0.722455 2.61461,-0.173977 3.012305,0.800586 0.407923,0.999598 -0.358788,2.982848 -1.390751,3.597489 -0.791675,0.471519 -2.093645,0.534044 -2.35988,0.113333 z m -10.951474,2.909681 c 0.254391,-0.280489 0.479586,-1.191627 0.902313,-3.650896 0.327237,-1.90373 0.681064,-3.44776 0.844288,-3.684287 0.202716,-0.293769 0.500714,-0.407163 1.070026,-0.407163 0.932019,0 1.440491,0.519437 1.440491,1.471563 0,0.339479 -0.146576,1.551457 -0.325712,2.693284 -0.547207,3.48774 -0.413835,3.951268 1.136859,3.951268 1.30297,0 1.522687,-0.367795 2.048316,-3.428838 0.230871,-1.344566 0.459683,-3.165506 0.508456,-4.046533 0.07989,-1.44313 0.052,-1.662628 -0.282646,-2.215096 -0.525457,-0.867706 -1.187919,-1.163388 -2.939648,-1.312082 -2.434604,-0.206659 -2.289496,-0.09161 -2.162711,-1.714582 0.144871,-1.854313 -0.09338,-2.233607 -1.402953,-2.233607 -0.678423,0 -0.993875,0.100135 -1.177513,0.373771 -0.245739,0.366171 -2.242535,12.269112 -2.242535,13.367767 0,0.855584 0.402945,1.2092 1.377891,1.2092 0.587099,0 0.975249,-0.120396 1.205078,-0.373769 z m -2.053673,-0.194848 c -0.302608,-0.160138 -0.259018,-0.694109 0.372058,-4.557495 0.316592,-1.938176 0.754713,-4.655653 0.973593,-6.038838 0.521693,-3.296971 0.5498,-3.358624 1.53088,-3.358624 1.064841,0 1.210278,0.271975 1.069196,1.999561 -0.139941,1.713667 -0.10226,1.747358 2.125131,1.900589 2.430372,0.167194 3.334261,0.837443 3.334261,2.472404 0,0.398406 -0.192972,2.062263 -0.428812,3.697459 -0.520168,3.60665 -0.712311,4.026397 -1.843108,4.026397 -1.182713,0 -1.259782,-0.233932 -0.900009,-2.73165 0.446666,-3.100882 0.480005,-4.024456 0.167883,-4.649201 -0.147101,-0.29441 -0.332453,-0.482607 -0.411901,-0.418213 -0.07947,0.06439 -0.190487,0.0194 -0.246748,-0.09999 -0.132708,-0.281594 -1.641329,-0.281458 -2.042608,1.84e-4 -0.352384,0.247328 -0.668041,1.499152 -1.156994,4.588345 -0.342434,2.163583 -0.533002,2.863177 -0.857181,3.147063 -0.199401,0.174605 -1.368442,0.189865 -1.685641,0.022 z M -96.56134,-68.543442 c -0.111957,-0.05925 -0.295186,-0.05925 -0.407152,0 -0.111966,0.05925 -0.02034,0.107728 0.203577,0.107728 0.22394,0 0.315542,-0.04848 0.203575,-0.107728 z m 1.140009,-0.213582 c -0.111967,-0.05925 -0.295179,-0.05925 -0.407137,0 -0.111966,0.05925 -0.02033,0.107728 0.203577,0.107728 0.223924,0 0.315517,-0.04848 0.20356,-0.107728 z m 3.257184,-0.226635 c -0.291111,-0.04738 -0.767475,-0.04738 -1.058584,0 -0.291111,0.04739 -0.05281,0.08614 0.529304,0.08614 0.58222,0 0.820398,-0.03877 0.52928,-0.08614 z m 5.70007,-1.34216 c 1.15505,-0.767895 1.519145,-1.302107 0.510942,-0.749649 -0.620513,0.340017 -2.505965,1.792941 -2.505965,1.931094 0,0.101919 0.591627,-0.248437 1.995023,-1.181445 z m 1.74602,-1.057975 c 0.131773,-0.109284 0.199705,-0.250986 0.150981,-0.314895 -0.04871,-0.06392 -0.229829,0.02393 -0.402437,0.195176 -0.343369,0.340681 -0.134724,0.440016 0.251456,0.119719 z m 1.959028,-0.935853 c 0.13479,-0.05886 0.05749,-0.114235 -0.172444,-0.123538 -0.229205,-0.0092 -0.558993,0.125986 -0.732863,0.300577 -0.293546,0.294757 -0.281227,0.303584 0.172444,0.123538 0.268719,-0.106644 0.598508,-0.241905 0.732863,-0.300577 z"
       id="path4663"
       inkscape:connector-curvature="0" />
    <path
       style="fill:#000000"
       d="m -86.739163,57.077941 c -1.179342,-0.386657 -2.132803,-1.303325 -2.491195,-2.395084 -0.207173,-0.631068 -0.216627,-0.862211 -0.216627,-5.293344 l 0,-4.633464 -1.776989,-0.0012 c -1.909888,-0.0012 -2.416625,-0.08967 -3.224312,-0.562999 -0.507331,-0.297357 -1.286718,-1.131334 -1.523438,-1.630191 -0.490507,-1.033651 -0.480208,-0.726766 -0.480208,-14.30959 l 0,-12.752084 17.360136,0 17.360149,0 -0.02803,13.057018 -0.02804,13.057016 -0.330523,0.6978 c -0.4136,0.873164 -1.255211,1.735795 -2.062665,2.114167 -0.570731,0.267449 -0.672578,0.27978 -2.577234,0.312083 l -1.983014,0.03364 0,4.609055 c 0,3.930592 -0.02444,4.690986 -0.165302,5.165678 -0.304435,1.02516 -1.054535,1.867235 -2.096308,2.353378 -0.493868,0.230463 -0.710837,0.266768 -1.601417,0.267947 -0.932091,0.0012 -1.088963,-0.02739 -1.648219,-0.301077 -0.846248,-0.414097 -1.692542,-1.28429 -2.010072,-2.066873 l -0.250794,-0.618086 -0.03505,-4.71289 -0.03495,-4.712881 -2.510744,0 -2.510734,0 -0.03631,4.712881 -0.03631,4.71289 -0.267653,0.612578 c -0.378639,0.866633 -1.054192,1.59122 -1.869265,2.00492 -0.582452,0.295641 -0.803679,0.34904 -1.583893,0.382289 -0.592255,0.02528 -1.057474,-0.01081 -1.340971,-0.103668 z M -102.87123,38.614474 c -0.80011,-0.245858 -1.49767,-0.739269 -1.98931,-1.407103 -0.85099,-1.155981 -0.81114,-0.638759 -0.81114,-10.530267 0,-9.677108 -0.0344,-9.150026 0.66527,-10.207081 0.78011,-1.178675 1.96911,-1.747282 3.49209,-1.669994 0.68818,0.03493 1.01896,0.107194 1.4569,0.318291 0.737701,0.355594 1.467156,1.077874 1.825451,1.807479 l 0.286336,0.583061 0.02741,9.082736 c 0.02715,9.008166 0.0257,9.087482 -0.188919,9.660888 -0.710476,1.898895 -2.838158,2.953788 -4.764078,2.36199 z m 45.410069,0.02155 c -0.780231,-0.193375 -1.558826,-0.729916 -2.073238,-1.428692 -0.851318,-1.156426 -0.811147,-0.632391 -0.811147,-10.581778 0,-8.081782 0.01455,-8.844023 0.176761,-9.248514 0.706216,-1.761129 2.113032,-2.671831 3.980926,-2.577032 1.683501,0.08544 2.845859,0.957566 3.472983,2.605799 0.185658,0.487952 0.197656,0.948929 0.228012,8.756183 0.03388,8.713552 0.0028,9.461598 -0.426368,10.399902 -0.767218,1.675817 -2.664245,2.540981 -4.547929,2.074132 z m -39.093778,-25.186 c 0,-0.893292 0.354519,-2.814207 0.721611,-3.9098954 1.026713,-3.064527 2.737111,-5.473643 5.354787,-7.5422951 0.841782,-0.6652167 0.991852,-0.7658369 2.149295,-1.44100976 0.578921,-0.3376987 0.617849,-0.3826058 0.491216,-0.5665771 -0.07567,-0.1098956 -0.405644,-0.7097233 -0.733346,-1.33296124 -0.327712,-0.6232318 -0.629253,-1.179507 -0.670108,-1.2361678 -0.04089,-0.056673 -0.260175,-0.4506862 -0.48738,-0.8756177 -0.227196,-0.4249312 -0.500096,-0.9227236 -0.606427,-1.106203 -0.177129,-0.3056381 -0.180113,-0.3574333 -0.03559,-0.6180803 0.195975,-0.3534489 0.698562,-0.4392421 0.941553,-0.1607186 0.08897,0.1019021 0.395185,0.6256545 0.680624,1.1639074 0.285455,0.5382471 0.801376,1.4850734 1.146532,2.1040653 0.345145,0.6189858 0.629074,1.15208164 0.630961,1.18465804 0.0019,0.032559 0.09113,0.1644121 0.198373,0.2929679 l 0.19495,0.2337439 0.960534,-0.356681 c 2.123719,-0.78860384 3.929602,-1.09437614 6.471781,-1.09578544 2.77586,-0.00183 4.764292,0.3735856 7.456631,1.40673924 0.09143,0.035109 0.339763,-0.3057726 0.73457,-1.00848004 0.328018,-0.583822 0.653474,-1.1559691 0.723266,-1.271435 0.06983,-0.1154655 0.392901,-0.7180996 0.718034,-1.3391811 0.699072,-1.3353424 0.821328,-1.4903023 1.174167,-1.4882191 0.342143,0.00181 0.479111,0.095342 0.570731,0.3888505 0.07476,0.2393924 0.02553,0.3601428 -0.639238,1.566838 -0.171657,0.3116159 -0.703898,1.2831461 -1.182766,2.1589579 l -0.870667,1.59237504 0.921459,0.5445093 c 1.286529,0.76023076 2.435434,1.68395006 3.579595,2.87798756 2.546877,2.6579022 4.039733,5.9656872 4.291183,9.5081996 l 0.06623,0.933354 -17.476291,0 -17.476283,0 0,-0.607846 z m 10.132821,-5.7736734 c 0.358429,-0.136277 0.786658,-0.802636 0.786658,-1.224105 0,-1.033815 -1.074584,-1.763396 -1.936642,-1.314866 -0.833594,0.43372 -1.11364,1.467329 -0.564261,2.082573 0.471149,0.527636 1.092064,0.692947 1.714245,0.456398 z m 16.059859,-0.168993 c 0.389354,-0.28984 0.590945,-0.688834 0.590945,-1.169661 0,-0.35329 -0.06901,-0.499868 -0.404676,-0.859727 -0.383788,-0.411439 -0.434869,-0.433819 -0.990404,-0.433819 -0.562196,0 -0.601844,0.01816 -0.98602,0.451059 -0.325223,0.366478 -0.400281,0.529475 -0.400281,0.869244 0,0.465878 0.2911,0.973443 0.714844,1.246385 0.339853,0.218904 1.115601,0.164502 1.475592,-0.103483 z"
       id="path4727"
       inkscape:connector-curvature="0" />
    <path
       style="fill:#000000"
       d="m -172.94571,142.14486 c -5.82578,-0.15074 -9.53597,-0.58023 -11.49012,-1.33007 -0.65705,-0.25213 -0.7319,-0.59156 -0.0995,-0.45116 2.40712,0.53438 14.51515,0.84006 19.84657,0.50105 8.3589,-0.53153 15.34558,-2.01219 18.52537,-3.926 0.69303,-0.41712 0.77405,-0.43044 0.77405,-0.12732 0,0.60753 -1.14493,1.68139 -2.53544,2.37804 -4.43976,2.22436 -13.21544,3.26093 -25.02094,2.95546 z m -4.57616,-3.0258 c -3.88808,-0.15288 -8.04113,-0.47721 -9.69881,-0.75743 -0.62888,-0.10631 -1.85193,-0.27033 -2.71788,-0.36449 -6.1283,-0.66639 -6.09921,-2.86739 0.0643,-4.86609 1.81963,-0.59007 3.77598,-0.88347 4.86553,-0.7297 1.13968,0.16084 0.86116,0.36503 -0.97444,0.71437 -2.17647,0.41421 -4.17287,1.34482 -4.17287,1.94517 0,0.29378 1.559,0.92893 2.98446,1.2159 7.37296,1.48431 22.2653,1.43607 32.23201,-0.10441 3.82524,-0.59123 5.76993,-1.42111 5.76993,-2.46226 0,-0.48995 0.36637,-0.60127 0.75605,-0.22974 0.38259,0.36477 0.27625,1.19044 -0.20891,1.62206 -3.0299,2.69555 -16.14365,4.51818 -28.89938,4.01662 z m 2.48705,-6.17161 c -2.98806,-0.49898 -5.51887,-1.35228 -6.344,-2.13898 -0.90811,-0.86582 -0.36323,-1.9195 1.34447,-2.59988 0.90148,-0.35917 0.98007,-0.34205 0.87336,0.19016 -0.15813,0.78871 0.53687,1.01906 4.13316,1.36986 2.79585,0.27272 3.6695,0.28649 5.9619,0.094 1.4773,-0.12405 3.40226,-0.34964 4.2777,-0.50131 l 1.59171,-0.27577 1.8415,0.80003 c 1.01282,0.44002 1.81272,0.88236 1.77755,0.98297 -0.10172,0.29093 -2.8342,1.16554 -5.11128,1.63602 -1.70079,0.3514 -2.81028,0.4404 -5.96889,0.4788 -2.13388,0.0259 -4.10361,0.01 -4.37718,-0.0359 z m -1.69119,-7.02965 c -1.51272,-0.17661 -4.17022,-0.67985 -4.91741,-0.9312 -2.68131,-0.90195 -2.84841,-2.30817 -0.41278,-3.47355 1.15931,-0.55469 1.50707,-0.53722 1.22103,0.0613 -0.5555,1.16239 0.45918,1.58028 4.47843,1.84439 3.90745,0.25678 8.39834,0.0717 12.30173,-0.50692 l 3.12078,-0.46263 1.0277,0.65937 c 0.56523,0.36266 1.10823,0.65938 1.20667,0.65938 0.38171,0 0.15483,0.53043 -0.2687,0.62822 -5.26302,1.21518 -8.98464,1.65722 -13.63657,1.6197 -1.9382,-0.0156 -3.79259,-0.0598 -4.12088,-0.0981 z m 21.18956,-0.61414 c 0,-0.0944 0.47453,-0.42693 1.05451,-0.739 1.6005,-0.86119 4.1381,-2.74677 4.87482,-3.62225 1.34795,-1.60187 1.78139,-3.40879 1.15858,-4.82994 -0.63197,-1.44204 -2.72674,-2.37152 -4.59483,-2.03878 -1.82978,0.32592 -1.05802,-0.5083 0.86152,-0.93123 3.45573,-0.76141 6.98459,1.49092 6.99037,4.46168 0.003,1.59987 -1.2039,3.44029 -3.15556,4.81154 -1.61012,1.13128 -2.77305,1.698 -5.06641,2.46897 -1.89419,0.63679 -2.123,0.68195 -2.123,0.41901 z m -24.37297,-6.09539 c -6.56339,-0.26555 -10.13938,-1.29461 -9.01951,-2.59554 0.84406,-0.98052 6.25901,-2.66555 9.11899,-2.83766 1.03958,-0.0626 1.84539,-0.0691 1.79067,-0.0145 -0.0547,0.0546 -1.09115,0.41483 -2.30317,0.80049 -3.50974,1.11677 -4.5833,1.87288 -3.32674,2.34302 1.24056,0.46416 3.17187,0.60374 8.30271,0.60003 5.59522,-0.004 9.67815,-0.2589 15.18304,-0.94775 1.77764,-0.22244 3.38923,-0.37379 3.58134,-0.33633 0.59183,0.11541 -2.10576,1.42276 -3.62999,1.75923 -4.67652,1.0323 -12.49747,1.52027 -19.69734,1.22897 z m 12.83312,-3.87887 c 0,-0.0506 0.27199,-0.51346 0.60442,-1.02857 0.69954,-1.08393 0.94647,-2.49529 0.60778,-3.47376 -0.12622,-0.36462 -0.75583,-1.3278 -1.39913,-2.1404 -1.37477,-1.73656 -2.11294,-3.10029 -2.42208,-4.47465 -0.97448,-4.332164 3.19371,-8.59135 11.20956,-11.454285 2.07207,-0.74006 3.26825,-1.022835 3.07669,-0.727331 -0.0679,0.104744 -0.95477,0.68792 -1.97083,1.29595 -3.1418,1.880124 -4.99366,3.228871 -6.47573,4.716432 -1.1454,1.149635 -1.48726,1.635617 -1.74482,2.480314 -0.29259,0.95957 -0.29318,1.13957 -0.007,2.07863 0.18458,0.60537 0.92157,1.8919 1.79243,3.12896 1.07281,1.52393 1.51582,2.33522 1.61318,2.95425 0.2584,1.64279 -0.25925,2.97514 -1.78417,4.59221 -1.0535,1.11716 -3.10046,2.47208 -3.10046,2.05225 z m -5.89819,-4.55554 c -4.24905,-4.04224 -5.69314,-6.2744 -5.70663,-8.82083 -0.0133,-2.510878 1.67653,-4.574514 7.12815,-8.704944 3.97216,-3.009517 5.02738,-3.922139 6.16568,-5.3325 1.88519,-2.335744 2.6109,-4.541291 2.4,-7.294021 -0.12852,-1.67749 -0.12539,-1.693946 0.25961,-1.361763 0.66956,0.577728 1.25818,2.178187 1.36493,3.711301 0.27408,3.936219 -2.19396,7.77025 -7.93678,12.329508 -2.62517,2.084129 -4.1696,3.699829 -5.02438,5.256209 -0.55129,1.0038 -0.61013,1.27733 -0.60636,2.81893 0.005,2.13656 0.34112,2.88125 3.00341,6.65898 2.73521,3.88121 2.45959,4.07566 -1.04763,0.73913 z"
       id="path4791"
       inkscape:connector-curvature="0"
       sodipodi:nodetypes="ssssssssssssssssssssscsssssscsssscsssssscssssssssssssssscsscssssssccsssssssssssssssssssssssssss" />
    <path
       style="fill:#000000"
       d="m 28.754003,63.182552 c -5.581166,-0.784476 -9.81286,-2.909283 -11.288292,-5.668046 -0.573472,-1.072262 -0.587986,-1.318877 -0.587986,-9.99009 0,-8.703169 0.01268,-8.916433 0.601524,-10.11146 0.780195,-1.583386 2.278162,-3.086855 3.777479,-3.791335 1.127659,-0.529857 1.727135,-0.568555 10.748432,-0.69385 l 9.554167,-0.132697 1.577918,-0.774741 c 2.085595,-1.024022 3.716342,-2.701188 4.727622,-4.862254 0.794374,-1.697555 0.829204,-1.922432 0.943276,-6.090974 l 0.118452,-4.328343 2.951207,0.0065 c 4.774236,0.01052 6.622579,0.717027 8.14148,3.112088 2.592422,4.087822 3.755602,12.735112 2.406991,17.894081 -1.233336,4.718008 -3.043727,7.765003 -5.193904,8.741646 -0.994791,0.451843 -1.996879,0.489347 -13.218144,0.494734 l -12.141754,0.0057 0,1.061574 0,1.061575 7.563709,0 7.563725,0 -0.0016,2.454888 c -0.0024,4.895052 -0.688129,6.771618 -3.1208,8.548618 -3.154825,2.304524 -10.267806,3.744778 -15.123558,3.062272 z m 12.756428,-5.073455 c 0.976497,-0.499381 1.496765,-1.364952 1.496765,-2.490181 0,-2.470882 -2.710614,-3.666479 -4.562052,-2.012214 -0.744113,0.66487 -0.866718,0.949502 -0.866718,2.012214 0,1.062719 0.122605,1.347359 0.866718,2.01223 0.926892,0.828172 2.040834,1.001869 3.065287,0.477951 z M 8.0359447,46.975404 C 5.7189871,46.519344 3.3893197,44.351013 2.3946348,41.724792 1.0071549,38.061516 0.32169179,32.524444 0.81276869,28.946862 1.7254166,22.298076 3.3719859,19.346511 7.1590129,17.570812 l 1.4915155,-0.699352 11.6268086,-0.0794 11.626819,-0.07931 -0.0822,-0.84953 -0.0822,-0.849521 -7.497364,-0.07045 -7.497365,-0.07046 0.0016,-3.777722 c 0.0016,-4.0620118 0.196987,-5.1947743 1.137663,-6.5955816 1.700944,-2.5329683 7.989937,-3.94473821 15.978744,-3.58696051 6.254983,0.28012891 8.861367,1.13259181 11.11011,3.63373671 1.982755,2.2052913 2.07543,2.791944 1.977627,12.5183524 -0.08127,8.083181 -0.09963,8.332031 -0.704122,9.548001 -0.341378,0.686682 -1.154712,1.74078 -1.807432,2.342434 -2.161612,1.992499 -2.005429,1.966485 -12.699331,2.115014 l -9.554169,0.132705 -1.592357,0.742966 c -2.079988,0.970485 -3.887966,2.772393 -4.8172,4.800997 -0.701245,1.530921 -0.748395,1.870406 -0.842549,6.067001 l -0.09974,4.445348 -2.826213,-0.02909 C 10.453264,47.213975 8.66605,47.099456 8.0360911,46.975453 z M 25.303974,10.100395 c 1.625156,-1.7836876 0.462342,-4.5081653 -1.924098,-4.5081653 -1.578339,0 -2.657247,1.1010934 -2.645503,2.6998707 0.0095,1.2949597 0.357825,1.8797916 1.476359,2.4789266 1.044224,0.559332 2.20113,0.308508 3.093242,-0.670632 z"
       id="path4871"
       inkscape:connector-curvature="0" />
    <path
       style="fill:#000000"
       d="m -190.84115,63.265601 c -3.66538,-1.216647 -5.71939,-3.153463 -6.8944,-6.501066 -0.92114,-2.624301 -1.01053,-4.35015 -0.61226,-11.821321 0.20423,-3.831299 0.42153,-7.104556 0.4829,-7.273901 0.0613,-0.169337 0.42523,-0.307882 0.80857,-0.307882 l 0.69699,0 0.0152,-2.032073 c 0.0365,-4.872461 2.90804,-10.976235 8.04022,-17.090901 7.97676,-9.5037696 20.26749,-16.346402 26.26947,-14.6250448 l 0.84715,0.2429494 -0.84877,-0.7284163 c -0.7131,-0.6119986 -0.78971,-0.7696233 -0.4793,-0.9862731 0.245,-0.1709947 3.27379,-0.2343815 8.99037,-0.1881478 8.6136,0.069701 8.6223,0.070219 10.2733,0.7090436 3.17086,1.2268473 5.26828,3.4002549 6.33384,6.5632955 0.73857,2.1923995 0.67199,5.9193145 -0.34202,19.1452035 -0.46737,6.0962 -1.20873,15.850131 -1.64746,21.675406 -0.43872,5.825266 -0.81423,10.620436 -0.83447,10.655951 -0.1435,0.251897 -39.62028,2.834317 -44.69528,2.923805 -4.38679,0.07738 -5.22716,0.03006 -6.4041,-0.360628 z m 0.49491,-20.721029 c 1.8276,-0.400583 4.87468,-0.958255 6.77128,-1.239268 4.59807,-0.681301 4.80306,-0.728684 4.80306,-1.109937 0,-0.180927 0.4806,-0.754034 1.068,-1.273555 0.90415,-0.799706 8.16929,-7.540085 13.01505,-12.075015 1.34269,-1.256549 1.45234,-1.308328 2.77101,-1.308328 1.47388,0 1.5311,-0.06676 1.1619,-1.356333 -0.17241,-0.602144 0.15495,-1.888707 1.78575,-7.018239 l 1.99686,-6.280953 1.95077,-0.474498 1.95078,-0.4745057 L -153.91416,9.216 c -0.46329,-0.3948478 -1.67366,-1.3330561 -2.6897,-2.0848873 -1.01603,-0.7518225 -1.98893,-1.4782782 -2.16199,-1.6143364 -0.17307,-0.1360582 -0.0123,0.3353132 0.35715,1.047492 0.57405,1.1064565 0.67046,1.5865685 0.66255,3.2994 -0.0112,2.4272147 -0.53589,4.4374267 -1.95347,7.4843857 -5.52307,11.871242 -20.85909,24.400897 -30.03313,24.537284 -2.43449,0.03619 -3.58317,-0.348278 -4.86237,-1.627473 -0.54313,-0.543144 -0.92618,-0.835118 -0.85121,-0.648845 0.075,0.186274 0.38774,1.086852 0.69505,2.001282 0.30731,0.914431 0.67649,1.662599 0.82043,1.662599 0.14393,0 1.757,-0.327747 3.58461,-0.728329 z"
       id="path4954"
       inkscape:connector-curvature="0" />
    <path
       style="fill:#000000"
       d="m -105.35878,82.335593 -0.72156,0.215751 c -1.25701,0.375896 -2.12401,0.916989 -3.00371,1.877012 -0.52576,0.573788 -1.13335,1.717156 -1.35681,2.548239 -0.12635,0.469883 -0.13424,1.955927 -0.13424,25.774825 l 0,25.27619 0.17259,0.59931 c 0.5146,1.77541 1.75586,3.2105 3.43041,3.96978 0.79373,0.3599 1.53503,0.52981 2.53384,0.58253 0.5063,0.0268 0.98957,0.0769 1.07396,0.11027 0.14529,0.0573 0.14427,0.0601 -0.0192,0.0647 -0.24194,0.007 -0.21554,0.14755 0.0383,0.20377 0.11603,0.0257 0.31451,0.0754 0.4411,0.11267 0.64722,0.19034 4.157059,0.60743 6.098502,0.72396 0.400806,0.0241 1.539964,0.0928 2.53145,0.15342 2.322336,0.14204 5.501743,0.26374 8.783383,0.33801 4.787825,0.10834 12.808741,0.0572 15.955834,-0.10308 0.379723,-0.0193 1.294494,-0.056 2.032839,-0.0815 1.568256,-0.0541 7.46412,-0.40919 7.608748,-0.45787 0.05427,-0.0183 0.65301,-0.087 1.328063,-0.15342 2.246708,-0.22116 3.685782,-0.55076 3.380064,-0.7743 -0.09234,-0.0675 0.147431,-0.0979 1.049973,-0.13184 1.269895,-0.0477 1.833055,-0.16616 2.76638,-0.58492 0.735846,-0.33015 1.238558,-0.68503 1.831478,-1.2873 1.038799,-1.05518 1.534912,-2.0416 1.747564,-3.47597 0.06138,-0.41555 0.07906,-7.49911 0.06231,-25.50633 l -0.02155,-24.930985 -0.179799,-0.572945 c -0.668431,-2.157655 -2.280722,-3.715517 -4.465997,-4.312584 l -0.647246,-0.177394 -26.158379,0 -26.158368,0 z m 0.92052,1.610924 25.237849,0 25.237854,0 0.596894,0.174997 c 0.645036,0.18696 1.40135,0.537727 1.79312,0.83184 0.134306,0.100821 0.275232,0.182181 0.311637,0.182181 0.03639,0 0.331261,0.280714 0.656828,0.623273 0.728115,0.766082 1.228672,1.646548 1.488676,2.624946 0.181713,0.683807 0.186109,0.803377 0.230136,4.326975 0.02483,1.993519 0.0745,3.624575 0.107872,3.624575 0.03335,0 0.0709,-0.146706 0.0839,-0.326013 7.8e-4,-0.01406 0.0039,-0.01944 0.0055,-0.02155 0.01664,0.05286 0.05107,0.810264 0.08149,1.843464 0.03678,1.247562 0.09533,2.166432 0.139038,2.193445 0.04131,0.0256 0.07434,0.33569 0.07434,0.69039 -3.59e-4,0.35471 0.03358,1.38703 0.07434,2.29414 0.04373,0.97441 0.06465,8.20959 0.05279,17.68183 -0.0189,15.00562 -0.02881,16.05466 -0.15342,16.37775 -0.07325,0.18986 -0.133017,0.50054 -0.134242,0.69039 -7.81e-4,0.22817 -0.02507,0.30995 -0.0695,0.23972 -0.04099,-0.0647 -0.05209,0.0402 -0.0264,0.26849 0.03678,0.32691 0.02843,0.36359 -0.07192,0.28048 -0.09856,-0.0817 -0.130181,-0.0349 -0.210956,0.32601 -0.05185,0.23171 -0.121983,0.41951 -0.158215,0.41951 -0.03624,0 -0.08265,0.0776 -0.103079,0.1726 -0.02038,0.0949 -0.01843,-0.0345 0.0055,-0.28766 0.0232,-0.25314 0.07083,-0.47949 0.107864,-0.50342 0.138943,-0.0898 0.161691,-1.89557 0.09589,-7.93476 -0.03717,-3.41746 -0.0773,-5.51455 -0.08873,-4.66018 -0.0175,1.31063 -0.03858,1.55339 -0.13425,1.55339 -0.09113,0 -0.112675,0.12633 -0.112675,0.64245 0,0.40027 -0.04521,0.74748 -0.117453,0.92054 -0.06786,0.16245 -0.08381,0.27807 -0.03834,0.27807 0.046,0 0.07908,0.25028 0.07908,0.61368 0,0.33754 -0.03186,0.6137 -0.0695,0.6137 -0.03764,0 -0.09365,0.86456 -0.124653,1.92016 -0.03092,1.05561 -0.08543,1.93818 -0.122255,1.96092 -0.03678,0.0227 -0.06708,-0.0134 -0.06708,-0.0791 0,-0.0658 -0.05178,-0.11987 -0.115064,-0.11987 -0.09269,0 -0.115071,0.11933 -0.115071,0.61369 0,0.35798 -0.03194,0.61368 -0.07677,0.61368 -0.112799,0 -0.09478,0.59451 0.01921,0.63286 0.129464,0.0436 -0.04373,0.25553 -0.316432,0.38595 -0.191449,0.0916 -0.20424,0.12897 -0.22534,0.76711 -0.01226,0.36873 -0.05536,0.66882 -0.09589,0.66882 -0.04053,0 -0.07192,0.13809 -0.07192,0.30684 0,0.27357 -0.02132,0.30685 -0.186983,0.30685 -0.10528,0 -0.288218,0.10364 -0.421906,0.23732 -0.263377,0.26338 -0.295831,0.37637 -0.11027,0.37637 0.101929,0 0.106975,0.0208 0.02874,0.11506 -0.05247,0.0633 -0.141513,0.11508 -0.196574,0.11508 -0.05498,0 -0.168734,0.0863 -0.25171,0.19177 -0.08301,0.10548 -0.188257,0.19178 -0.234923,0.19178 -0.0467,0 -0.0839,0.0397 -0.0839,0.0863 0,0.0466 -0.08632,0.15195 -0.191779,0.23492 -0.105475,0.083 -0.19177,0.19665 -0.19177,0.2517 0,0.055 -0.05178,0.14166 -0.115072,0.19418 -0.09424,0.0782 -0.115064,0.0732 -0.115064,-0.0287 0,-0.0684 -0.03304,-0.12465 -0.07192,-0.12465 -0.09213,0 -0.541764,0.45204 -0.541764,0.54416 0,0.039 -0.138084,0.0695 -0.306842,0.0695 -0.221608,0 -0.306849,0.032 -0.306849,0.11506 0,0.0831 -0.08524,0.11507 -0.306842,0.11507 -0.168758,0 -0.306842,0.0318 -0.306842,0.0695 0,0.0377 -0.27616,0.0924 -0.613684,0.12226 -0.33753,0.0299 -0.613683,0.0869 -0.613683,0.12465 0,0.0377 -0.138085,0.0671 -0.306851,0.0671 -0.168757,0 -0.306841,-0.0345 -0.306841,-0.0768 0,-0.0447 -0.255702,-0.0768 -0.613684,-0.0768 -0.357982,0 -0.613684,0.032 -0.613684,0.0768 0,0.0422 -0.138085,0.0768 -0.306842,0.0768 -0.221608,0 -0.306849,0.032 -0.306849,0.11507 0,0.0959 -0.153422,0.11507 -0.920526,0.11507 -0.562552,0 -0.920526,0.0299 -0.920526,0.0768 0,0.0447 -0.25571,0.0768 -0.613692,0.0768 -0.494357,0 -0.613684,0.0223 -0.613684,0.11506 0,0.0959 -0.15342,0.11507 -0.920526,0.11507 -0.506296,0 -0.920533,0.0321 -0.920533,0.0695 0,0.0374 -0.552314,0.0916 -1.227368,0.12225 -0.675061,0.0308 -1.227383,0.0828 -1.227383,0.11507 0,0.0323 -0.543686,0.0842 -1.208189,0.11507 -0.70023,0.0326 -1.231546,0.0898 -1.260938,0.13664 -0.03069,0.049 -0.651853,0.10259 -1.57256,0.13664 l -1.51984,0.0575 1.879416,-0.0144 c 1.033677,-0.007 1.706817,0.0121 1.495861,0.0408 -0.48387,0.0658 -21.586947,0.0589 -22.054348,-0.007 -0.326115,-0.0461 -0.310207,-0.051 0.287663,-0.11027 0.348081,-0.0345 0.632863,-0.0885 0.632863,-0.11985 0,-0.0618 -1.49736,-0.15822 -2.46673,-0.15822 -0.330901,0 -0.601697,-0.0298 -0.601697,-0.0671 0,-0.0374 -0.552314,-0.0939 -1.227375,-0.12466 -0.675054,-0.0308 -1.227368,-0.0849 -1.227368,-0.12226 0,-0.0374 -0.276153,-0.0695 -0.613692,-0.0695 -0.494348,0 -0.613684,-0.0223 -0.613684,-0.11507 0,-0.0959 -0.153421,-0.11508 -0.920526,-0.11508 -0.562543,0 -0.920533,-0.0299 -0.920533,-0.0768 0,-0.0469 -0.35799,-0.0768 -0.920526,-0.0768 -0.767104,0 -0.920526,-0.0192 -0.920526,-0.11507 0,-0.0831 -0.08525,-0.11506 -0.306849,-0.11506 -0.168757,0 -0.306839,-0.0345 -0.306839,-0.0768 0,-0.0447 -0.2557,-0.0768 -0.61369,-0.0768 -0.35798,0 -0.61368,0.032 -0.61368,0.0768 0,0.0447 -0.25571,0.0768 -0.61369,0.0768 -0.49436,0 -0.61369,-0.0223 -0.61369,-0.11506 0,-0.0831 -0.0852,-0.11508 -0.30684,-0.11508 -0.16876,0 -0.30684,-0.0345 -0.30684,-0.0768 0,-0.0422 -0.13809,-0.0768 -0.30684,-0.0768 -0.22161,0 -0.30684,-0.032 -0.30684,-0.11506 0,-0.07 -0.0712,-0.11506 -0.18219,-0.11506 -0.10032,0 -0.22556,-0.0518 -0.27809,-0.11507 -0.0525,-0.0633 -0.14151,-0.11507 -0.19656,-0.11507 -0.0551,0 -0.16874,-0.0863 -0.25171,-0.19178 -0.17229,-0.21902 -0.31883,-0.24995 -0.31883,-0.0671 0,0.10194 -0.0208,0.10698 -0.11506,0.0287 -0.0633,-0.0525 -0.11508,-0.1391 -0.11508,-0.19417 0,-0.055 -0.0863,-0.16874 -0.19177,-0.25171 -0.10548,-0.0829 -0.19177,-0.18825 -0.19177,-0.23492 0,-0.0466 -0.0396,-0.0863 -0.0863,-0.0863 -0.0467,0 -0.15196,-0.0863 -0.23493,-0.19178 -0.083,-0.10548 -0.19665,-0.19177 -0.25171,-0.19177 -0.055,0 -0.14165,-0.0518 -0.19417,-0.11507 -0.0782,-0.0942 -0.0732,-0.11507 0.0287,-0.11507 0.18557,0 0.15072,-0.11299 -0.11266,-0.37637 -0.13369,-0.13369 -0.31664,-0.23732 -0.42192,-0.23732 -0.16571,0 -0.18458,-0.0333 -0.18458,-0.30684 0,-0.16877 -0.0345,-0.30685 -0.0768,-0.30685 -0.0444,0 -0.0768,-0.24434 -0.0768,-0.58012 0,-0.59642 -0.085,-0.87737 -0.26129,-0.87737 -0.25362,0 -0.35239,-0.26771 -0.35239,-0.94452 0,-0.54013 -0.0216,-0.66642 -0.11506,-0.66642 -0.0831,0 -0.11508,-0.0852 -0.11508,-0.30684 0,-0.16876 -0.029,-0.30684 -0.0647,-0.30684 -0.0357,0 -0.0903,-0.68061 -0.11986,-1.51264 -0.0348,-0.97629 -0.0838,-1.53124 -0.1391,-1.5654 -0.0546,-0.0337 -0.0945,-0.43344 -0.10788,-1.10273 -0.0209,-1.04739 -0.0547,-1.24179 -0.18218,-1.03559 -0.10847,0.17551 -0.14113,-0.13132 -0.19177,-1.80271 -0.0261,-0.86119 -0.0787,-1.54383 -0.11987,-1.55818 -0.0998,-0.0348 -0.0951,-1.24176 0.005,-1.24176 0.0454,0 0.0295,-0.11561 -0.0383,-0.27807 -0.0723,-0.17305 -0.11507,-0.52027 -0.11507,-0.92053 0,-0.52012 -0.022,-0.64245 -0.11507,-0.64245 -0.10123,0 -0.11506,0.67235 -0.11506,5.5879 0,3.07313 -0.0259,6.32663 -0.0575,7.22999 l -0.0576,1.64209 -0.0528,-0.92053 c -0.01,-0.16569 -0.0198,-0.69779 -0.0264,-1.36162 0.005,0.005 0.0105,-0.006 0.0167,-0.0383 0.0183,-0.0949 0.0183,-0.25027 0,-0.3452 -0.007,-0.0356 -0.0139,-0.0457 -0.0192,-0.036 -0.011,-1.37755 -0.0168,-3.32286 -0.0119,-5.42967 0.0149,-6.54201 0.0155,-6.87995 -0.0216,-11.85182 -0.0233,-3.12922 0.0623,-13.39951 0.12466,-14.9586 0.0194,-0.48519 0.0607,-3.712804 0.0935,-7.172456 0.0594,-6.274376 0.0617,-6.291649 0.23731,-6.827268 0.67715,-2.065338 2.02873,-3.412267 4.10883,-4.094435 l 0.61368,-0.201367 z m 55.694428,10.643628 c 0.0039,0.0024 0.007,0.01461 0.01194,0.03834 0.01828,0.09494 0.01828,0.250275 0,0.3452 -0.01827,0.09494 -0.03357,0.01726 -0.03357,-0.172599 0,-0.142395 0.0096,-0.220258 0.02155,-0.210957 z m -51.475318,1.517437 -0.38356,0.179784 c -0.43891,0.205287 -0.81443,0.56045 -1.01402,0.961287 -0.12892,0.258895 -0.13691,0.653931 -0.13904,6.144057 -7.8e-4,3.2276 0.005,4.95359 0.0144,3.83553 0.0329,-3.85396 0.18633,-9.161373 0.27329,-9.473774 0.0893,-0.321007 0.36843,-0.751597 0.63286,-0.975665 0.0854,-0.07247 0.32842,-0.191411 0.53937,-0.266103 0.363375,-0.128643 1.493077,-0.13564 21.502983,-0.136631 20.056017,-7.81e-4 21.106264,-0.009 20.826979,-0.134243 -0.276075,-0.124122 -1.579602,-0.133072 -21.272858,-0.134242 l -20.980394,0 z m 43.578906,4.226278 c -0.0062,0.0805 -0.0096,1.4858 -0.0096,3.86431 0,3.45966 0.01005,4.88764 0.02155,3.17151 0.01148,-1.71613 0.01148,-4.54676 0,-6.29028 -0.0039,-0.54486 -0.009,-0.78213 -0.01194,-0.74554 z m -39.474885,1.21779 0,9.93884 0,9.93883 0.170203,-0.11986 c 0.147603,-0.10339 0.593692,-0.11986 3.329727,-0.11986 1.738084,0 3.206409,0.0192 3.262603,0.0408 0.08247,0.0316 0.09754,0.4319 0.07677,2.07598 l -0.0264,2.03763 0.232526,-0.11986 c 0.188912,-0.0977 0.522288,-0.12225 1.764352,-0.12225 0.842469,0 1.578713,0.0192 1.634898,0.0408 0.08211,0.0315 0.09796,0.3927 0.07676,1.84585 l -0.0264,1.8075 0.232525,-0.11986 c 0.206685,-0.10688 0.921979,-0.12226 6.215973,-0.12226 l 5.983433,0 0.02397,-1.57976 c 0.0232,-1.55413 0.02561,-1.58184 0.203772,-1.726 0.165626,-0.13398 0.321281,-0.14623 1.821881,-0.14623 1.260322,0 1.642808,-0.0222 1.644479,-0.0959 7.81e-4,-0.0528 0.0098,-0.86738 0.01921,-1.80989 0.01679,-1.6989 0.01702,-1.7149 0.196573,-1.86024 0.171842,-0.1391 0.345293,-0.14623 3.394448,-0.14623 2.519229,0 3.214203,-0.0207 3.214664,-0.0959 2.89e-4,-0.0528 6.16e-4,-4.36256 0,-9.57685 -7.81e-4,-9.39586 -0.0016,-9.48189 0.151031,-9.62002 0.0847,-0.0767 0.15581,-0.10138 0.15581,-0.0551 0,0.0462 -0.03452,0.10577 -0.07676,0.13185 -0.05052,0.0312 -0.07677,3.30826 -0.07677,9.57925 0,7.31042 -0.02288,9.5518 -0.09349,9.6224 -0.06864,0.0686 -0.898372,0.0911 -3.260213,0.0911 -3.065874,0 -3.171675,0.005 -3.320138,0.15342 -0.144519,0.14452 -0.153421,0.25717 -0.153421,1.91778 l 0,1.76195 -0.1726,0.0383 c -0.09493,0.0215 -0.875343,0.049 -1.733188,0.0599 -1.442696,0.0184 -1.567865,0.0301 -1.668444,0.1678 -0.08489,0.1162 -0.107887,0.47175 -0.107887,1.61573 0,1.03781 -0.02827,1.49301 -0.09349,1.55818 -0.07004,0.07 -1.526119,0.0911 -6.088915,0.0911 -5.851612,0 -6.003338,0.004 -6.180013,0.15102 -0.18037,0.15025 -0.154202,0.15088 6.206384,0.15342 l 6.386168,0.002 0,-1.72599 0,-1.726 1.841059,0 1.841052,0 0,-1.95611 0,-1.95613 3.413633,0 3.413626,0 -0.0024,-10.01076 0,-10.01075 -16.914718,0 -16.912336,0 z m 4.756065,0.7671 0.958884,0 0.958883,0 0,0.25651 0,0.2541 -0.958883,0 -0.958884,0 0,-0.2541 0,-0.25651 z m 3.221857,0 0.958883,0 0.958882,0 0,0.2637 0,0.26609 -0.918136,-0.005 c -0.504141,-0.002 -0.935643,-0.0247 -0.958883,-0.0479 -0.02327,-0.0233 -0.04077,-0.13937 -0.04077,-0.25891 l 0,-0.21814 z m 3.221848,0 0.958882,0 0.958883,0 0,0.2613 0,0.2613 -0.958883,-0.007 -0.958882,-0.007 0,-0.2541 0,-0.25411 z m 3.221848,0 0.95889,0 0.958884,0 0,0.26849 0,0.26849 -0.958884,0 -0.95889,0 0,-0.26849 0,-0.26849 z m 3.221855,0 0.958883,0 0.958884,0 0,0.27088 0,0.2709 -0.958884,-0.01 -0.958883,-0.01 0,-0.2613 0,-0.2613 z m 3.221848,0 0.958899,0 0.958875,0 0,0.25891 0,0.26129 -0.958875,-0.005 -0.958899,-0.005 0,-0.2565 0,-0.25411 z m 3.221863,0 0.958876,0 0.958883,0 0,0.25651 0,0.25889 -0.906142,0.012 c -0.498362,0.007 -0.929873,-0.009 -0.958875,-0.0383 -0.02896,-0.029 -0.05279,-0.15134 -0.05279,-0.27088 l 0,-0.21815 z m 3.221848,0 0.958884,0 0.95889,0 0,0.27568 0,0.27329 -0.95889,-0.0216 -0.958884,-0.0216 0,-0.25172 0,-0.2541 z m -20.6352,1.80271 0,1.1123 -0.0024,1.11231 -0.882175,0 c -0.485221,0 -0.91442,-0.01 -0.956487,-0.024 -0.046,-0.0153 -0.07676,-0.45216 -0.07676,-1.09073 l 0,-1.06197 0.958883,-0.024 0.958884,-0.024 z m 6.443703,0 0,1.1123 0,1.11231 -0.96128,0 -0.96128,0 0.02155,-1.09553 0.02155,-1.09792 0.939705,-0.0144 0.93972,-0.0167 z m 1.304083,0 0.95889,0 0.958884,0 0,1.1123 0,1.11231 -0.958884,0 -0.95889,0 0,-1.11231 0,-1.1123 z m 5.139622,0 0,1.1123 0,1.11231 -0.827039,0 c -1.210813,0 -1.090728,0.12372 -1.090728,-1.1171 0,-0.80107 0.02397,-1.07051 0.09589,-1.07395 0.05279,-0.002 0.484276,-0.0112 0.958891,-0.0192 l 0.862991,-0.0144 z m 6.443703,0 0,1.1123 0,1.11231 -0.961281,0 -0.961272,0 0.02155,-1.09553 0.02155,-1.09792 0.939696,-0.0144 0.939721,-0.0167 z m 3.221863,0 0,1.1123 0,1.11231 -0.95889,0 -0.958884,0 0,-1.08834 0,-1.08833 0.958884,-0.024 0.95889,-0.024 z m -7.071779,0.0167 c 0.337312,-0.004 0.581433,0.004 0.594506,0.0168 0.01741,0.0176 0.03357,0.51811 0.03357,1.1123 l 0,1.07874 -0.958875,0 -0.95889,0 0,-1.08833 0,-1.08833 0.925328,-0.024 c 0.127488,-0.002 0.251938,-0.006 0.364369,-0.007 z m -14.177105,0.0215 0.958883,0 0.958882,0 0,1.09311 0,1.09314 -0.958882,0 -0.958883,0 0,-1.09314 0,-1.09311 z m 31.492168,10.62443 -0.04077,6.4437 c -0.04419,7.119 -0.0096,6.6746 -0.539358,7.27794 -0.138405,0.15764 -0.383877,0.35452 -0.54417,0.4363 -0.281018,0.14335 -0.547464,0.14907 -7.448136,0.17499 -5.48229,0.0205 -7.209519,0.0491 -7.385813,0.12226 -0.182149,0.0756 -3.044742,0.0855 -13.731227,0.0456 -12.384242,-0.0463 -13.962107,-0.0719 -14.421617,-0.23733 -0.11837,-0.0426 -0.1337,-0.034 -0.0671,0.0383 0.0474,0.0515 0.22005,0.14052 0.38355,0.19896 0.25095,0.0897 3.578041,0.10469 21.354358,0.0911 20.089314,-0.0153 21.068758,-0.0219 21.332791,-0.15342 0.363488,-0.18098 0.730888,-0.54695 0.937299,-0.9325 l 0.167805,-0.31165 0,-6.59712 0.0024,-6.59713 z m -35.977352,6.48207 c -2.962835,0 -3.101107,0.006 -3.274589,0.15102 -0.180635,0.15049 -0.171061,0.15088 3.214656,0.15342 1.866946,7.8e-4 3.394448,-0.0106 3.394448,-0.0287 0,-0.018 -0.05591,-0.0871 -0.122256,-0.15342 -0.1056,-0.1056 -0.502899,-0.12226 -3.212259,-0.12226 z m 5.254686,3.91224 c -1.39914,0 -1.535342,0.0122 -1.702023,0.15103 l -0.179791,0.15103 1.821881,0.002 c 1.002034,7.8e-4 1.82188,-0.0106 1.82188,-0.0287 0,-0.018 -0.05599,-0.0871 -0.122256,-0.15342 -0.101472,-0.10148 -0.359941,-0.12226 -1.639691,-0.12226 z m -20.177325,11.66004 c 0.0422,0 0.0768,0.13808 0.0768,0.30684 0,0.16876 -0.0345,0.30684 -0.0768,0.30684 -0.0423,0 -0.0768,-0.13808 -0.0768,-0.30684 0,-0.16876 0.0345,-0.30684 0.0768,-0.30684 z m 58.161135,2.86946 c 0.0349,-0.0104 0.06231,0.0216 0.06231,0.0791 0,0.0658 -0.03452,0.11987 -0.07676,0.11987 -0.04225,0 -0.07677,-0.0322 -0.07677,-0.0719 0,-0.0397 0.03452,-0.0938 0.07677,-0.11987 0.0055,-0.002 0.0093,-0.006 0.01444,-0.007 z m -41.975169,3.3537 c 0.03467,0 0.0695,0.006 0.09589,0.0168 0.05279,0.0213 0.0096,0.0383 -0.09589,0.0383 -0.105474,0 -0.148626,-0.0171 -0.09589,-0.0383 0.0264,-0.0106 0.06123,-0.0168 0.09589,-0.0168 z m 3.221857,0 c -0.285033,0 -0.570057,0.002 -0.786292,0.01 -0.432455,0.0137 -0.07862,0.0264 0.786292,0.0264 0.864918,0 1.218738,-0.0127 0.786283,-0.0264 -0.216236,-0.007 -0.50126,-0.01 -0.786283,-0.01 z"
       id="path5023"
       inkscape:connector-curvature="0" />
    <path
       style="fill:#000000"
       d="m -337.85193,288.14721 c -1.93256,-3.81373 -3.26253,-4.10587 -7.03172,-1.54465 -2.07986,1.4133 -2.73465,1.57316 -4.02875,0.98354 -1.37514,-0.62657 -1.54523,-1.12381 -1.54523,-4.51745 0,-4.71625 -0.72339,-5.42497 -5.28978,-5.1826 -3.0783,0.16338 -3.51307,0.0178 -4.33815,-1.45215 -0.83993,-1.49644 -0.7727,-1.84606 0.80001,-4.16052 2.59156,-3.81382 2.30805,-5.13762 -1.51523,-7.07501 -2.78413,-1.41085 -3.23223,-1.90374 -3.23223,-3.55546 0,-1.65172 0.4481,-2.14463 3.23223,-3.55546 3.81373,-1.93257 4.10588,-3.26254 1.54465,-7.03173 -1.4133,-2.07985 -1.57316,-2.73466 -0.98354,-4.02875 0.62502,-1.37175 1.12654,-1.54523 4.46731,-1.54523 2.0698,0 4.11234,-0.34909 4.53899,-0.77573 0.42666,-0.42666 0.77574,-2.4692 0.77574,-4.53899 0,-3.34079 0.17348,-3.8423 1.54523,-4.46731 1.2941,-0.58963 1.94889,-0.42977 4.02875,0.98353 3.76919,2.56124 5.09916,2.26909 7.03172,-1.54465 1.41084,-2.78413 1.90374,-3.23223 3.55546,-3.23223 1.65173,0 2.14463,0.4481 3.55546,3.23223 1.9374,3.82329 3.26119,4.10679 7.07502,1.51523 2.31076,-1.57021 2.6659,-1.63891 4.15385,-0.80376 1.47236,0.82643 1.6112,1.25547 1.46035,4.51233 -0.20949,4.52239 0.57674,5.2831 5.20626,5.03738 3.07154,-0.16302 3.51412,-0.016 4.33074,1.43893 0.83194,1.4822 0.7573,1.85059 -0.87444,4.31633 -2.36591,3.57512 -1.91775,5.25376 1.8975,7.10735 2.51839,1.22353 2.9318,1.70022 2.9318,3.38053 0,1.68029 -0.41341,2.157 -2.9318,3.38051 -3.80205,1.84719 -4.26198,3.53438 -1.92579,7.06461 1.46728,2.2172 1.64111,2.90474 1.05797,4.18458 -0.61923,1.35904 -1.1271,1.53145 -4.51117,1.53145 -4.71624,0 -5.42498,0.7234 -5.1826,5.28979 0.16338,3.0783 0.0178,3.51306 -1.45216,4.33815 -1.49642,0.83991 -1.84605,0.77269 -4.16051,-0.80002 -3.81383,-2.59156 -5.13762,-2.30804 -7.07502,1.51523 -1.41083,2.78413 -1.90373,3.23223 -3.55546,3.23223 -1.65172,0 -2.14462,-0.4481 -3.55546,-3.23223 z m 8.32881,-11.77575 c 3.55083,-1.04911 8.90608,-6.40437 9.95521,-9.95521 1.79088,-6.0613 0.52829,-10.89304 -4.04029,-15.46162 -6.05692,-6.05692 -14.11237,-6.49013 -20.41216,-1.09774 -5.41243,4.63283 -7.13051,11.65258 -4.34247,17.74245 3.45633,7.54964 11.03461,11.07822 18.83971,8.77212 z m 26.98079,-34.11568 c -0.93693,-3.1272 -2.83392,-3.85244 -5.91255,-2.26042 -2.04443,1.05722 -2.13317,1.04499 -3.6861,-0.50795 -1.55293,-1.55293 -1.56517,-1.64166 -0.50794,-3.6861 1.59202,-3.07862 0.86678,-4.9756 -2.26042,-5.91254 -2.40165,-0.71956 -2.57952,-0.93704 -2.57952,-3.15398 0,-2.21694 0.17787,-2.43443 2.57952,-3.15399 3.1272,-0.93692 3.85244,-2.83391 2.26042,-5.91253 -1.05723,-2.04443 -1.04499,-2.13318 0.50794,-3.68611 1.55293,-1.55293 1.64167,-1.56517 3.6861,-0.50794 3.07863,1.59202 4.97562,0.86679 5.91255,-2.26043 0.71954,-2.40164 0.93703,-2.5795 3.15397,-2.5795 2.21694,0 2.43443,0.17786 3.15399,2.5795 0.93693,3.12722 2.83391,3.85245 5.91253,2.26043 2.04445,-1.05723 2.13319,-1.04499 3.68612,0.50794 1.55292,1.55293 1.56516,1.64168 0.50794,3.68611 -1.59203,3.07862 -0.86679,4.97561 2.26042,5.91253 2.40165,0.71956 2.57951,0.93705 2.57951,3.15399 0,2.21694 -0.17786,2.43442 -2.57951,3.15398 -3.12721,0.93694 -3.85245,2.83392 -2.26042,5.91254 1.05722,2.04444 1.04498,2.13317 -0.50794,3.6861 -1.55293,1.55294 -1.64167,1.56517 -3.68612,0.50795 -3.07862,-1.59202 -4.9756,-0.86678 -5.91253,2.26042 -0.71956,2.40164 -0.93705,2.57952 -3.15399,2.57952 -2.21694,0 -2.43443,-0.17788 -3.15397,-2.57952 z m 6.96945,-8.37784 c 6.11864,-3.12149 5.94146,-11.25198 -0.31116,-14.27882 -3.34562,-1.61959 -5.81455,-1.31402 -8.64822,1.07034 -4.35067,3.66086 -3.74011,10.57243 1.16277,13.16258 3.02675,1.599 4.73262,1.60904 7.79661,0.0459 z"
       id="path5088"
       inkscape:connector-curvature="0" />
    <path
       sodipodi:type="arc"
       style="fill:#000000;fill-opacity:1;stroke:none"
       id="path5098"
       sodipodi:cx="323.04544"
       sodipodi:cy="82.954544"
       sodipodi:rx="5.8636365"
       sodipodi:ry="5.8636365"
       d="m 328.90908,82.954544 a 5.8636365,5.8636365 0 1 1 -11.72728,0 5.8636365,5.8636365 0 1 1 11.72728,0 z"
       transform="matrix(0.42822702,0,0,0.42822702,-433.127,222.714)" />
    <path
       d="m 328.90908,82.954544 a 5.8636365,5.8636365 0 1 1 -11.72728,0 5.8636365,5.8636365 0 1 1 11.72728,0 z"
       sodipodi:ry="5.8636365"
       sodipodi:rx="5.8636365"
       sodipodi:cy="82.954544"
       sodipodi:cx="323.04544"
       id="path5100"
       style="fill:#4ca84c;fill-opacity:1;stroke:none"
       sodipodi:type="arc"
       transform="matrix(0.42822702,0,0,0.42822702,-428.72794,231.20068)" />
    <path
       transform="matrix(0.42822702,0,0,0.42822702,-428.72794,231.17472)"
       sodipodi:type="arc"
       style="fill:#000000;fill-opacity:1;stroke:none"
       id="path5102"
       sodipodi:cx="323.04544"
       sodipodi:cy="82.954544"
       sodipodi:rx="5.8636365"
       sodipodi:ry="5.8636365"
       d="m 328.90908,82.954544 a 5.8636365,5.8636365 0 1 1 -11.72728,0 5.8636365,5.8636365 0 1 1 11.72728,0 z" />
    <path
       transform="matrix(0.42822702,0,0,0.42822702,-437.99321,231.20068)"
       d="m 328.90908,82.954544 a 5.8636365,5.8636365 0 1 1 -11.72728,0 5.8636365,5.8636365 0 1 1 11.72728,0 z"
       sodipodi:ry="5.8636365"
       sodipodi:rx="5.8636365"
       sodipodi:cy="82.954544"
       sodipodi:cx="323.04544"
       id="path5104"
       style="fill:#000000;fill-opacity:1;stroke:none"
       sodipodi:type="arc" />
    <path
       sodipodi:type="arc"
       style="fill:#000000;fill-opacity:1;stroke:none"
       id="path5106"
       sodipodi:cx="323.04544"
       sodipodi:cy="82.954544"
       sodipodi:rx="5.8636365"
       sodipodi:ry="5.8636365"
       d="m 328.90908,82.954544 a 5.8636365,5.8636365 0 1 1 -11.72728,0 5.8636365,5.8636365 0 1 1 11.72728,0 z"
       transform="matrix(0.42822702,0,0,0.42822702,-431.97858,239.63545)" />
    <path
       transform="matrix(0.42822702,0,0,0.42822702,-440.71829,239.63545)"
       d="m 328.90908,82.954544 a 5.8636365,5.8636365 0 1 1 -11.72728,0 5.8636365,5.8636365 0 1 1 11.72728,0 z"
       sodipodi:ry="5.8636365"
       sodipodi:rx="5.8636365"
       sodipodi:cy="82.954544"
       sodipodi:cx="323.04544"
       id="path5108"
       style="fill:#000000;fill-opacity:1;stroke:none"
       sodipodi:type="arc" />
    <path
       transform="matrix(0.42822702,0,0,0.42822702,-423.23885,239.63545)"
       d="m 328.90908,82.954544 a 5.8636365,5.8636365 0 1 1 -11.72728,0 5.8636365,5.8636365 0 1 1 11.72728,0 z"
       sodipodi:ry="5.8636365"
       sodipodi:rx="5.8636365"
       sodipodi:cy="82.954544"
       sodipodi:cx="323.04544"
       id="path5110"
       style="fill:#000000;fill-opacity:1;stroke:none"
       sodipodi:type="arc" />
    <path
       sodipodi:type="arc"
       style="fill:#000000;fill-opacity:1;stroke:none"
       id="path5112"
       sodipodi:cx="323.04544"
       sodipodi:cy="82.954544"
       sodipodi:rx="5.8636365"
       sodipodi:ry="5.8636365"
       d="m 328.90908,82.954544 a 5.8636365,5.8636365 0 1 1 -11.72728,0 5.8636365,5.8636365 0 1 1 11.72728,0 z"
       transform="matrix(0.42822702,0,0,0.42822702,-425.80821,248.09618)" />
    <path
       transform="matrix(0.42822702,0,0,0.42822702,-433.7888,248.09618)"
       d="m 328.90908,82.954544 a 5.8636365,5.8636365 0 1 1 -11.72728,0 5.8636365,5.8636365 0 1 1 11.72728,0 z"
       sodipodi:ry="5.8636365"
       sodipodi:rx="5.8636365"
       sodipodi:cy="82.954544"
       sodipodi:cx="323.04544"
       id="path5114"
       style="fill:#000000;fill-opacity:1;stroke:none"
       sodipodi:type="arc" />
    <path
       style="fill:none;stroke:#000000;stroke-width:0.42822701px;stroke-linecap:butt;stroke-linejoin:miter;stroke-opacity:1"
       d="m -295.2379,258.80186 -4.2701,7.39603"
       id="path5116"
       inkscape:connector-curvature="0" />
    <path
       style="fill:none;stroke:#000000;stroke-width:0.42822701px;stroke-linecap:butt;stroke-linejoin:miter;stroke-opacity:1"
       d="m -294.42037,258.724 4.79147,8.29906"
       id="path5118"
       inkscape:connector-curvature="0" />
    <path
       style="fill:none;stroke:#000000;stroke-width:0.42822701px;stroke-linecap:butt;stroke-linejoin:miter;stroke-opacity:1"
       d="m -298.508,267.95034 4.00441,6.93582"
       id="path5120"
       inkscape:connector-curvature="0" />
    <path
       style="fill:none;stroke:#000000;stroke-width:0.42822701px;stroke-linecap:butt;stroke-linejoin:miter;stroke-opacity:1"
       d="m -300.33769,268.69001 -1.52786,5.70203"
       id="path5122"
       inkscape:connector-curvature="0" />
    <path
       style="fill:none;stroke:#000000;stroke-width:0.42822701px;stroke-linecap:butt;stroke-linejoin:miter;stroke-opacity:1"
       d="m -298.27441,267.09389 12.71092,7.33865"
       id="path5124"
       inkscape:connector-curvature="0" />
    <path
       style="fill:none;stroke:#000000;stroke-width:0.42822701px;stroke-linecap:butt;stroke-linejoin:miter;stroke-opacity:1"
       d="m -293.56391,275.58057 5.48909,6.69592"
       id="path5126"
       inkscape:connector-curvature="0" />
    <path
       style="fill:none;stroke:#000000;stroke-width:0.42822701px;stroke-linecap:butt;stroke-linejoin:miter;stroke-opacity:1"
       d="m -294.22572,276.43703 -1.09004,6.1509"
       id="path5128"
       inkscape:connector-curvature="0" />
    <path
       style="fill:#000000"
       d="m -201.61491,-21.372766 c -0.79631,-0.194158 -1.18994,-0.474518 -1.49996,-1.068338 l -0.3105,-0.594732 0.0923,-22.731936 c 0.0967,-23.824761 0.17357,-29.093391 0.43346,-29.703503 l 0.15482,-0.363443 30.66822,0 30.66822,0 0.15482,0.363443 c 0.25988,0.610112 0.33677,5.878742 0.43346,29.703503 l 0.0922,22.731936 -0.31048,0.593837 c -0.25251,0.482922 -0.43393,0.64338 -0.97132,0.859055 -0.65405,0.262506 -0.96037,0.265436 -29.93478,0.286036 -16.10069,0.01149 -29.4524,-0.02266 -29.67047,-0.07583 z m 56.10295,-5.297539 c -0.1263,-0.08163 -9.76682,-0.128108 -26.56465,-0.128108 -16.79782,0 -26.43834,0.04653 -26.56464,0.128108 -0.12835,0.08295 9.23817,0.128116 26.56464,0.128116 17.32648,0 26.69299,-0.04517 26.56465,-0.128116 z m -53.30252,-12.125899 c -0.0333,-0.127205 -0.0604,-0.02314 -0.0604,0.231289 0,0.254411 0.0272,0.358486 0.0604,0.23128 0.0333,-0.127205 0.0333,-0.335363 0,-0.462569 z m 0.002,-1.121841 c -0.0316,-0.164401 -0.0587,-0.06099 -0.0601,0.22974 -0.002,0.290761 0.0244,0.42527 0.0575,0.298911 0.033,-0.12636 0.0342,-0.364249 0.002,-0.528651 z m -0.006,-0.926677 c -0.0366,-0.09087 -0.0667,-0.01652 -0.0667,0.165207 0,0.18172 0.03,0.256064 0.0667,0.165198 0.0366,-0.09086 0.0366,-0.23954 0,-0.330405 z m 53.52855,-0.256064 c -0.0421,-0.105424 -0.0735,-0.07408 -0.0798,0.07985 -0.006,0.139314 0.0255,0.217377 0.0694,0.173462 0.0439,-0.0439 0.0486,-0.157906 0.0105,-0.253312 z m -53.52496,-0.602984 c -0.0333,-0.127215 -0.0604,-0.02315 -0.0604,0.231279 0,0.254412 0.0272,0.358487 0.0604,0.231281 0.0333,-0.127206 0.0333,-0.335355 0,-0.46256 z m 26.73784,-30.033919 26.69565,0 0.0342,14.108336 0.0343,14.108343 0.0324,-14.174416 0.0324,-14.174425 -26.82897,0 -26.82897,0 0.0325,14.9674 0.0325,14.967391 0.0342,-14.901311 0.0342,-14.901318 26.69565,0 z m 26.79032,29.044233 c -0.0316,-0.164393 -0.0587,-0.06099 -0.0601,0.229747 -0.002,0.290754 0.0244,0.425261 0.0575,0.298902 0.0331,-0.126352 0.0342,-0.364249 0.002,-0.528649 z m -57.09736,-3.56166 c -0.0421,-0.105431 -0.0735,-0.07415 -0.0799,0.07984 -0.006,0.139323 0.0255,0.217386 0.0694,0.173469 0.0439,-0.0439 0.0486,-0.157904 0.0105,-0.253309 z m 60.66553,-0.669074 c -0.0315,-0.163554 -0.0572,-0.02978 -0.0572,0.297362 0,0.327101 0.0258,0.460916 0.0572,0.29737 0.0314,-0.163555 0.0314,-0.431184 0,-0.594732 z m -60.66828,-0.792975 c -0.0366,-0.09087 -0.0666,-0.01651 -0.0666,0.165199 0,0.181731 0.03,0.256072 0.0666,0.165208 0.0366,-0.09087 0.0366,-0.239549 0,-0.330407 z m 60.6666,-0.06353 c -0.0335,-0.128595 -0.0631,-0.05539 -0.0659,0.162686 -0.002,0.218069 0.0247,0.323278 0.0609,0.233801 0.0362,-0.08948 0.0384,-0.267892 0.005,-0.396487 z m -60.65929,-1.190162 c -0.0304,-0.200902 -0.056,-0.06793 -0.0571,0.295549 -8e-4,0.363443 0.0239,0.527813 0.0552,0.365264 0.0314,-0.162558 0.0322,-0.459918 0.002,-0.660813 z m 60.65929,0.26502 c -0.0335,-0.128587 -0.0631,-0.05539 -0.0659,0.162692 -0.002,0.218063 0.0247,0.323271 0.0609,0.233795 0.0362,-0.08948 0.0384,-0.267901 0.005,-0.396487 z m 0.15701,-18.967819 0.0207,-7.764542 -30.53896,0 -30.53896,0 0.0359,8.557511 c 0.0197,4.706638 0.0706,10.163294 0.11304,12.125904 0.0474,2.193947 0.0872,-0.816824 0.10323,-7.816744 l 0.0262,-11.385123 0.56169,-0.05922 c 0.30893,-0.03257 0.62117,-0.01644 0.69385,0.03592 0.0727,0.05236 0.25111,0.05044 0.39649,-0.004 0.14538,-0.0546 0.35353,-0.05492 0.46257,-7.98e-4 0.10903,0.05412 0.55508,0.05835 0.99121,0.0094 0.43614,-0.04893 1.06061,-0.07008 1.38771,-0.04685 0.3271,0.02315 1.27868,0.03297 2.1146,0.02179 1.68173,-0.02251 2.28326,-0.0064 2.72103,0.07311 0.16132,0.02921 0.49923,0.0064 0.75091,-0.05005 0.26344,-0.05939 0.5559,-0.04821 0.68925,0.0265 0.13954,0.07806 0.26481,0.08132 0.31503,0.0081 0.0675,-0.09831 1.08142,-0.135411 1.33892,-0.04901 0.0363,0.01221 0.77976,0.0092 1.65204,-0.0064 1.50131,-0.02738 3.05666,-0.0089 4.46063,0.05276 0.34535,0.01517 0.62782,-0.0024 0.62771,-0.03847 -1.1e-4,-0.0364 0.22284,-0.05476 0.49546,-0.04095 0.49462,0.02506 0.62925,0.02849 1.75121,0.04494 0.32711,0.0048 0.71368,0.01437 0.85906,0.02139 0.14537,0.0072 0.79958,-0.0024 1.45378,-0.02099 0.65421,-0.01852 1.24894,-0.02131 1.32162,-0.0064 0.28581,0.05899 2.77445,-7.98e-4 2.99919,-0.07224 0.13134,-0.04166 0.2388,-0.02602 0.2388,0.03472 0,0.08896 1.20074,0.113741 1.45378,0.03001 0.0364,-0.01205 0.11025,-0.01501 0.16423,-0.0064 0.054,0.0085 0.6487,0.01285 1.32162,0.0098 2.39515,-0.01078 2.61717,-0.0056 2.72688,0.0621 0.0611,0.03775 0.29708,0.01524 0.52452,-0.04997 0.25309,-0.07256 0.4434,-0.07024 0.49052,0.0056 0.0423,0.06848 0.13042,0.09156 0.19572,0.05116 0.16229,-0.100299 1.76808,-0.126503 1.92202,-0.03137 0.0682,0.04214 0.39107,0.02698 0.71755,-0.03368 0.32647,-0.06066 0.64573,-0.05962 0.70949,0.0024 0.0637,0.06194 0.24216,0.0708 0.39648,0.01979 0.15432,-0.051 0.45901,-0.08181 0.67707,-0.06848 1.21365,0.07431 1.64111,0.07176 2.0224,-0.01205 0.28367,-0.06226 0.42261,-0.04302 0.42261,0.05875 0,0.09317 0.10549,0.118091 0.27378,0.06465 0.24919,-0.0791 5.42979,-0.135866 5.7396,-0.0629 0.0727,0.01716 0.19164,0.01964 0.26433,0.0056 0.10185,-0.01963 1.8004,-0.02019 2.90757,-7.98e-4 1.25714,0.02179 5.34866,0.01469 6.21164,-0.01078 0.36345,-0.01078 0.69055,-0.0091 0.7269,0.004 0.17955,0.06274 1.45379,0.06936 1.45386,0.0072 5e-5,-0.03919 0.20821,-0.07303 0.46256,-0.07535 l 0.46249,-0.004 0.0243,12.36129 c 0.02,10.151627 0.0404,11.416293 0.11399,7.074789 0.0493,-2.907567 0.099,-8.780546 0.11028,-13.051035 z m -60.81564,16.919156 c -0.0294,-0.237546 -0.0541,-0.07502 -0.0548,0.36108 -8e-4,0.436134 0.0233,0.630483 0.0535,0.431896 0.0302,-0.198596 0.0307,-0.555438 0.002,-0.792976 z m 26.33671,-5.784477 0,-0.792974 -4.2292,0 -4.2292,0 0,0.792974 0,0.792976 4.2292,0 4.2292,0 0,-0.792976 z m -13.67881,-3.624531 4.22919,-1.640944 0,-1.031894 0,-1.031894 -4.16311,-1.621422 c -2.28972,-0.891781 -4.20773,-1.62162 -4.26224,-1.62186 -0.0545,-2.63e-4 -0.0991,0.409258 -0.0991,0.91003 l 0,0.910465 2.6102,1.024368 c 1.43562,0.563402 2.8421,1.115272 3.12553,1.226369 l 0.51533,0.201996 -3.0925,1.215843 -3.09248,1.215857 -0.0388,0.942594 c -0.0214,0.518427 -0.0214,0.94233 0,0.942012 0.0214,-2.56e-4 1.94197,-0.738995 4.26803,-1.64152 z"
       id="path5224"
       inkscape:connector-curvature="0" />
    <path
       style="fill:#000000"
       d="m -429.22602,272.13022 c -10.68102,-7.62608 -22.6908,-16.29755 -26.68841,-19.26993 -7.20778,-5.35926 -7.29152,-5.3974 -10.04252,-4.57318 -4.51226,1.35191 -4.44687,1.44309 -4.44687,-6.2018 l 0,-7.03294 3.44315,-1.4759 c 1.89372,-0.81176 3.63618,-1.19729 3.87213,-0.85675 0.23595,0.34054 1.59065,1.47607 3.01043,2.52339 l 2.58143,1.90423 20.95675,-9.92609 20.95674,-9.92608 18.68665,6.79027 c 13.79623,5.01323 18.68662,7.09879 18.68662,7.96903 0,0.6483 -3.00516,4.19645 -6.67814,7.88479 l -6.67818,6.70605 2.99466,1.35041 c 5.72239,2.58044 6.61505,0.94601 -13.39075,24.51854 -4.82193,5.68161 -5.84736,7.35088 -6.22983,10.14133 -0.25181,1.83714 -0.71794,3.34025 -1.03583,3.34025 -0.31789,0 -9.31701,-6.23952 -19.99803,-13.86562 z m 19.30142,5.4553 0,-6.19768 -7.68981,-5.23437 c -4.2294,-2.8789 -7.88028,-5.23438 -8.11307,-5.23438 -0.23279,0 -0.42326,1.84503 -0.42326,4.10007 0,2.25503 -0.26477,3.93642 -0.58837,3.73641 -0.32361,-0.2 -1.07039,-0.0473 -1.65949,0.33917 -0.87722,0.57559 -0.68385,1.00069 1.06827,2.34837 3.31721,2.55154 16.95574,12.34007 17.19361,12.34007 0.11666,0 0.21212,-2.78895 0.21212,-6.19766 z m 5.90041,-5.65812 c 0,-0.388 -2.33809,-2.41138 -5.19574,-4.4964 -3.34654,-2.44171 -4.94186,-4.04485 -4.48237,-4.50433 0.45949,-0.45949 2.61,0.62283 6.04228,3.041 4.92598,3.47055 6.58603,4.04757 6.58603,2.28928 0,-0.37847 -2.32343,-2.23312 -5.16317,-4.12143 -4.07849,-2.712 -4.99062,-3.64121 -4.34175,-4.42306 0.93991,-1.13252 0.95297,-1.12669 7.03174,3.1476 3.56225,2.50479 4.7017,2.98515 5.31838,2.24211 0.60394,-0.7277 -0.91337,-2.00555 -6.58364,-5.54462 -4.05264,-2.52943 -7.70664,-4.38995 -8.12,-4.13448 -0.50996,0.31517 -0.50897,0.75679 0.002,1.37376 0.54881,0.66128 -0.0473,1.69233 -2.18557,3.78031 -1.61711,1.57906 -2.8533,3.10372 -2.74709,3.38812 0.10618,0.28442 2.99575,2.51626 6.42116,4.95967 5.78434,4.12605 7.41665,4.78686 7.41665,3.00247 z m -31.71472,-7.02469 c 0,-0.24294 -0.48601,-1.48756 -1.08004,-2.76583 -0.59403,-1.27826 -1.17484,-4.14724 -1.29071,-6.37552 l -0.21068,-4.05139 -12.16889,-8.30468 c -6.6929,-4.56758 -12.2518,-8.05482 -12.35311,-7.74944 -0.10129,0.3054 0.0644,2.95654 0.36808,5.89144 l 0.55228,5.33618 12.53837,9.19801 c 11.89673,8.7273 13.6447,9.85736 13.6447,8.82123 z m -9.52478,-7.85577 c -0.7393,-1.95787 0.24598,-4.24092 1.83021,-4.24092 1.30015,0 2.45906,2.69994 1.96685,4.5822 -0.48936,1.87127 -3.04844,1.64127 -3.79706,-0.34128 z m 53.5645,0.45681 c 0.15269,-0.45866 -3.60139,-3.05427 -8.34241,-5.76802 -7.22041,-4.13294 -8.78108,-4.77304 -9.61196,-3.94216 -0.83086,0.83088 0.35396,1.79814 7.29719,5.95728 8.00734,4.79654 10.06812,5.52224 10.65718,3.7529 z m 4.26992,-5.36214 c 0,-0.55715 -2.42856,-2.26204 -5.39679,-3.78865 -6.37036,-3.27638 -6.73402,-3.57807 -5.29157,-4.38965 0.6051,-0.34046 4.16644,-3.1105 7.91409,-6.15564 l 6.81392,-5.53662 -9.39535,-3.64336 c -23.06304,-8.94344 -22.08184,-8.64605 -24.5969,-7.45494 l -2.2779,1.07879 7.63339,3.11558 c 7.23357,2.95238 10.65403,3.88563 9.07164,2.47515 -0.38537,-0.34352 -3.45167,-1.71359 -6.814,-3.04462 -3.36233,-1.33102 -5.93877,-2.59459 -5.72544,-2.80793 0.21335,-0.21334 3.69227,0.89987 7.73095,2.4738 4.78225,1.86371 7.03612,3.08305 6.46299,3.49648 -0.55344,0.39919 -0.2638,0.4997 0.78043,0.27081 1.06818,-0.23413 1.48545,-0.0807 1.16973,0.43013 -0.31341,0.5071 -0.0334,0.61858 0.77484,0.30845 0.85292,-0.3273 1.09342,-0.20704 0.73755,0.36877 -0.35245,0.57028 -0.1208,0.69814 0.69668,0.38447 1.22313,-0.46937 9.37372,2.23406 9.3085,3.08747 -0.0189,0.24794 -3.02752,2.77409 -6.68572,5.61367 -4.45622,3.45902 -7.30489,5.16285 -8.63178,5.16285 -3.8254,0 -2.35595,1.51402 5.53943,5.70745 7.86935,4.17959 10.18131,4.82621 10.18131,2.84754 z m -34.29615,-2.97981 c 0,-0.38172 -0.36342,-0.91863 -0.8076,-1.19314 -0.49769,-0.30759 -0.0462,-0.99857 1.17637,-1.80059 3.09049,-2.02735 0.81397,-2.55726 -2.64188,-0.61496 l -3.00443,1.68859 1.61414,1.30706 c 1.74343,1.41173 3.6634,1.73302 3.6634,0.61304 z m -3.33795,-7.05027 c 5.85896,-3.85371 11.00771,-7.00675 11.44164,-7.00675 0.43394,0 2.76144,0.9957 5.17224,2.21266 2.41078,1.21696 4.72969,2.21266 5.15312,2.21266 1.08182,0 11.22929,-7.46508 10.77077,-7.92361 -0.20684,-0.20683 -1.39749,-0.49499 -2.64591,-0.64034 -1.24843,-0.14535 -2.89943,-0.60122 -3.6689,-1.01302 -1.76748,-0.94593 -2.44762,-0.95424 -1.87202,-0.0229 0.24675,0.39923 1.50793,1.00037 2.80263,1.33585 l 2.35401,0.60999 -3.95953,2.66651 -3.95954,2.66651 -3.97921,-1.9516 c -2.45195,-1.20255 -3.84012,-2.31408 -3.6168,-2.89604 0.22599,-0.58892 -0.25355,-0.95429 -1.27392,-0.97058 -0.89999,-0.0144 -2.46609,-0.50046 -3.48022,-1.08019 -1.01413,-0.57973 -2.17579,-1.0519 -2.58143,-1.04928 -0.40566,0.002 0.34605,0.58277 1.67045,1.2892 l 2.40803,1.28441 -10.85943,6.98212 c -5.97269,3.84018 -11.61989,7.25871 -12.54935,7.59675 -2.54876,0.927 -1.91941,2.45856 1.08733,2.64614 0.51334,0.0321 5.72706,-3.09481 11.58604,-6.94852 z m -40.86666,4.76814 c 1.22979,-0.65816 1.42662,-1.58589 1.42662,-6.72399 0,-5.82131 -0.0388,-5.9501 -1.65949,-5.51576 -0.91273,0.2446 -1.90843,0.44926 -2.21266,0.45479 -0.89743,0.0163 -0.66485,12.54845 0.23287,12.54845 0.43232,0 1.42802,-0.34357 2.21266,-0.76349 z m 37.93514,-10.7901 c 4.63879,-2.77272 8.44495,-5.2375 8.45814,-5.47726 0.0514,-0.93499 -7.4593,-4.44509 -9.01882,-4.21491 -1.40917,0.208 -1.13029,0.55466 1.8993,2.36093 l 3.55099,2.11714 -2.81345,1.6415 c -1.54738,0.90283 -5.2197,3.03071 -8.16068,4.72862 -2.94099,1.69792 -5.34725,3.44309 -5.34725,3.87816 0,1.3684 2.73583,0.16363 11.43177,-5.03418 z m 12.90743,3.7574 c 0,-0.20283 -0.6638,-0.0135 -1.4751,0.42067 -0.81132,0.43421 -1.47511,0.95541 -1.47511,1.15824 0,0.20282 0.66379,0.0135 1.47511,-0.42069 0.8113,-0.43419 1.4751,-0.95539 1.4751,-1.15822 z m -24.15481,-5.00823 c 3.95511,-1.85901 7.19112,-3.75679 7.19112,-4.21731 0,-0.46054 0.48722,-0.65036 1.08271,-0.42185 0.59549,0.22852 1.26135,0.12641 1.4797,-0.22686 0.21835,-0.35331 -0.002,-0.77533 -0.48956,-0.93787 -1.21823,-0.40609 -7.97326,2.93019 -7.97326,3.93793 0,0.44811 -0.4547,0.64023 -1.01044,0.42698 -0.55575,-0.21326 -4.08652,1.20183 -7.84616,3.14466 -3.75965,1.94281 -6.37502,3.69521 -5.81191,3.8942 0.56309,0.199 2.18545,-0.21907 3.60523,-0.92903 1.41979,-0.70997 5.81744,-2.81185 9.77257,-4.67085 z m 35.64171,-2.20972 2.55801,-1.73822 -9.76037,-4.079 c -5.3682,-2.24345 -10.21011,-3.90642 -10.75979,-3.69548 -1.55256,0.59577 -0.40616,1.22268 8.47154,4.63267 7.69843,2.95704 10.38842,4.92802 5.35063,3.92046 -2.57667,-0.51533 -2.91519,0.64466 -0.52457,1.79761 0.91273,0.44018 1.76007,0.8228 1.88301,0.85025 0.12293,0.0274 1.37462,-0.73227 2.78154,-1.68829 z m -7.06159,-2.30333 c 0,-0.91626 -6.13661,-3.35841 -7.41747,-2.95188 -0.78823,0.25017 -1.43316,0.14088 -1.43316,-0.2429 0,-0.93598 -4.10246,-2.59188 -5.30976,-2.14321 -1.29011,0.47944 5.18359,3.44249 7.56584,3.46293 1.03801,0.009 2.53156,0.50348 3.31899,1.09907 1.38705,1.04912 3.27556,1.49651 3.27556,0.77599 z"
       id="path5304"
       inkscape:connector-curvature="0" />
  </g>
</svg>
