<?xml version="1.0" encoding="UTF-8" standalone="no"?>
<!-- Created with Inkscape (http://www.inkscape.org/) -->

<svg
   xmlns:dc="http://purl.org/dc/elements/1.1/"
   xmlns:cc="http://creativecommons.org/ns#"
   xmlns:rdf="http://www.w3.org/1999/02/22-rdf-syntax-ns#"
   xmlns:svg="http://www.w3.org/2000/svg"
   xmlns="http://www.w3.org/2000/svg"
   xmlns:sodipodi="http://sodipodi.sourceforge.net/DTD/sodipodi-0.dtd"
   xmlns:inkscape="http://www.inkscape.org/namespaces/inkscape"
   width="64px"
   height="64px"
   id="svg4574"
   version="1.1"
   inkscape:version="0.48.4 r9939"
   sodipodi:docname="Nouveau document 13">
  <defs
     id="defs4576" />
  <sodipodi:namedview
     id="base"
     pagecolor="#ffffff"
     bordercolor="#666666"
     borderopacity="1.0"
     inkscape:pageopacity="0.0"
     inkscape:pageshadow="2"
     inkscape:zoom="5.5"
     inkscape:cx="51.410847"
     inkscape:cy="2.6557348"
     inkscape:current-layer="layer1"
     showgrid="true"
     inkscape:document-units="px"
     inkscape:grid-bbox="true"
     inkscape:window-width="3200"
     inkscape:window-height="1751"
     inkscape:window-x="0"
     inkscape:window-y="25"
     inkscape:window-maximized="1" />
  <metadata
     id="metadata4579">
    <rdf:RDF>
      <cc:Work
         rdf:about="">
        <dc:format>image/svg+xml</dc:format>
        <dc:type
           rdf:resource="http://purl.org/dc/dcmitype/StillImage" />
        <dc:title></dc:title>
      </cc:Work>
    </rdf:RDF>
  </metadata>
  <g
     id="layer1"
     inkscape:label="Layer 1"
     inkscape:groupmode="layer">
    <path
       style="fill:#000000"
       d="m -430.99725,60.060861 c -1.0984,-0.563335 -2.02153,-1.384742 -2.87018,-2.553914 -0.34053,-0.469162 -0.72031,-0.853025 -0.84394,-0.853025 -0.12362,0 -0.22477,-0.158729 -0.22477,-0.352733 0,-0.194003 -0.29041,-0.714124 -0.64537,-1.155829 -0.35495,-0.441704 -1.28334,-1.60135 -2.06312,-2.576996 l -1.41776,-1.773896 -0.11172,-5.729244 c -0.12601,-6.461805 -0.38356,-8.525955 -1.33637,-10.709938 -0.72845,-1.669736 -1.18432,-1.97957 -2.39149,-1.625399 -2.46928,0.724458 -4.00234,3.09793 -4.961,7.680622 -0.38823,1.855882 -0.41232,2.434035 -0.30164,7.242108 0.066,2.873868 0.1732,5.760834 0.23788,6.415482 0.10216,1.034068 0.0479,1.298923 -0.41363,2.018255 -0.45503,0.70918 -0.6622,0.827989 -1.44379,0.827989 -1.29147,0 -2.32708,-0.756456 -3.85252,-2.814044 -2.07219,-2.795092 -2.05045,-2.628804 -2.05045,-15.67579 0,-9.258728 0.052,-11.217943 0.36362,-13.672061 0.84788,-6.679665 2.87077,-18.27551 3.45269,-19.7919354 0.49592,-1.2923724 1.26392,-2.184292 2.33208,-2.7084098 1.73571,-0.8516699 6.04056,-1.57815389 9.9361,-1.6768065 l 3.57433,-0.0905169 2.44366,-1.6316217 c 3.12627,-2.0874011 4.44451,-2.6121931 6.56802,-2.6147307 1.71529,-0.0021 2.74243,0.477518 3.17029,1.4802002 0.15311,0.3588054 0.4706,0.3536396 3.08142,-0.050137 4.24593,-0.6566637 10.13416,-0.44427 13.03342,0.4701266 3.65459,1.15262578 7.17144,3.0151275 9.28552,4.9175666 1.59792,1.4379606 1.71781,1.4617347 7.79292,1.5456067 l 5.65828,0.07811 1.55583,-1.0966889 c 0.89876,-0.6335361 1.82355,-1.0966884 2.18977,-1.0966884 0.78041,0 1.5166,0.6392277 1.5166,1.3168694 0,0.2783403 0.11695,0.5060738 0.2599,0.5060738 0.72419,0 0.96326,0.6555652 1.06941,2.9326379 0.10418,2.2346835 0.0989,2.2678124 -0.52943,3.3082071 -0.7625,1.262586 -1.03481,1.295424 -3.25298,0.392267 -1.55867,-0.634631 -1.78184,-0.656 -6.11933,-0.585944 l -4.50166,0.0727 0.41193,1.171891 c 2.02909,5.772501 1.70048,13.967019 -0.84235,21.006616 l -1.01929,2.821832 0.0636,9.418329 c 0.0734,10.878216 0.17126,10.286851 -1.93102,11.675708 -1.14587,0.757012 -1.26885,0.781261 -3.96259,0.781261 -2.62989,0 -2.83435,-0.03759 -3.78539,-0.695841 -0.55294,-0.382714 -1.12237,-0.880767 -1.26541,-1.106785 -0.14303,-0.226021 -0.36081,-0.411599 -0.48394,-0.4124 -0.88861,-0.0058 -1.86276,-0.719594 -3.12723,-2.291554 -1.79607,-2.232853 -1.96175,-2.672361 -1.96175,-5.20423 l 0,-2.054279 -3.82255,0.0076 c -2.90032,0.0058 -4.17302,-0.09867 -5.27519,-0.432645 -0.79896,-0.242116 -1.49149,-0.440198 -1.53894,-0.440198 -0.0475,0 -0.0863,2.535266 -0.0863,5.633926 0,3.464812 -0.0871,6.015507 -0.22643,6.625026 -0.54684,2.393673 -2.71,3.635174 -6.29779,3.614499 -1.5573,-0.009 -2.35757,-0.137227 -3.03992,-0.487182 z m -6.62683,-12.15007 c -0.004,-1.227923 0.0482,-2.277453 0.11583,-2.332296 0.0677,-0.05484 0.0818,-0.46831 0.0314,-0.918819 -0.065,-0.579862 -0.14134,-0.716325 -0.26172,-0.467202 -0.30403,0.629209 -0.20996,5.951349 0.10524,5.95092 0.01,-1.1e-5 0.0134,-1.004683 0.01,-2.232603 z m -16.43613,0.740166 c -0.0503,-0.25338 -0.095,-0.109127 -0.0989,0.32057 -0.004,0.429693 0.0371,0.637004 0.0915,0.460691 0.0544,-0.176314 0.0577,-0.52788 0.006,-0.781261 z m -0.19929,-2.088318 c -0.05,-0.250653 -0.0908,-0.04557 -0.0908,0.455736 0,0.501308 0.0409,0.70639 0.0908,0.455735 0.0499,-0.250655 0.0499,-0.660816 0,-0.911471 z m -0.18949,-6.510505 c -0.0409,-0.680348 -0.0744,-0.123695 -0.0744,1.236996 0,1.360695 0.0335,1.917343 0.0744,1.236997 0.0409,-0.680349 0.0409,-1.793644 0,-2.473993 z m 16.78296,0.911472 c -0.0509,-0.895195 -0.13647,-1.686222 -0.19042,-1.757836 -0.10823,-0.143684 -0.0201,2.87747 0.0929,3.190146 0.1618,0.447074 0.18482,0.10876 0.0974,-1.43231 z m -0.31164,-3.108767 c -0.0634,-0.207744 -0.11044,-0.146039 -0.11998,0.157339 -0.01,0.274523 0.0383,0.428336 0.10428,0.341801 0.0659,-0.08654 0.073,-0.31115 0.0157,-0.49914 z m -16.31942,-2.951022 c 0.0686,-1.716013 0.15727,-3.944952 0.19705,-4.953195 0.0397,-1.008244 0.21221,-2.824673 0.38318,-4.036512 0.17096,-1.211839 0.36014,-2.672099 0.4204,-3.245023 0.12436,-1.182658 0.31521,-2.709587 0.56964,-4.557355 0.54442,-3.953946 1.36876,-8.3976677 1.93241,-10.4168078 0.74668,-2.6748277 1.54246,-3.5970387 3.69391,-4.2807636 0.62893,-0.1998744 0.95187,-0.3731697 0.71763,-0.3851026 -0.75285,-0.03836 -3.01245,1.0130917 -3.62146,1.6851554 -0.6973,0.7694614 -1.07632,2.1645046 -2.18955,8.0589046 -1.54574,8.184458 -2.17114,13.746838 -2.32777,20.703406 -0.12037,5.346256 0.0298,6.300338 0.22456,1.427293 z m 22.28652,-2.345398 c 0.26322,-0.241787 0.5624,-1.004448 0.76441,-1.94871 0.18256,-0.853294 0.46331,-1.694442 0.6239,-1.869213 0.16669,-0.181427 1.28475,-0.397646 2.60588,-0.503944 2.86212,-0.230293 3.87409,-0.678137 5.06679,-2.242298 1.3893,-1.822012 1.81434,-3.155034 1.81434,-5.690213 0,-1.891486 -0.0577,-2.213631 -0.56823,-3.180988 -1.02787,-1.946954 -1.79648,-2.234812 -6.28278,-2.353016 -3.55441,-0.09365 -3.90812,-0.06221 -4.30727,0.382838 -0.35716,0.398203 -0.59488,1.508868 -1.33006,6.214109 -1.65821,10.612878 -1.64017,10.449215 -1.21964,11.058623 0.4552,0.659631 2.17154,0.740103 2.83266,0.132812 z m -2.52041,-0.501562 c -0.19002,-0.300263 -0.01,-1.866593 0.8759,-7.617292 1.33688,-8.679012 1.38224,-8.883684 2.01449,-9.091795 0.26656,-0.08773 2.02445,-0.11407 3.90641,-0.05853 3.03515,0.0896 3.52272,0.166048 4.31534,0.676622 1.36368,0.878428 1.88697,2.084214 1.88411,4.341383 -0.003,2.17705 -0.54716,3.897469 -1.64162,5.187843 -0.38246,0.450927 -0.79454,0.941283 -0.91573,1.089681 -0.4273,0.523223 -2.03179,0.966188 -4.19182,1.15727 -1.20138,0.106282 -2.34107,0.280845 -2.53265,0.38793 -0.21156,0.118241 -0.51324,0.906632 -0.76822,2.007552 -0.32844,1.41809 -0.52566,1.865596 -0.90568,2.055079 -0.72582,0.361907 -1.76955,0.292469 -2.04053,-0.135757 z m 7.96718,-7.671352 c 1.35058,-1.213665 2.08622,-3.543054 1.54092,-4.879303 -0.40182,-0.984637 -1.62002,-1.692093 -2.91372,-1.692093 -1.4731,0 -1.7385,0.392836 -2.22819,3.298024 -0.48288,2.864748 -0.48743,3.101388 -0.0702,3.648534 0.50985,0.668644 2.76623,0.438065 3.67122,-0.375162 z m -3.38501,-0.117584 c -0.16793,-0.265366 -0.14347,-0.870101 0.0974,-2.408887 0.49401,-3.155523 0.67907,-3.476566 2.00752,-3.482893 1.11553,-0.0053 2.16194,0.680463 2.45523,1.609061 0.19608,0.620775 0.1769,0.922761 -0.11186,1.762543 -0.41153,1.196891 -1.17464,2.212117 -1.95241,2.597504 -0.78808,0.390497 -2.22809,0.345886 -2.49591,-0.07734 z m 22.75262,8.297268 c 0.23992,-0.220386 0.61192,-1.126711 0.85396,-2.080531 0.23586,-0.929523 0.5333,-1.774714 0.66099,-1.878202 0.12768,-0.103492 1.26003,-0.269852 2.51634,-0.369696 2.58645,-0.205551 3.67834,-0.631919 4.85415,-1.895479 2.32155,-2.494828 2.83857,-7.889974 0.9686,-10.107664 -0.92392,-1.095734 -1.82451,-1.330474 -5.57355,-1.452762 -3.77388,-0.123093 -4.69101,0.05454 -4.90464,0.949998 -0.24823,1.040584 -2.28519,14.591613 -2.32919,15.495282 -0.0359,0.737793 0.0515,1.101162 0.32891,1.367205 0.50041,0.479872 2.08994,0.462822 2.62443,-0.02816 z m -2.41432,-0.548417 c -0.17534,-0.229939 -0.27689,-0.610805 -0.22569,-0.846364 0.0512,-0.235564 0.59581,-3.709591 1.21024,-7.720062 0.93134,-6.078991 1.18858,-7.371531 1.5467,-7.771351 0.39077,-0.436299 0.75265,-0.470305 4.00906,-0.376737 4.29545,0.123421 4.9865,0.387576 5.8873,2.250375 1.53375,3.171707 -0.0855,8.243219 -3.06704,9.60621 -0.45614,0.208512 -1.88123,0.468949 -3.1669,0.578745 -2.74323,0.234276 -2.99591,0.425002 -3.32607,2.510661 -0.14399,0.90967 -0.37174,1.538793 -0.64937,1.793818 -0.5633,0.517437 -1.81528,0.503162 -2.21823,-0.02528 z m 7.58806,-7.426084 c 1.53685,-0.975688 2.49814,-3.821107 1.77793,-5.26264 -0.43395,-0.868583 -1.56837,-1.504933 -2.70336,-1.516464 -1.69691,-0.01723 -1.84508,0.235745 -2.50899,4.284169 -0.3159,1.926362 -0.31499,2.057023 0.0177,2.539097 0.4955,0.718036 2.25195,0.695335 3.41676,-0.04415 z m -3.1067,-0.326072 c -0.12448,-0.196694 -0.18691,-0.518963 -0.13873,-0.716157 0.0482,-0.197192 0.23444,-1.266264 0.41393,-2.375711 0.1795,-1.109449 0.46076,-2.193448 0.62504,-2.408887 0.67168,-0.880888 3.18799,-0.212129 3.6729,0.976153 0.49738,1.218809 -0.43747,3.636984 -1.69574,4.386415 -0.96529,0.574922 -2.55278,0.651159 -2.8774,0.138187 z m -13.35312,3.547769 c 0.31018,-0.341999 0.58476,-1.452949 1.10019,-4.451532 0.399,-2.321216 0.83042,-4.203851 1.02944,-4.492248 0.24717,-0.358191 0.61052,-0.496452 1.30468,-0.496452 1.13641,0 1.75639,0.633348 1.75639,1.794274 0,0.413927 -0.17872,1.891691 -0.39714,3.283919 -0.66721,4.252597 -0.50459,4.817775 1.38617,4.817775 1.58871,0 1.85661,-0.448452 2.49751,-4.180776 0.2815,-1.639429 0.56049,-3.859698 0.61996,-4.933933 0.0974,-1.759608 0.0634,-2.027242 -0.34463,-2.700864 -0.64069,-1.057993 -1.44843,-1.418518 -3.58431,-1.599821 -2.96851,-0.251978 -2.79158,-0.11171 -2.63699,-2.090587 0.17664,-2.260962 -0.11386,-2.723434 -1.71062,-2.723434 -0.8272,0 -1.21183,0.122096 -1.43574,0.455737 -0.29963,0.446472 -2.73432,14.959715 -2.73432,16.299303 0,1.043213 0.49131,1.474375 1.68006,1.474375 0.71585,0 1.18912,-0.146797 1.46935,-0.455736 z m -2.50404,-0.237577 c -0.36897,-0.195256 -0.31582,-0.846327 0.45365,-5.556948 0.38602,-2.363215 0.92022,-5.676632 1.1871,-7.363148 0.6361,-4.019993 0.67037,-4.095166 1.8666,-4.095166 1.29836,0 1.47569,0.331618 1.30367,2.438062 -0.17063,2.089472 -0.12468,2.130551 2.59117,2.317386 2.96335,0.203859 4.06546,1.021093 4.06546,3.014599 0,0.485776 -0.23529,2.514515 -0.52285,4.508308 -0.63424,4.397583 -0.86852,4.90938 -2.2473,4.90938 -1.44208,0 -1.53605,-0.285232 -1.09738,-3.330697 0.54462,-3.780902 0.58527,-4.907015 0.2047,-5.668765 -0.17936,-0.358975 -0.40536,-0.588443 -0.50223,-0.509926 -0.0969,0.07852 -0.23226,0.02366 -0.30086,-0.121913 -0.16181,-0.343348 -2.00127,-0.343182 -2.49055,2.24e-4 -0.42966,0.301566 -0.81454,1.827914 -1.41072,5.594562 -0.41753,2.638056 -0.64989,3.49107 -1.04516,3.837211 -0.24313,0.212896 -1.66854,0.231502 -2.0553,0.02683 z M -445.21234,2.8348898 c -0.13651,-0.072249 -0.35992,-0.072249 -0.49644,0 -0.13652,0.072248 -0.0248,0.1313523 0.24822,0.1313523 0.27305,0 0.38474,-0.059108 0.24822,-0.1313523 z m 1.39001,-0.2604204 c -0.13652,-0.072248 -0.35991,-0.072248 -0.49642,0 -0.13652,0.072248 -0.0248,0.1313524 0.24822,0.1313524 0.27303,0 0.38471,-0.059108 0.2482,-0.1313524 z m 3.97148,-0.2763359 c -0.35495,-0.05777 -0.93578,-0.05777 -1.29073,0 -0.35495,0.05777 -0.0644,0.1050338 0.64538,0.1050338 0.7099,0 1.00031,-0.047265 0.64535,-0.1050338 z m 6.95009,-1.63649521 c 1.40835,-0.93629396 1.85229,-1.58765662 0.62299,-0.9140465 -0.75659,0.41458278 -3.05552,2.18613241 -3.05552,2.35458181 0,0.1242733 0.72137,-0.3029191 2.43253,-1.44053531 z m 2.12892,-1.2899873 c 0.16067,-0.13325004 0.2435,-0.30602852 0.18409,-0.38395239 -0.0594,-0.077927 -0.28023,0.029167 -0.49069,0.23797871 -0.41867,0.41539188 -0.16427,0.536511 0.3066,0.14597368 z m 2.38864,-1.14108379 c 0.16435,-0.071762 0.0701,-0.1392879 -0.21026,-0.1506306 -0.27947,-0.011278 -0.68158,0.1536142 -0.89358,0.3664931 -0.35792,0.3593967 -0.3429,0.3701599 0.21026,0.1506293 0.32765,-0.1300304 0.72976,-0.2949533 0.89358,-0.3664918 z"
       id="path4663"
       inkscape:connector-curvature="0" />
    <path
       style="fill:#000000"
       d="M 25.442655,63.441577 C 24.263313,63.05492 23.309852,62.138252 22.95146,61.046493 22.744287,60.415425 22.734833,60.184282 22.734833,55.753149 l 0,-4.633464 -1.776989,-0.0012 c -1.909888,-0.0012 -2.416625,-0.08967 -3.224312,-0.562999 -0.507331,-0.297357 -1.286718,-1.131334 -1.523438,-1.630191 -0.490507,-1.033651 -0.480208,-0.726766 -0.480208,-14.30959 l 0,-12.752084 17.360136,0 17.360149,0 -0.02803,13.057018 -0.02804,13.057016 -0.330523,0.6978 c -0.4136,0.873164 -1.255211,1.735795 -2.062665,2.114167 -0.570731,0.267449 -0.672578,0.27978 -2.577234,0.312083 l -1.983014,0.03364 0,4.609055 c 0,3.930592 -0.02444,4.690986 -0.165302,5.165678 -0.304435,1.02516 -1.054535,1.867235 -2.096308,2.353378 -0.493868,0.230463 -0.710837,0.266768 -1.601417,0.267947 -0.932091,0.0012 -1.088963,-0.02739 -1.648219,-0.301077 -0.846248,-0.414097 -1.692542,-1.28429 -2.010072,-2.066873 l -0.250794,-0.618086 -0.03505,-4.71289 -0.03495,-4.712881 -2.510744,0 -2.510734,0 -0.03631,4.712881 -0.03631,4.71289 -0.267653,0.612578 c -0.378639,0.866633 -1.054192,1.59122 -1.869265,2.00492 -0.582452,0.295641 -0.803679,0.34904 -1.583893,0.382289 -0.592255,0.02528 -1.057474,-0.01081 -1.340971,-0.103668 z M 9.3105893,44.97811 C 8.510478,44.732252 7.8129161,44.238841 7.3212772,43.571007 6.4702922,42.415026 6.5101398,42.932248 6.5101398,33.04074 c 0,-9.677108 -0.034423,-9.150026 0.6652642,-10.207081 0.7801145,-1.178675 1.9691186,-1.747282 3.49209,-1.669994 0.688188,0.03493 1.018964,0.107194 1.456908,0.318291 0.737697,0.355594 1.467152,1.077874 1.825447,1.807479 l 0.286336,0.583061 0.02741,9.082736 c 0.02715,9.008166 0.0257,9.087482 -0.188919,9.660888 -0.710476,1.898895 -2.838157,2.953788 -4.7640773,2.36199 z m 45.4100677,0.02155 c -0.780231,-0.193375 -1.558826,-0.729916 -2.073238,-1.428692 -0.851318,-1.156426 -0.811147,-0.632391 -0.811147,-10.581778 0,-8.081782 0.01455,-8.844023 0.176761,-9.248514 0.706216,-1.761129 2.113032,-2.671831 3.980926,-2.577032 1.683501,0.08544 2.845859,0.957566 3.472983,2.605799 0.185658,0.487952 0.197656,0.948929 0.228012,8.756183 0.03388,8.713552 0.0028,9.461598 -0.426368,10.399902 -0.767218,1.675817 -2.664245,2.540981 -4.547929,2.074132 z M 15.626879,19.81366 c 0,-0.893292 0.354519,-2.814207 0.721611,-3.909895 1.026713,-3.064527 2.737111,-5.473643 5.354787,-7.5422951 C 22.545059,7.6962532 22.695129,7.595633 23.852572,6.9204601 24.431493,6.5827614 24.470421,6.5378543 24.343788,6.353883 24.268122,6.2439874 23.938144,5.6441597 23.610442,5.0209218 23.28273,4.39769 22.981189,3.8414148 22.940334,3.784754 22.899443,3.7280807 22.680159,3.3340678 22.452954,2.9091363 22.225758,2.4842051 21.952858,1.9864127 21.846527,1.8029333 21.669398,1.4972952 21.666414,1.4455 21.810939,1.184853 c 0.195975,-0.35344898 0.698562,-0.43924215 0.941553,-0.1607186 0.08897,0.1019021 0.395185,0.6256545 0.680624,1.1639074 0.285455,0.5382471 0.801376,1.4850734 1.146532,2.1040653 0.345145,0.6189858 0.629074,1.1520816 0.630961,1.184658 0.0019,0.032559 0.09113,0.1644121 0.198373,0.2929679 l 0.19495,0.2337439 0.960534,-0.356681 c 2.123719,-0.7886038 3.929602,-1.0943761 6.471781,-1.0957854 2.77586,-0.00183 4.764292,0.3735856 7.456631,1.4067392 0.09143,0.035109 0.339763,-0.3057726 0.73457,-1.00848 0.328018,-0.583822 0.653474,-1.1559691 0.723266,-1.271435 0.06983,-0.1154655 0.392901,-0.7180996 0.718034,-1.3391811 0.699072,-1.3353424 0.821328,-1.49030238 1.174167,-1.48821918 0.342143,0.001807 0.479111,0.0953423 0.570731,0.38885058 0.07476,0.2393924 0.02553,0.3601428 -0.639238,1.566838 -0.171657,0.3116159 -0.703898,1.2831461 -1.182766,2.1589579 l -0.870667,1.592375 0.921459,0.5445093 c 1.286529,0.7602308 2.435434,1.6839501 3.579595,2.8779876 2.546877,2.6579022 4.039733,5.9656872 4.291183,9.5081992 l 0.06623,0.933354 -17.476291,0 -17.476283,0 0,-0.607846 z M 25.7597,14.039987 c 0.358429,-0.136277 0.786658,-0.802636 0.786658,-1.224105 0,-1.033815 -1.074584,-1.763396 -1.936642,-1.314866 -0.833594,0.43372 -1.11364,1.467329 -0.564261,2.082573 0.471149,0.527636 1.092064,0.692947 1.714245,0.456398 z m 16.059859,-0.168993 c 0.389354,-0.28984 0.590945,-0.688834 0.590945,-1.169661 0,-0.35329 -0.06901,-0.499868 -0.404676,-0.859727 -0.383788,-0.411439 -0.434869,-0.433819 -0.990404,-0.433819 -0.562196,0 -0.601844,0.01816 -0.98602,0.451059 -0.325223,0.366478 -0.400281,0.529475 -0.400281,0.869244 0,0.465878 0.2911,0.973443 0.714844,1.246385 0.339853,0.218904 1.115601,0.164502 1.475592,-0.103483 z"
       id="path4727"
       inkscape:connector-curvature="0" />
    <path
       style="fill:#000000"
       d="m -320.30863,55.734305 c -6.00202,-0.155305 -9.82445,-0.597784 -11.83771,-1.370312 -0.67693,-0.25975 -0.75404,-0.609453 -0.1025,-0.464808 2.47994,0.550551 14.95425,0.865481 20.44696,0.516207 8.61177,-0.54761 15.80981,-2.073058 19.08579,-4.044763 0.714,-0.429736 0.79747,-0.443463 0.79747,-0.131178 0,0.625911 -1.17957,1.732257 -2.61214,2.449985 -4.57407,2.291647 -13.61523,3.359581 -25.77787,3.044869 z m -4.71459,-3.11734 c -4.00571,-0.157506 -8.28439,-0.491649 -9.99222,-0.780342 -0.6479,-0.109521 -1.90795,-0.278503 -2.8001,-0.375516 -6.31369,-0.68655 -6.28372,-2.954138 0.0662,-5.013297 1.87468,-0.607922 3.89021,-0.910196 5.01272,-0.751776 1.17416,0.165709 0.88721,0.376074 -1.00392,0.735979 -2.24231,0.426739 -4.2991,1.385509 -4.2991,2.00402 0,0.302664 1.60616,0.957027 3.07474,1.25268 7.596,1.529211 22.93886,1.479514 33.20708,-0.107563 3.94096,-0.609122 5.94448,-1.464104 5.94448,-2.536749 0,-0.504772 0.37746,-0.619468 0.77893,-0.236691 0.39416,0.375799 0.2846,1.226454 -0.21523,1.671129 -3.12156,2.777093 -16.63203,4.654862 -29.77364,4.138126 z m 2.56228,-6.358311 c -3.07845,-0.514074 -5.68582,-1.393188 -6.53591,-2.203681 -0.93559,-0.892013 -0.37422,-1.97757 1.38514,-2.678535 0.92875,-0.370032 1.00972,-0.352402 0.89978,0.195917 -0.16292,0.812569 0.55311,1.049884 4.25819,1.411292 2.88043,0.28097 3.78051,0.29516 6.14226,0.09684 1.52199,-0.127802 3.50519,-0.360215 4.40711,-0.516476 l 1.63986,-0.28411 1.89721,0.824238 c 1.04346,0.453332 1.86756,0.909047 1.83132,1.012701 -0.10479,0.299728 -2.91994,1.200799 -5.2659,1.68551 -1.75224,0.362037 -2.8953,0.45373 -6.14946,0.493286 -2.19843,0.02673 -4.22775,0.01008 -4.5096,-0.03699 z m -1.74235,-7.24231 c -1.55848,-0.18195 -4.29637,-0.700417 -5.06617,-0.959365 -2.76242,-0.929239 -2.93458,-2.378004 -0.42527,-3.578634 1.19438,-0.57147 1.55267,-0.553471 1.25797,0.0632 -0.5723,1.197554 0.47307,1.628083 4.61391,1.900191 4.02566,0.26454 8.65241,0.07388 12.67388,-0.522263 l 3.21519,-0.476623 1.05879,0.679323 c 0.58233,0.373628 1.14176,0.679324 1.24317,0.679324 0.39326,0 0.15952,0.546476 -0.27683,0.647224 -5.42223,1.251941 -9.25644,1.707355 -14.0491,1.6687 -1.99683,-0.0161 -3.90732,-0.06159 -4.24554,-0.101076 z m 21.83058,-0.632721 c 0,-0.09723 0.48889,-0.439836 1.08641,-0.76135 1.64892,-0.887244 4.26329,-2.829866 5.02229,-3.731829 1.38873,-1.650327 1.83528,-3.511911 1.19363,-4.976054 -0.65108,-1.485669 -2.80923,-2.443263 -4.73383,-2.100457 -1.88513,0.335776 -1.09002,-0.523676 0.88758,-0.959404 3.56028,-0.784444 7.19589,1.536026 7.20185,4.596657 0.003,1.64827 -1.24032,3.544365 -3.25103,4.9571 -1.65882,1.165496 -2.85694,1.749367 -5.21967,2.543661 -1.9515,0.656046 -2.18723,0.702571 -2.18723,0.431676 z M -327.483,32.103845 c -6.76195,-0.273584 -10.44612,-1.333776 -9.29237,-2.674058 0.8696,-1.010186 6.44836,-2.746192 9.39486,-2.923505 1.07103,-0.06445 1.90121,-0.07116 1.84484,-0.01489 -0.0564,0.05626 -1.12416,0.427375 -2.37285,0.8247 -3.61591,1.150554 -4.72195,1.929537 -3.42738,2.413907 1.27809,0.478201 3.26783,0.621997 8.55388,0.61818 5.76449,-0.0041 9.97093,-0.266737 15.64236,-0.976426 1.83141,-0.229172 3.49176,-0.385099 3.68968,-0.346503 0.60973,0.118905 -2.16946,1.465805 -3.7398,1.812446 -4.818,1.063534 -12.87554,1.566268 -20.29322,1.266156 z m 13.22134,-3.996219 c 0,-0.05212 0.28022,-0.528985 0.62271,-1.05968 0.7207,-1.116722 0.9751,-2.570783 0.62616,-3.578847 -0.13004,-0.375653 -0.77869,-1.367973 -1.44145,-2.205154 -1.41636,-1.789097 -2.17686,-3.194075 -2.49536,-4.610011 -1.00396,-4.463224 3.29033,-8.8512586 11.54867,-11.8008016 2.13476,-0.762448 3.36712,-1.053777 3.16977,-0.749334 -0.07,0.107913 -0.98366,0.708731 -2.03045,1.335155 -3.23685,1.937 -5.14473,3.32655 -6.67163,4.8591126 -1.18005,1.184413 -1.53226,1.685097 -1.79761,2.555352 -0.30144,0.988596 -0.30205,1.174038 -0.007,2.141509 0.19017,0.623687 0.94945,1.949132 1.84666,3.223616 1.10526,1.570035 1.56167,2.405865 1.66198,3.043616 0.26621,1.692492 -0.2671,3.065143 -1.83815,4.73114 -1.08537,1.150955 -3.19425,2.546861 -3.19425,2.114327 z m -6.07662,-4.693348 c -4.37759,-4.164529 -5.86537,-6.464209 -5.87926,-9.087673 -0.0137,-2.586841 1.72724,-4.7129046 7.34378,-8.9682876 4.09233,-3.10056 5.17947,-4.04079 6.35221,-5.49381702 1.94222,-2.40640498 2.68988,-4.67867298 2.4726,-7.51467798 -0.13241,-1.728237 -0.12918,-1.745191 0.26746,-1.402959 0.68982,0.595206 1.29625,2.244081 1.40623,3.823575 0.28237,4.055296 -2.26034,8.005313 -8.17689,12.702497 -2.70458,2.147177 -4.29573,3.8117546 -5.17637,5.4152176 -0.56797,1.034167 -0.62859,1.315975 -0.6247,2.904206 0.005,2.201198 0.35143,2.968417 3.09426,6.860432 2.81796,3.998618 2.534,4.198953 -1.07932,0.761487 z"
       id="path4791"
       inkscape:connector-curvature="0"
       sodipodi:nodetypes="ssssssssssssssssssssscsssssscsssscsssssscssssssssssssssscsscssssssccsssssssssssssssssssssssssss" />
    <path
       style="fill:#000000"
       d="m -425.49518,185.36916 c -6.86785,-0.96533 -12.07512,-3.57999 -13.8907,-6.97476 -0.70568,-1.31946 -0.72354,-1.62293 -0.72354,-12.29321 0,-10.7096 0.0156,-10.97203 0.7402,-12.44256 0.96006,-1.94842 2.80337,-3.7985 4.64834,-4.66539 1.38763,-0.65201 2.12531,-0.69963 13.22638,-0.85381 l 11.75679,-0.16329 1.94169,-0.95335 c 2.56641,-1.2601 4.57311,-3.32392 5.81753,-5.9832 0.97751,-2.08891 1.02037,-2.36563 1.16074,-7.49519 l 0.14576,-5.3262 3.63158,0.008 c 5.87489,0.0129 8.14935,0.88233 10.01842,3.82955 3.19008,5.03023 4.62142,15.67107 2.9619,22.01939 -1.51767,5.8057 -3.74543,9.55515 -6.39131,10.75695 -1.22413,0.55601 -2.45724,0.60216 -16.26546,0.60879 l -14.94092,0.007 0,1.30631 0,1.30631 9.30745,0 9.30747,0 -0.002,3.02084 c -0.003,6.02356 -0.84677,8.33275 -3.84027,10.51942 -3.88214,2.83581 -12.63495,4.6081 -18.61015,3.76825 z m 15.6973,-6.24309 c 1.20162,-0.61451 1.84183,-1.67963 1.84183,-3.06427 0,-3.04052 -3.33552,-4.51175 -5.61379,-2.47611 -0.91566,0.81815 -1.06653,1.1684 -1.06653,2.47611 0,1.30772 0.15087,1.65798 1.06653,2.47613 1.14058,1.0191 2.51133,1.23284 3.77196,0.58814 z m -41.19171,-13.70046 c -2.85111,-0.5612 -5.71786,-3.22942 -6.94186,-6.46109 -1.70735,-4.50781 -2.55084,-11.3214 -1.94655,-15.72376 1.12305,-8.1816 3.14922,-11.81362 7.80931,-13.99869 l 1.83537,-0.86058 14.30726,-0.0977 14.30727,-0.0976 -0.10114,-1.04538 -0.10115,-1.04537 -9.22581,-0.0867 -9.22581,-0.0867 0.002,-4.64864 c 0.002,-4.99847 0.2424,-6.39238 1.39994,-8.11613 2.09308,-3.11692 9.83194,-4.85416 19.66249,-4.4139 7.69701,0.34471 10.90427,1.3937 13.67144,4.47146 2.43986,2.7137 2.5539,3.4356 2.43355,15.40434 -0.10001,9.94668 -0.1226,10.2529 -0.86645,11.7492 -0.42008,0.84499 -1.42092,2.1421 -2.22412,2.88246 -2.65995,2.45185 -2.46776,2.41984 -15.62704,2.60261 l -11.75679,0.1633 -1.95946,0.91425 c -2.55951,1.19422 -4.7843,3.41154 -5.92776,5.90782 -0.86291,1.88386 -0.92093,2.30161 -1.03679,7.46569 l -0.12274,5.47018 -3.47777,-0.0358 c -1.91278,-0.0197 -4.11202,-0.16062 -4.88721,-0.31321 z m 21.24901,-45.37619 c 1.99982,-2.1949 0.56893,-5.54748 -2.36768,-5.54748 -1.94221,0 -3.26985,1.35494 -3.2554,3.3223 0.0117,1.5935 0.44032,2.31316 1.81672,3.05042 1.28496,0.68828 2.70858,0.37963 3.80636,-0.82524 z"
       id="path4871"
       inkscape:connector-curvature="0" />
    <path
       style="fill:#000000"
       d="m -241.24728,175.93103 c -4.24383,-1.40865 -6.62198,-3.65112 -7.98243,-7.52702 -1.06651,-3.03845 -1.17,-5.03666 -0.70888,-13.68688 0.23646,-4.43593 0.48805,-8.22575 0.55911,-8.42182 0.071,-0.19606 0.49233,-0.35647 0.93617,-0.35647 l 0.80698,0 0.0176,-2.35276 c 0.0423,-5.6414 3.36697,-12.70843 9.30908,-19.78807 9.2356,-11.00359 23.46596,-18.92608 30.41514,-16.93307 l 0.98084,0.28129 -0.98272,-0.84337 c -0.82564,-0.70858 -0.91434,-0.89108 -0.55494,-1.14192 0.28366,-0.19798 3.79044,-0.27137 10.40917,-0.21784 9.97294,0.0807 9.98301,0.0813 11.89456,0.82094 3.67126,1.42046 6.09969,3.93686 7.3334,7.59907 0.85513,2.53839 0.77804,6.85346 -0.39599,22.16657 -0.54113,7.05826 -1.39949,18.35149 -1.90745,25.09607 -0.50796,6.74457 -0.94273,12.29648 -0.96616,12.3376 -0.16615,0.29165 -45.87289,3.28161 -51.74879,3.38522 -5.07908,0.0896 -6.05207,0.0348 -7.41475,-0.41754 z m 0.57301,-23.99108 c 2.11602,-0.4638 5.64397,-1.10948 7.83988,-1.43484 5.32371,-0.78882 5.56105,-0.84368 5.56105,-1.2851 0,-0.20948 0.55644,-0.87303 1.23654,-1.47454 1.04684,-0.92591 9.45851,-8.73001 15.069,-13.98061 1.55458,-1.45485 1.68154,-1.5148 3.20831,-1.5148 1.70648,0 1.77273,-0.0773 1.34526,-1.57038 -0.19961,-0.69717 0.17941,-2.18677 2.06757,-8.12581 l 2.31199,-7.27217 2.25863,-0.54938 2.25864,-0.54939 -0.97532,-0.83124 c -0.53641,-0.45716 -1.93779,-1.54343 -3.11418,-2.41391 -1.17637,-0.87047 -2.3028,-1.71157 -2.50318,-1.8691 -0.20038,-0.15753 -0.0142,0.38823 0.41352,1.2128 0.66464,1.28107 0.77627,1.83695 0.76711,3.82009 -0.013,2.81026 -0.62046,5.13771 -2.26176,8.66552 -6.39468,13.74468 -24.15093,28.25168 -34.77275,28.40959 -2.81868,0.0419 -4.14864,-0.40324 -5.62972,-1.88431 -0.62884,-0.62886 -1.07234,-0.96691 -0.98554,-0.75124 0.0868,0.21567 0.44893,1.25837 0.80474,2.31711 0.35581,1.05874 0.78325,1.92498 0.94991,1.92498 0.16664,0 2.03427,-0.37947 4.1503,-0.84327 z"
       id="path4954"
       inkscape:connector-curvature="0" />
    <path
       style="fill:#000000"
       d="m -349.08329,104.02632 -0.92403,0.27629 c -1.60972,0.48137 -2.72,1.17429 -3.84654,2.40369 -0.67328,0.73479 -1.45136,2.19898 -1.73752,3.26326 -0.1618,0.60173 -0.17191,2.50475 -0.17191,33.00709 l 0,32.36855 0.22102,0.76747 c 0.65899,2.27358 2.24855,4.11135 4.39297,5.08368 1.01644,0.46088 1.96575,0.67847 3.24482,0.74598 0.64836,0.0343 1.26724,0.0985 1.37531,0.14121 0.18605,0.0734 0.18474,0.077 -0.0246,0.0829 -0.30983,0.009 -0.27602,0.18896 0.0491,0.26095 0.14859,0.0329 0.40277,0.0966 0.56487,0.14428 0.82883,0.24375 5.32351,0.77788 7.80971,0.9271 0.51327,0.0308 1.97207,0.11881 3.24176,0.19647 2.97397,0.1819 7.0455,0.33774 11.24795,0.43285 6.13126,0.13875 16.4028,0.0733 20.43295,-0.132 0.48627,-0.0247 1.65772,-0.0717 2.60324,-0.10436 2.0083,-0.0693 9.55851,-0.524 9.74372,-0.58634 0.0695,-0.0234 0.83624,-0.11134 1.70071,-0.19647 2.87712,-0.28322 4.71999,-0.7053 4.32849,-0.99157 -0.11825,-0.0865 0.1888,-0.12541 1.34459,-0.16883 1.62622,-0.0611 2.3474,-0.21279 3.54261,-0.74905 0.94232,-0.42279 1.58609,-0.87724 2.34538,-1.64851 1.33028,-1.35125 1.9656,-2.61445 2.23792,-4.4513 0.0786,-0.53215 0.10125,-9.60332 0.0798,-32.66326 l -0.0276,-31.92648 -0.23025,-0.73371 c -0.85599,-2.76308 -2.92068,-4.75807 -5.71913,-5.52267 l -0.82886,-0.22717 -33.49827,0 -33.49825,0 z m 1.17881,2.06294 32.31944,0 32.31945,0 0.76438,0.2241 c 0.82603,0.23942 1.79456,0.68861 2.29626,1.06525 0.17199,0.12911 0.35246,0.2333 0.39908,0.2333 0.0466,0 0.42421,0.35948 0.84113,0.79816 0.93242,0.98104 1.57343,2.10856 1.90639,3.36149 0.2327,0.87568 0.23833,1.0288 0.29471,5.5411 0.0318,2.55289 0.0954,4.64161 0.13814,4.64161 0.0427,0 0.0908,-0.18787 0.10745,-0.41749 0.001,-0.018 0.005,-0.0249 0.007,-0.0276 0.0213,0.0677 0.0654,1.03762 0.10435,2.36073 0.0471,1.59762 0.12208,2.77432 0.17805,2.80891 0.0529,0.0328 0.0952,0.42989 0.0952,0.88411 -4.6e-4,0.45424 0.043,1.77623 0.0952,2.93786 0.056,1.24783 0.0828,10.51316 0.0676,22.64325 -0.0242,19.21612 -0.0369,20.55951 -0.19647,20.97326 -0.0938,0.24313 -0.17034,0.64098 -0.17191,0.88411 -0.001,0.29219 -0.0321,0.39691 -0.089,0.30698 -0.0525,-0.0828 -0.0667,0.0515 -0.0338,0.34383 0.0471,0.41863 0.0364,0.46561 -0.0921,0.35918 -0.12621,-0.10458 -0.16671,-0.0447 -0.27015,0.41749 -0.0664,0.29672 -0.15621,0.53722 -0.20261,0.53722 -0.0464,0 -0.10584,0.0994 -0.132,0.22103 -0.0261,0.12157 -0.0236,-0.0442 0.007,-0.36838 0.0297,-0.32417 0.0907,-0.61403 0.13813,-0.64467 0.17793,-0.11495 0.20706,-2.42746 0.1228,-10.16122 -0.0476,-4.37638 -0.099,-7.06189 -0.11363,-5.96779 -0.0224,1.67838 -0.0494,1.98926 -0.17192,1.98926 -0.1167,0 -0.14429,0.16178 -0.14429,0.82272 0,0.51258 -0.0579,0.95722 -0.15041,1.17883 -0.0869,0.20804 -0.10733,0.3561 -0.0491,0.3561 0.0589,0 0.10126,0.32051 0.10126,0.78588 0,0.43224 -0.0408,0.78589 -0.089,0.78589 -0.0482,0 -0.11993,1.10715 -0.15963,2.45895 -0.0396,1.35181 -0.10939,2.48202 -0.15656,2.51114 -0.0471,0.0291 -0.0859,-0.0171 -0.0859,-0.10126 0,-0.0843 -0.0663,-0.1535 -0.14735,-0.1535 -0.1187,0 -0.14736,0.15281 -0.14736,0.78588 0,0.45844 -0.0409,0.78588 -0.0983,0.78588 -0.14445,0 -0.12138,0.76133 0.0246,0.81044 0.16579,0.0558 -0.056,0.32723 -0.40522,0.49425 -0.24517,0.11724 -0.26155,0.16515 -0.28857,0.98235 -0.0157,0.47219 -0.0709,0.85649 -0.12279,0.85649 -0.0519,0 -0.0921,0.17683 -0.0921,0.39294 0,0.35033 -0.0273,0.39295 -0.23945,0.39295 -0.13482,0 -0.36909,0.13271 -0.54029,0.30391 -0.33728,0.33728 -0.37884,0.48197 -0.14121,0.48197 0.13053,0 0.13699,0.0267 0.0368,0.14735 -0.0672,0.0811 -0.18122,0.14737 -0.25173,0.14737 -0.0704,0 -0.21608,0.11053 -0.32234,0.24558 -0.1063,0.13508 -0.24108,0.24559 -0.30084,0.24559 -0.0598,0 -0.10745,0.0508 -0.10745,0.11054 0,0.0597 -0.11054,0.19459 -0.24559,0.30084 -0.13507,0.10629 -0.24558,0.25183 -0.24558,0.32233 0,0.0704 -0.0663,0.18141 -0.14736,0.24866 -0.12068,0.10011 -0.14735,0.0937 -0.14735,-0.0368 0,-0.0876 -0.0423,-0.15963 -0.0921,-0.15963 -0.11798,0 -0.69378,0.57888 -0.69378,0.69685 0,0.0499 -0.17683,0.089 -0.39294,0.089 -0.28379,0 -0.39295,0.041 -0.39295,0.14735 0,0.10641 -0.10916,0.14735 -0.39294,0.14735 -0.21611,0 -0.39294,0.0407 -0.39294,0.089 0,0.0483 -0.35365,0.11831 -0.78588,0.15657 -0.43224,0.0383 -0.78588,0.11122 -0.78588,0.15963 0,0.0483 -0.17683,0.0859 -0.39295,0.0859 -0.21611,0 -0.39294,-0.0442 -0.39294,-0.0983 0,-0.0573 -0.32745,-0.0983 -0.78588,-0.0983 -0.45843,0 -0.78588,0.041 -0.78588,0.0983 0,0.0541 -0.17683,0.0983 -0.39294,0.0983 -0.28379,0 -0.39295,0.041 -0.39295,0.14735 0,0.1228 -0.19647,0.14736 -1.17882,0.14736 -0.7204,0 -1.17882,0.0383 -1.17882,0.0983 0,0.0573 -0.32746,0.0983 -0.78589,0.0983 -0.63307,0 -0.78588,0.0286 -0.78588,0.14735 0,0.1228 -0.19647,0.14735 -1.17882,0.14735 -0.64836,0 -1.17883,0.0411 -1.17883,0.089 0,0.0479 -0.70729,0.11724 -1.57176,0.15656 -0.86448,0.0394 -1.57178,0.10607 -1.57178,0.14735 0,0.0414 -0.69624,0.10779 -1.5472,0.14736 -0.89671,0.0418 -1.57711,0.11505 -1.61475,0.17498 -0.0393,0.0627 -0.83476,0.13138 -2.01381,0.17498 l -1.9463,0.0737 2.40677,-0.0184 c 1.32372,-0.009 2.18574,0.0155 1.91559,0.0522 -0.61964,0.0842 -27.64412,0.0754 -28.24267,-0.009 -0.41762,-0.059 -0.39725,-0.0653 0.36838,-0.14121 0.44575,-0.0442 0.81044,-0.1134 0.81044,-0.15348 0,-0.0792 -1.91751,-0.20261 -3.15888,-0.20261 -0.42375,0 -0.77053,-0.0382 -0.77053,-0.0859 0,-0.0479 -0.70729,-0.12032 -1.57177,-0.15964 -0.86447,-0.0394 -1.57176,-0.1087 -1.57176,-0.15657 0,-0.0479 -0.35364,-0.089 -0.78589,-0.089 -0.63306,0 -0.78588,-0.0286 -0.78588,-0.14736 0,-0.1228 -0.19647,-0.14736 -1.17882,-0.14736 -0.72039,0 -1.17883,-0.0383 -1.17883,-0.0983 0,-0.06 -0.45844,-0.0983 -1.17882,-0.0983 -0.98235,0 -1.17882,-0.0246 -1.17882,-0.14736 0,-0.10641 -0.10917,-0.14735 -0.39295,-0.14735 -0.21611,0 -0.39294,-0.0442 -0.39294,-0.0983 0,-0.0573 -0.32744,-0.0983 -0.78588,-0.0983 -0.45843,0 -0.78588,0.041 -0.78588,0.0983 0,0.0573 -0.32746,0.0983 -0.78589,0.0983 -0.63307,0 -0.78588,-0.0286 -0.78588,-0.14735 0,-0.10642 -0.10916,-0.14736 -0.39294,-0.14736 -0.21612,0 -0.39294,-0.0442 -0.39294,-0.0983 0,-0.0541 -0.17683,-0.0983 -0.39294,-0.0983 -0.28379,0 -0.39294,-0.041 -0.39294,-0.14735 0,-0.0897 -0.0912,-0.14735 -0.23331,-0.14735 -0.12846,0 -0.28884,-0.0663 -0.35611,-0.14736 -0.0672,-0.0811 -0.18122,-0.14735 -0.25172,-0.14735 -0.0706,0 -0.21609,-0.11054 -0.32234,-0.24559 -0.22063,-0.28048 -0.40829,-0.32009 -0.40829,-0.0859 0,0.13054 -0.0267,0.137 -0.14735,0.0368 -0.0811,-0.0672 -0.14736,-0.17814 -0.14736,-0.24865 0,-0.0704 -0.11053,-0.21609 -0.24558,-0.32234 -0.13508,-0.10619 -0.24559,-0.24108 -0.24559,-0.30084 0,-0.0597 -0.0507,-0.11053 -0.11054,-0.11053 -0.0598,0 -0.19459,-0.11054 -0.30085,-0.24559 -0.1063,-0.13508 -0.25183,-0.24559 -0.32233,-0.24559 -0.0704,0 -0.1814,-0.0663 -0.24866,-0.14735 -0.10011,-0.12069 -0.0937,-0.14736 0.0368,-0.14736 0.23764,0 0.19301,-0.14469 -0.14428,-0.48198 -0.1712,-0.1712 -0.40548,-0.30391 -0.5403,-0.30391 -0.21221,0 -0.23638,-0.0426 -0.23638,-0.39294 0,-0.21612 -0.0442,-0.39294 -0.0983,-0.39294 -0.0568,0 -0.0983,-0.31291 -0.0983,-0.74291 0,-0.76376 -0.10882,-1.12355 -0.33461,-1.12355 -0.32478,0 -0.45127,-0.34282 -0.45127,-1.20954 0,-0.69169 -0.0277,-0.85342 -0.14735,-0.85342 -0.10642,0 -0.14736,-0.10916 -0.14736,-0.39294 0,-0.21611 -0.0372,-0.39293 -0.0829,-0.39293 -0.0457,0 -0.11558,-0.87159 -0.15349,-1.93708 -0.0445,-1.2502 -0.10722,-1.96087 -0.17805,-2.00461 -0.0699,-0.0432 -0.12102,-0.55506 -0.13815,-1.41215 -0.0268,-1.34128 -0.0701,-1.59023 -0.23331,-1.32617 -0.1389,0.22475 -0.18072,-0.16817 -0.24558,-2.30854 -0.0334,-1.10284 -0.10081,-1.97702 -0.1535,-1.9954 -0.12774,-0.0446 -0.12176,-1.59019 0.007,-1.59019 0.0582,0 0.0378,-0.14805 -0.0491,-0.3561 -0.0926,-0.2216 -0.14736,-0.66625 -0.14736,-1.17882 0,-0.66607 -0.0281,-0.82272 -0.14735,-0.82272 -0.12963,0 -0.14735,0.86101 -0.14735,7.15583 0,3.93544 -0.0332,8.10185 -0.0737,9.25869 l -0.0737,2.10285 -0.0676,-1.17883 c -0.0123,-0.21218 -0.0253,-0.89358 -0.0338,-1.74368 0.007,0.007 0.0135,-0.008 0.0214,-0.0491 0.0234,-0.12157 0.0234,-0.32049 0,-0.44206 -0.009,-0.0456 -0.0178,-0.0585 -0.0246,-0.0461 -0.0141,-1.76409 -0.0215,-4.25524 -0.0153,-6.95321 0.0191,-8.37766 0.0199,-8.81042 -0.0276,-15.17737 -0.0299,-4.00726 0.0798,-17.15934 0.15963,-19.1559 0.0249,-0.62133 0.0778,-4.75459 0.11974,-9.185 0.0761,-8.03493 0.079,-8.05705 0.3039,-8.74296 0.86716,-2.64486 2.59798,-4.36973 5.26175,-5.24331 l 0.78587,-0.25787 z m 71.32196,13.63017 c 0.005,0.003 0.009,0.0187 0.0153,0.0491 0.0234,0.12157 0.0234,0.3205 0,0.44206 -0.0234,0.12157 -0.043,0.0221 -0.043,-0.22103 0,-0.18235 0.0124,-0.28206 0.0276,-0.27015 z m -65.919,1.94322 -0.49118,0.23023 c -0.56206,0.26289 -1.04296,0.71771 -1.29855,1.23102 -0.16509,0.33154 -0.17533,0.83742 -0.17805,7.86804 -0.001,4.13325 0.007,6.34354 0.0184,4.91176 0.0422,-4.93536 0.23862,-11.732 0.34997,-12.13206 0.11443,-0.41108 0.47181,-0.96249 0.81044,-1.24943 0.10939,-0.0928 0.42057,-0.24512 0.69072,-0.34077 0.46533,-0.16474 1.91202,-0.1737 27.53659,-0.17497 25.68362,-10e-4 27.02856,-0.0115 26.67091,-0.17191 -0.35354,-0.15895 -2.02283,-0.17041 -27.2419,-0.17191 l -26.86737,0 z m 55.8069,5.41215 c -0.008,0.10309 -0.0123,1.9027 -0.0123,4.94861 0,4.43042 0.0129,6.25908 0.0276,4.06142 0.0147,-2.19767 0.0147,-5.82256 0,-8.0553 -0.005,-0.69774 -0.0116,-1.00159 -0.0153,-0.95473 z m -50.55131,1.55949 0,12.72762 0,12.72761 0.21796,-0.15349 c 0.18902,-0.1324 0.76028,-0.15349 4.26403,-0.15349 2.22578,0 4.10611,0.0246 4.17807,0.0522 0.10561,0.0404 0.12491,0.55309 0.0983,2.65849 l -0.0338,2.60938 0.29777,-0.15349 c 0.24192,-0.1251 0.66884,-0.15656 2.25942,-0.15656 1.07886,0 2.02169,0.0246 2.09364,0.0522 0.10515,0.0403 0.12545,0.50289 0.0983,2.36379 l -0.0338,2.31467 0.29777,-0.15349 c 0.26468,-0.13687 1.18068,-0.15657 7.96014,-0.15657 l 7.66235,0 0.0307,-2.02303 c 0.0297,-1.99021 0.0328,-2.02569 0.26095,-2.2103 0.2121,-0.17158 0.41143,-0.18726 2.33309,-0.18726 1.61396,0 2.10377,-0.0285 2.10591,-0.12279 10e-4,-0.0676 0.0126,-1.11077 0.0246,-2.31774 0.0215,-2.1756 0.0218,-2.19609 0.25173,-2.38221 0.22006,-0.17813 0.44218,-0.18726 4.34691,-0.18726 3.22611,0 4.11609,-0.0265 4.11668,-0.1228 3.7e-4,-0.0676 7.9e-4,-5.58667 0,-12.26406 -10e-4,-12.03229 -0.002,-12.14245 0.19341,-12.31934 0.10847,-0.0982 0.19953,-0.12982 0.19953,-0.0706 0,0.0592 -0.0442,0.13545 -0.0983,0.16884 -0.0647,0.04 -0.0983,4.23654 -0.0983,12.26714 0,9.36168 -0.0293,12.23197 -0.11972,12.32239 -0.0879,0.0879 -1.15045,0.11666 -4.17501,0.11666 -3.92614,0 -4.06163,0.007 -4.25175,0.19647 -0.18507,0.18507 -0.19647,0.32932 -0.19647,2.45589 l 0,2.25634 -0.22103,0.0491 c -0.12156,0.0275 -1.12096,0.0628 -2.21951,0.0767 -1.84751,0.0236 -2.0078,0.0385 -2.1366,0.21489 -0.10871,0.14881 -0.13816,0.60412 -0.13816,2.06909 0,1.32902 -0.0362,1.91194 -0.11972,1.9954 -0.0897,0.0897 -1.95434,0.11666 -7.79743,0.11666 -7.49354,0 -7.68784,0.005 -7.91409,0.1934 -0.23098,0.19241 -0.19747,0.19321 7.94786,0.19647 l 8.17809,0.003 0,-2.2103 0,-2.2103 2.35765,0 2.35764,0 0,-2.50499 0,-2.50501 4.37148,0 4.37147,0 -0.003,-12.81972 0,-12.81971 -21.66089,0 -21.65784,0 z m 6.09059,0.98235 1.22794,0 1.22794,0 0,0.32848 0,0.3254 -1.22794,0 -1.22794,0 0,-0.3254 0,-0.32848 z m 4.12589,0 1.22794,0 1.22794,0 0,0.33769 0,0.34075 -1.17576,-0.007 c -0.6456,-0.003 -1.19818,-0.0316 -1.22794,-0.0614 -0.0298,-0.0298 -0.0522,-0.17848 -0.0522,-0.33156 l 0,-0.27935 z m 4.12588,0 1.22794,0 1.22794,0 0,0.33462 0,0.33461 -1.22794,-0.009 -1.22794,-0.009 0,-0.3254 0,-0.32541 z m 4.12588,0 1.22795,0 1.22794,0 0,0.34382 0,0.34383 -1.22794,0 -1.22795,0 0,-0.34383 0,-0.34382 z m 4.12589,0 1.22794,0 1.22794,0 0,0.34689 0,0.3469 -1.22794,-0.0123 -1.22794,-0.0122 0,-0.33462 0,-0.33461 z m 4.12588,0 1.22796,0 1.22793,0 0,0.33155 0,0.33461 -1.22793,-0.007 -1.22796,-0.007 0,-0.32847 0,-0.32542 z m 4.1259,0 1.22793,0 1.22794,0 0,0.32848 0,0.33154 -1.1604,0.0154 c -0.6382,0.009 -1.19079,-0.012 -1.22793,-0.0491 -0.0371,-0.0371 -0.0676,-0.19381 -0.0676,-0.34689 l 0,-0.27936 z m 4.12588,0 1.22794,0 1.22795,0 0,0.35303 0,0.34997 -1.22795,-0.0276 -1.22794,-0.0276 0,-0.32235 0,-0.3254 z m -26.42532,2.30853 0,1.42441 -0.003,1.42442 -1.12971,0 c -0.62137,0 -1.171,-0.0127 -1.22487,-0.0307 -0.0589,-0.0196 -0.0983,-0.57904 -0.0983,-1.39679 l 0,-1.35994 1.22794,-0.0307 1.22794,-0.0307 z m 8.25177,0 0,1.42441 0,1.42442 -1.23101,0 -1.23101,0 0.0276,-1.40293 0.0276,-1.40599 1.20338,-0.0184 1.2034,-0.0214 z m 1.67,0 1.22795,0 1.22794,0 0,1.42441 0,1.42442 -1.22794,0 -1.22795,0 0,-1.42442 0,-1.42441 z m 6.58177,0 0,1.42441 0,1.42442 -1.0591,0 c -1.55056,0 -1.39678,0.15843 -1.39678,-1.43056 0,-1.02584 0.0307,-1.37088 0.12279,-1.37529 0.0676,-0.003 0.62016,-0.0143 1.22795,-0.0246 l 1.10514,-0.0184 z m 8.25177,0 0,1.42441 0,1.42442 -1.23101,0 -1.231,0 0.0276,-1.40293 0.0276,-1.40599 1.20337,-0.0184 1.2034,-0.0214 z m 4.1259,0 0,1.42441 0,1.42442 -1.22795,0 -1.22794,0 0,-1.39372 0,-1.39371 1.22794,-0.0307 1.22795,-0.0307 z m -9.05608,0.0214 c 0.43196,-0.005 0.74458,0.005 0.76132,0.0215 0.0223,0.0226 0.043,0.6635 0.043,1.42441 l 0,1.38143 -1.22793,0 -1.22795,0 0,-1.39371 0,-1.39371 1.18497,-0.0307 c 0.16326,-0.003 0.32263,-0.008 0.46661,-0.009 z m -18.15512,0.0276 1.22794,0 1.22794,0 0,1.39984 0,1.39987 -1.22794,0 -1.22794,0 0,-1.39987 0,-1.39984 z m 40.32869,13.60559 -0.0522,8.25177 c -0.0566,9.11654 -0.0124,8.54745 -0.6907,9.32008 -0.17724,0.20187 -0.49159,0.454 -0.69686,0.55872 -0.35987,0.18358 -0.70108,0.1909 -9.53804,0.2241 -7.02059,0.0263 -9.23247,0.0629 -9.45823,0.15656 -0.23326,0.0968 -3.89908,0.1095 -17.58413,0.0584 -15.85919,-0.0593 -17.87979,-0.0921 -18.46824,-0.30392 -0.15158,-0.0545 -0.17121,-0.0435 -0.0859,0.0491 0.0607,0.066 0.28179,0.17995 0.49117,0.25479 0.32137,0.11487 4.58202,0.13406 27.34627,0.11665 25.72626,-0.0196 26.98053,-0.0281 27.31865,-0.19647 0.46548,-0.23177 0.93597,-0.70043 1.2003,-1.19416 l 0.21489,-0.39909 0,-8.44824 0.003,-8.44824 z m -46.07239,8.30089 c -3.79419,0 -3.97126,0.008 -4.19342,0.1934 -0.23132,0.19272 -0.21906,0.19321 4.11667,0.19647 2.3908,0.001 4.34691,-0.0136 4.34691,-0.0368 0,-0.0231 -0.0716,-0.11157 -0.15656,-0.19647 -0.13523,-0.13523 -0.64401,-0.15657 -4.1136,-0.15657 z m 6.72912,5.01 c -1.79173,0 -1.96615,0.0156 -2.1796,0.1934 l -0.23024,0.19341 2.33309,0.003 c 1.2832,0.001 2.33309,-0.0136 2.33309,-0.0368 0,-0.0231 -0.0717,-0.11157 -0.15656,-0.19647 -0.12995,-0.12995 -0.46094,-0.15656 -2.09978,-0.15656 z m -25.83897,14.93178 c 0.0541,0 0.0983,0.17682 0.0983,0.39294 0,0.21611 -0.0442,0.39294 -0.0983,0.39294 -0.0541,0 -0.0983,-0.17683 -0.0983,-0.39294 0,-0.21612 0.0442,-0.39294 0.0983,-0.39294 z m 74.48082,3.67461 c 0.0447,-0.0133 0.0798,0.0276 0.0798,0.10126 0,0.0842 -0.0442,0.15351 -0.0983,0.15351 -0.0541,0 -0.0983,-0.0412 -0.0983,-0.0921 0,-0.0509 0.0442,-0.12011 0.0983,-0.1535 0.007,-0.003 0.012,-0.007 0.0185,-0.009 z m -53.75316,4.29473 c 0.0444,0 0.089,0.008 0.12279,0.0215 0.0676,0.0273 0.0123,0.0491 -0.12279,0.0491 -0.13507,0 -0.19033,-0.0219 -0.12279,-0.0491 0.0338,-0.0136 0.0784,-0.0215 0.12279,-0.0215 z m 4.12589,0 c -0.36501,0 -0.73001,0.003 -1.00692,0.0123 -0.5538,0.0175 -0.10068,0.0338 1.00692,0.0338 1.10761,0 1.56071,-0.0163 1.00691,-0.0338 -0.27691,-0.009 -0.64191,-0.0123 -1.00691,-0.0123 z"
       id="path5023"
       inkscape:connector-curvature="0" />
    <path
       style="fill:#000000"
       d="m -337.85193,288.14721 c -1.93256,-3.81373 -3.26253,-4.10587 -7.03172,-1.54465 -2.07986,1.4133 -2.73465,1.57316 -4.02875,0.98354 -1.37514,-0.62657 -1.54523,-1.12381 -1.54523,-4.51745 0,-4.71625 -0.72339,-5.42497 -5.28978,-5.1826 -3.0783,0.16338 -3.51307,0.0178 -4.33815,-1.45215 -0.83993,-1.49644 -0.7727,-1.84606 0.80001,-4.16052 2.59156,-3.81382 2.30805,-5.13762 -1.51523,-7.07501 -2.78413,-1.41085 -3.23223,-1.90374 -3.23223,-3.55546 0,-1.65172 0.4481,-2.14463 3.23223,-3.55546 3.81373,-1.93257 4.10588,-3.26254 1.54465,-7.03173 -1.4133,-2.07985 -1.57316,-2.73466 -0.98354,-4.02875 0.62502,-1.37175 1.12654,-1.54523 4.46731,-1.54523 2.0698,0 4.11234,-0.34909 4.53899,-0.77573 0.42666,-0.42666 0.77574,-2.4692 0.77574,-4.53899 0,-3.34079 0.17348,-3.8423 1.54523,-4.46731 1.2941,-0.58963 1.94889,-0.42977 4.02875,0.98353 3.76919,2.56124 5.09916,2.26909 7.03172,-1.54465 1.41084,-2.78413 1.90374,-3.23223 3.55546,-3.23223 1.65173,0 2.14463,0.4481 3.55546,3.23223 1.9374,3.82329 3.26119,4.10679 7.07502,1.51523 2.31076,-1.57021 2.6659,-1.63891 4.15385,-0.80376 1.47236,0.82643 1.6112,1.25547 1.46035,4.51233 -0.20949,4.52239 0.57674,5.2831 5.20626,5.03738 3.07154,-0.16302 3.51412,-0.016 4.33074,1.43893 0.83194,1.4822 0.7573,1.85059 -0.87444,4.31633 -2.36591,3.57512 -1.91775,5.25376 1.8975,7.10735 2.51839,1.22353 2.9318,1.70022 2.9318,3.38053 0,1.68029 -0.41341,2.157 -2.9318,3.38051 -3.80205,1.84719 -4.26198,3.53438 -1.92579,7.06461 1.46728,2.2172 1.64111,2.90474 1.05797,4.18458 -0.61923,1.35904 -1.1271,1.53145 -4.51117,1.53145 -4.71624,0 -5.42498,0.7234 -5.1826,5.28979 0.16338,3.0783 0.0178,3.51306 -1.45216,4.33815 -1.49642,0.83991 -1.84605,0.77269 -4.16051,-0.80002 -3.81383,-2.59156 -5.13762,-2.30804 -7.07502,1.51523 -1.41083,2.78413 -1.90373,3.23223 -3.55546,3.23223 -1.65172,0 -2.14462,-0.4481 -3.55546,-3.23223 z m 8.32881,-11.77575 c 3.55083,-1.04911 8.90608,-6.40437 9.95521,-9.95521 1.79088,-6.0613 0.52829,-10.89304 -4.04029,-15.46162 -6.05692,-6.05692 -14.11237,-6.49013 -20.41216,-1.09774 -5.41243,4.63283 -7.13051,11.65258 -4.34247,17.74245 3.45633,7.54964 11.03461,11.07822 18.83971,8.77212 z m 26.98079,-34.11568 c -0.93693,-3.1272 -2.83392,-3.85244 -5.91255,-2.26042 -2.04443,1.05722 -2.13317,1.04499 -3.6861,-0.50795 -1.55293,-1.55293 -1.56517,-1.64166 -0.50794,-3.6861 1.59202,-3.07862 0.86678,-4.9756 -2.26042,-5.91254 -2.40165,-0.71956 -2.57952,-0.93704 -2.57952,-3.15398 0,-2.21694 0.17787,-2.43443 2.57952,-3.15399 3.1272,-0.93692 3.85244,-2.83391 2.26042,-5.91253 -1.05723,-2.04443 -1.04499,-2.13318 0.50794,-3.68611 1.55293,-1.55293 1.64167,-1.56517 3.6861,-0.50794 3.07863,1.59202 4.97562,0.86679 5.91255,-2.26043 0.71954,-2.40164 0.93703,-2.5795 3.15397,-2.5795 2.21694,0 2.43443,0.17786 3.15399,2.5795 0.93693,3.12722 2.83391,3.85245 5.91253,2.26043 2.04445,-1.05723 2.13319,-1.04499 3.68612,0.50794 1.55292,1.55293 1.56516,1.64168 0.50794,3.68611 -1.59203,3.07862 -0.86679,4.97561 2.26042,5.91253 2.40165,0.71956 2.57951,0.93705 2.57951,3.15399 0,2.21694 -0.17786,2.43442 -2.57951,3.15398 -3.12721,0.93694 -3.85245,2.83392 -2.26042,5.91254 1.05722,2.04444 1.04498,2.13317 -0.50794,3.6861 -1.55293,1.55294 -1.64167,1.56517 -3.68612,0.50795 -3.07862,-1.59202 -4.9756,-0.86678 -5.91253,2.26042 -0.71956,2.40164 -0.93705,2.57952 -3.15399,2.57952 -2.21694,0 -2.43443,-0.17788 -3.15397,-2.57952 z m 6.96945,-8.37784 c 6.11864,-3.12149 5.94146,-11.25198 -0.31116,-14.27882 -3.34562,-1.61959 -5.81455,-1.31402 -8.64822,1.07034 -4.35067,3.66086 -3.74011,10.57243 1.16277,13.16258 3.02675,1.599 4.73262,1.60904 7.79661,0.0459 z"
       id="path5088"
       inkscape:connector-curvature="0" />
    <path
       sodipodi:type="arc"
       style="fill:#000000;fill-opacity:1;stroke:none"
       id="path5098"
       sodipodi:cx="323.04544"
       sodipodi:cy="82.954544"
       sodipodi:rx="5.8636365"
       sodipodi:ry="5.8636365"
       d="m 328.90908,82.954544 a 5.8636365,5.8636365 0 1 1 -11.72728,0 5.8636365,5.8636365 0 1 1 11.72728,0 z"
       transform="matrix(0.42822702,0,0,0.42822702,-433.127,222.714)" />
    <path
       d="m 328.90908,82.954544 a 5.8636365,5.8636365 0 1 1 -11.72728,0 5.8636365,5.8636365 0 1 1 11.72728,0 z"
       sodipodi:ry="5.8636365"
       sodipodi:rx="5.8636365"
       sodipodi:cy="82.954544"
       sodipodi:cx="323.04544"
       id="path5100"
       style="fill:#4ca84c;fill-opacity:1;stroke:none"
       sodipodi:type="arc"
       transform="matrix(0.42822702,0,0,0.42822702,-428.72794,231.20068)" />
    <path
       transform="matrix(0.42822702,0,0,0.42822702,-428.72794,231.17472)"
       sodipodi:type="arc"
       style="fill:#000000;fill-opacity:1;stroke:none"
       id="path5102"
       sodipodi:cx="323.04544"
       sodipodi:cy="82.954544"
       sodipodi:rx="5.8636365"
       sodipodi:ry="5.8636365"
       d="m 328.90908,82.954544 a 5.8636365,5.8636365 0 1 1 -11.72728,0 5.8636365,5.8636365 0 1 1 11.72728,0 z" />
    <path
       transform="matrix(0.42822702,0,0,0.42822702,-437.99321,231.20068)"
       d="m 328.90908,82.954544 a 5.8636365,5.8636365 0 1 1 -11.72728,0 5.8636365,5.8636365 0 1 1 11.72728,0 z"
       sodipodi:ry="5.8636365"
       sodipodi:rx="5.8636365"
       sodipodi:cy="82.954544"
       sodipodi:cx="323.04544"
       id="path5104"
       style="fill:#000000;fill-opacity:1;stroke:none"
       sodipodi:type="arc" />
    <path
       sodipodi:type="arc"
       style="fill:#000000;fill-opacity:1;stroke:none"
       id="path5106"
       sodipodi:cx="323.04544"
       sodipodi:cy="82.954544"
       sodipodi:rx="5.8636365"
       sodipodi:ry="5.8636365"
       d="m 328.90908,82.954544 a 5.8636365,5.8636365 0 1 1 -11.72728,0 5.8636365,5.8636365 0 1 1 11.72728,0 z"
       transform="matrix(0.42822702,0,0,0.42822702,-431.97858,239.63545)" />
    <path
       transform="matrix(0.42822702,0,0,0.42822702,-440.71829,239.63545)"
       d="m 328.90908,82.954544 a 5.8636365,5.8636365 0 1 1 -11.72728,0 5.8636365,5.8636365 0 1 1 11.72728,0 z"
       sodipodi:ry="5.8636365"
       sodipodi:rx="5.8636365"
       sodipodi:cy="82.954544"
       sodipodi:cx="323.04544"
       id="path5108"
       style="fill:#000000;fill-opacity:1;stroke:none"
       sodipodi:type="arc" />
    <path
       transform="matrix(0.42822702,0,0,0.42822702,-423.23885,239.63545)"
       d="m 328.90908,82.954544 a 5.8636365,5.8636365 0 1 1 -11.72728,0 5.8636365,5.8636365 0 1 1 11.72728,0 z"
       sodipodi:ry="5.8636365"
       sodipodi:rx="5.8636365"
       sodipodi:cy="82.954544"
       sodipodi:cx="323.04544"
       id="path5110"
       style="fill:#000000;fill-opacity:1;stroke:none"
       sodipodi:type="arc" />
    <path
       sodipodi:type="arc"
       style="fill:#000000;fill-opacity:1;stroke:none"
       id="path5112"
       sodipodi:cx="323.04544"
       sodipodi:cy="82.954544"
       sodipodi:rx="5.8636365"
       sodipodi:ry="5.8636365"
       d="m 328.90908,82.954544 a 5.8636365,5.8636365 0 1 1 -11.72728,0 5.8636365,5.8636365 0 1 1 11.72728,0 z"
       transform="matrix(0.42822702,0,0,0.42822702,-425.80821,248.09618)" />
    <path
       transform="matrix(0.42822702,0,0,0.42822702,-433.7888,248.09618)"
       d="m 328.90908,82.954544 a 5.8636365,5.8636365 0 1 1 -11.72728,0 5.8636365,5.8636365 0 1 1 11.72728,0 z"
       sodipodi:ry="5.8636365"
       sodipodi:rx="5.8636365"
       sodipodi:cy="82.954544"
       sodipodi:cx="323.04544"
       id="path5114"
       style="fill:#000000;fill-opacity:1;stroke:none"
       sodipodi:type="arc" />
    <path
       style="fill:none;stroke:#000000;stroke-width:0.42822701px;stroke-linecap:butt;stroke-linejoin:miter;stroke-opacity:1"
       d="m -295.2379,258.80186 -4.2701,7.39603"
       id="path5116"
       inkscape:connector-curvature="0" />
    <path
       style="fill:none;stroke:#000000;stroke-width:0.42822701px;stroke-linecap:butt;stroke-linejoin:miter;stroke-opacity:1"
       d="m -294.42037,258.724 4.79147,8.29906"
       id="path5118"
       inkscape:connector-curvature="0" />
    <path
       style="fill:none;stroke:#000000;stroke-width:0.42822701px;stroke-linecap:butt;stroke-linejoin:miter;stroke-opacity:1"
       d="m -298.508,267.95034 4.00441,6.93582"
       id="path5120"
       inkscape:connector-curvature="0" />
    <path
       style="fill:none;stroke:#000000;stroke-width:0.42822701px;stroke-linecap:butt;stroke-linejoin:miter;stroke-opacity:1"
       d="m -300.33769,268.69001 -1.52786,5.70203"
       id="path5122"
       inkscape:connector-curvature="0" />
    <path
       style="fill:none;stroke:#000000;stroke-width:0.42822701px;stroke-linecap:butt;stroke-linejoin:miter;stroke-opacity:1"
       d="m -298.27441,267.09389 12.71092,7.33865"
       id="path5124"
       inkscape:connector-curvature="0" />
    <path
       style="fill:none;stroke:#000000;stroke-width:0.42822701px;stroke-linecap:butt;stroke-linejoin:miter;stroke-opacity:1"
       d="m -293.56391,275.58057 5.48909,6.69592"
       id="path5126"
       inkscape:connector-curvature="0" />
    <path
       style="fill:none;stroke:#000000;stroke-width:0.42822701px;stroke-linecap:butt;stroke-linejoin:miter;stroke-opacity:1"
       d="m -294.22572,276.43703 -1.09004,6.1509"
       id="path5128"
       inkscape:connector-curvature="0" />
    <path
       style="fill:#000000"
       d="m -249.91056,291.65207 c -0.99766,-0.24325 -1.49082,-0.5945 -1.87923,-1.33847 l -0.38901,-0.74511 0.11559,-28.47974 c 0.12113,-29.84889 0.21746,-36.4497 0.54306,-37.21408 l 0.19396,-0.45534 38.42273,0 38.42273,0 0.19396,0.45534 c 0.3256,0.76438 0.42193,7.36519 0.54307,37.21408 l 0.11557,28.47974 -0.38899,0.74399 c -0.31636,0.60503 -0.54365,0.80606 -1.21692,1.07627 -0.81942,0.32888 -1.2032,0.33255 -37.50384,0.35836 -20.17177,0.0144 -36.89948,-0.0284 -37.17268,-0.095 z m 70.28866,-6.63703 c -0.15823,-0.10226 -12.23637,-0.1605 -33.28156,-0.1605 -21.04518,0 -33.12332,0.0583 -33.28155,0.1605 -0.1608,0.10392 11.57406,0.16051 33.28155,0.16051 21.70751,0 33.44235,-0.0566 33.28156,-0.16051 z m -66.78014,-15.19195 c -0.0417,-0.15937 -0.0757,-0.029 -0.0757,0.28977 0,0.31874 0.0341,0.44913 0.0757,0.28976 0.0417,-0.15937 0.0417,-0.42016 0,-0.57953 z m 0.003,-1.4055 c -0.0396,-0.20597 -0.0735,-0.0764 -0.0753,0.28783 -0.002,0.36428 0.0306,0.5328 0.072,0.37449 0.0414,-0.15831 0.0429,-0.45635 0.003,-0.66232 z m -0.007,-1.16099 c -0.0459,-0.11384 -0.0835,-0.0207 -0.0835,0.20698 0,0.22767 0.0376,0.32081 0.0835,0.20697 0.0459,-0.11383 0.0459,-0.30011 0,-0.41395 z m 67.0633,-0.32081 c -0.0528,-0.13208 -0.0921,-0.0928 -0.10003,0.10004 -0.007,0.17454 0.032,0.27234 0.087,0.21732 0.055,-0.055 0.0609,-0.19783 0.0131,-0.31736 z m -67.05882,-0.75545 c -0.0417,-0.15938 -0.0757,-0.029 -0.0757,0.28976 0,0.31874 0.0341,0.44913 0.0757,0.28976 0.0417,-0.15937 0.0417,-0.42015 0,-0.57952 z m 33.49854,-37.62804 33.44568,0 0.0429,17.67565 0.0429,17.67566 0.0406,-17.75844 0.0406,-17.75845 -33.61271,0 -33.61272,0 0.0407,18.75193 0.0407,18.75192 0.0429,-18.66913 0.0428,-18.66914 33.44568,0 z m 33.56429,36.38811 c -0.0396,-0.20596 -0.0735,-0.0764 -0.0753,0.28784 -0.002,0.36427 0.0306,0.53279 0.072,0.37448 0.0415,-0.1583 0.0429,-0.45635 0.003,-0.66232 z m -71.53451,-4.46223 c -0.0528,-0.13209 -0.0921,-0.0929 -0.10004,0.10003 -0.007,0.17455 0.032,0.27235 0.087,0.21733 0.055,-0.055 0.0609,-0.19783 0.0131,-0.31736 z m 76.0049,-0.83825 c -0.0394,-0.20491 -0.0717,-0.0373 -0.0717,0.37255 0,0.40981 0.0323,0.57746 0.0717,0.37256 0.0394,-0.20491 0.0394,-0.54021 0,-0.74511 z m -76.00835,-0.99348 c -0.0459,-0.11384 -0.0835,-0.0207 -0.0835,0.20697 0,0.22768 0.0376,0.32082 0.0835,0.20698 0.0459,-0.11384 0.0459,-0.30012 0,-0.41395 z m 76.00625,-0.0796 c -0.042,-0.16111 -0.0791,-0.0694 -0.0825,0.20382 -0.003,0.27321 0.031,0.40502 0.0763,0.29292 0.0453,-0.1121 0.0481,-0.33563 0.006,-0.49674 z m -75.99709,-1.49109 c -0.0381,-0.2517 -0.0702,-0.0851 -0.0715,0.37028 -0.001,0.45534 0.0299,0.66127 0.0692,0.45762 0.0393,-0.20366 0.0403,-0.57621 0.002,-0.8279 z m 75.99709,0.33203 c -0.042,-0.1611 -0.0791,-0.0694 -0.0825,0.20383 -0.003,0.2732 0.031,0.40501 0.0763,0.29291 0.0453,-0.1121 0.0481,-0.33564 0.006,-0.49674 z m 0.19671,-23.76386 0.0259,-9.72782 -38.26079,0 -38.26078,0 0.045,10.72129 c 0.0247,5.89672 0.0885,12.7331 0.14162,15.19196 0.0594,2.74869 0.10922,-1.02336 0.12934,-9.79322 l 0.0328,-14.26387 0.70371,-0.0742 c 0.38704,-0.0408 0.77823,-0.0206 0.86929,0.045 0.0911,0.0656 0.31461,0.0632 0.49675,-0.005 0.18213,-0.0684 0.44292,-0.0688 0.57953,-0.001 0.1366,0.0678 0.69543,0.0731 1.24184,0.0118 0.54642,-0.0613 1.32878,-0.0878 1.73859,-0.0587 0.40981,0.029 1.60199,0.0413 2.64928,0.0273 2.10696,-0.0282 2.86058,-0.008 3.40905,0.0916 0.20211,0.0366 0.62546,0.008 0.94078,-0.0627 0.33005,-0.0744 0.69645,-0.0604 0.86352,0.0332 0.17482,0.0978 0.33177,0.10188 0.39469,0.0102 0.0845,-0.12317 1.35486,-0.16965 1.67747,-0.0614 0.0455,0.0153 0.97692,0.0115 2.06976,-0.008 1.88092,-0.0343 3.82954,-0.0112 5.5885,0.0661 0.43268,0.019 0.78657,-0.003 0.78643,-0.0482 -1.4e-4,-0.0456 0.27919,-0.0686 0.62074,-0.0513 0.61968,0.0314 0.78835,0.0357 2.19401,0.0563 0.40981,0.006 0.89413,0.018 1.07627,0.0268 0.18213,0.009 1.00176,-0.003 1.82137,-0.0263 0.81963,-0.0232 1.56474,-0.0267 1.6558,-0.008 0.35807,0.0739 3.47597,-0.001 3.75753,-0.0905 0.16455,-0.0522 0.29918,-0.0326 0.29918,0.0435 0,0.11145 1.50436,0.1425 1.82138,0.0376 0.0456,-0.0151 0.13812,-0.0188 0.20575,-0.008 0.0676,0.0106 0.81273,0.0161 1.65579,0.0123 3.00077,-0.0135 3.27893,-0.007 3.41638,0.0778 0.0765,0.0473 0.3722,0.0191 0.65715,-0.0626 0.31708,-0.0909 0.55551,-0.088 0.61454,0.007 0.053,0.0858 0.1634,0.11471 0.24521,0.0641 0.20333,-0.12566 2.21514,-0.15849 2.40801,-0.0393 0.0854,0.0528 0.48995,0.0338 0.89898,-0.0422 0.40902,-0.076 0.80901,-0.0747 0.88889,0.003 0.0798,0.0776 0.30339,0.0887 0.49673,0.0248 0.19334,-0.0639 0.57507,-0.10249 0.84827,-0.0858 1.52052,0.0931 2.05607,0.0899 2.53377,-0.0151 0.35539,-0.078 0.52946,-0.0539 0.52946,0.0736 0,0.11673 0.13216,0.14795 0.34301,0.081 0.31219,-0.0991 6.80272,-0.17022 7.19087,-0.0788 0.0911,0.0215 0.24009,0.0246 0.33116,0.007 0.1276,-0.0246 2.25563,-0.0253 3.64276,-0.001 1.575,0.0273 6.70107,0.0184 7.78226,-0.0135 0.45534,-0.0135 0.86515,-0.0114 0.91069,0.005 0.22495,0.0786 1.82139,0.0869 1.82147,0.009 7e-5,-0.0491 0.26086,-0.0915 0.57953,-0.0944 l 0.57943,-0.005 0.0305,15.48686 c 0.0251,12.71848 0.0506,14.30292 0.14281,8.86366 0.0618,-3.64275 0.12396,-11.00072 0.13816,-16.35101 z m -76.19297,21.19719 c -0.0369,-0.29761 -0.0678,-0.094 -0.0687,0.45238 -0.001,0.54641 0.0292,0.7899 0.067,0.5411 0.0378,-0.24881 0.0385,-0.69588 0.002,-0.99348 z m 32.99598,-7.24709 0,-0.99348 -5.29856,0 -5.29856,0 0,0.99348 0,0.99348 5.29856,0 5.29856,0 0,-0.99348 z m -17.13751,-4.541 5.29855,-2.05586 0,-1.29281 0,-1.29281 -5.21577,-2.0314 c -2.86867,-1.11727 -5.27165,-2.03165 -5.33995,-2.03195 -0.0683,-3.3e-4 -0.12418,0.51274 -0.12418,1.14013 l 0,1.14068 3.2702,1.28338 c 1.79861,0.70586 3.56073,1.39727 3.91582,1.53646 l 0.64563,0.25307 -3.87444,1.52327 -3.87442,1.52329 -0.0486,1.18093 c -0.0268,0.64951 -0.0268,1.1806 0,1.1802 0.0268,-3.2e-4 2.433,-0.92585 5.34721,-2.05658 z"
       id="path5224"
       inkscape:connector-curvature="0" />
    <path
       style="fill:#000000"
       d="m -429.22602,272.13022 c -10.68102,-7.62608 -22.6908,-16.29755 -26.68841,-19.26993 -7.20778,-5.35926 -7.29152,-5.3974 -10.04252,-4.57318 -4.51226,1.35191 -4.44687,1.44309 -4.44687,-6.2018 l 0,-7.03294 3.44315,-1.4759 c 1.89372,-0.81176 3.63618,-1.19729 3.87213,-0.85675 0.23595,0.34054 1.59065,1.47607 3.01043,2.52339 l 2.58143,1.90423 20.95675,-9.92609 20.95674,-9.92608 18.68665,6.79027 c 13.79623,5.01323 18.68662,7.09879 18.68662,7.96903 0,0.6483 -3.00516,4.19645 -6.67814,7.88479 l -6.67818,6.70605 2.99466,1.35041 c 5.72239,2.58044 6.61505,0.94601 -13.39075,24.51854 -4.82193,5.68161 -5.84736,7.35088 -6.22983,10.14133 -0.25181,1.83714 -0.71794,3.34025 -1.03583,3.34025 -0.31789,0 -9.31701,-6.23952 -19.99803,-13.86562 z m 19.30142,5.4553 0,-6.19768 -7.68981,-5.23437 c -4.2294,-2.8789 -7.88028,-5.23438 -8.11307,-5.23438 -0.23279,0 -0.42326,1.84503 -0.42326,4.10007 0,2.25503 -0.26477,3.93642 -0.58837,3.73641 -0.32361,-0.2 -1.07039,-0.0473 -1.65949,0.33917 -0.87722,0.57559 -0.68385,1.00069 1.06827,2.34837 3.31721,2.55154 16.95574,12.34007 17.19361,12.34007 0.11666,0 0.21212,-2.78895 0.21212,-6.19766 z m 5.90041,-5.65812 c 0,-0.388 -2.33809,-2.41138 -5.19574,-4.4964 -3.34654,-2.44171 -4.94186,-4.04485 -4.48237,-4.50433 0.45949,-0.45949 2.61,0.62283 6.04228,3.041 4.92598,3.47055 6.58603,4.04757 6.58603,2.28928 0,-0.37847 -2.32343,-2.23312 -5.16317,-4.12143 -4.07849,-2.712 -4.99062,-3.64121 -4.34175,-4.42306 0.93991,-1.13252 0.95297,-1.12669 7.03174,3.1476 3.56225,2.50479 4.7017,2.98515 5.31838,2.24211 0.60394,-0.7277 -0.91337,-2.00555 -6.58364,-5.54462 -4.05264,-2.52943 -7.70664,-4.38995 -8.12,-4.13448 -0.50996,0.31517 -0.50897,0.75679 0.002,1.37376 0.54881,0.66128 -0.0473,1.69233 -2.18557,3.78031 -1.61711,1.57906 -2.8533,3.10372 -2.74709,3.38812 0.10618,0.28442 2.99575,2.51626 6.42116,4.95967 5.78434,4.12605 7.41665,4.78686 7.41665,3.00247 z m -31.71472,-7.02469 c 0,-0.24294 -0.48601,-1.48756 -1.08004,-2.76583 -0.59403,-1.27826 -1.17484,-4.14724 -1.29071,-6.37552 l -0.21068,-4.05139 -12.16889,-8.30468 c -6.6929,-4.56758 -12.2518,-8.05482 -12.35311,-7.74944 -0.10129,0.3054 0.0644,2.95654 0.36808,5.89144 l 0.55228,5.33618 12.53837,9.19801 c 11.89673,8.7273 13.6447,9.85736 13.6447,8.82123 z m -9.52478,-7.85577 c -0.7393,-1.95787 0.24598,-4.24092 1.83021,-4.24092 1.30015,0 2.45906,2.69994 1.96685,4.5822 -0.48936,1.87127 -3.04844,1.64127 -3.79706,-0.34128 z m 53.5645,0.45681 c 0.15269,-0.45866 -3.60139,-3.05427 -8.34241,-5.76802 -7.22041,-4.13294 -8.78108,-4.77304 -9.61196,-3.94216 -0.83086,0.83088 0.35396,1.79814 7.29719,5.95728 8.00734,4.79654 10.06812,5.52224 10.65718,3.7529 z m 4.26992,-5.36214 c 0,-0.55715 -2.42856,-2.26204 -5.39679,-3.78865 -6.37036,-3.27638 -6.73402,-3.57807 -5.29157,-4.38965 0.6051,-0.34046 4.16644,-3.1105 7.91409,-6.15564 l 6.81392,-5.53662 -9.39535,-3.64336 c -23.06304,-8.94344 -22.08184,-8.64605 -24.5969,-7.45494 l -2.2779,1.07879 7.63339,3.11558 c 7.23357,2.95238 10.65403,3.88563 9.07164,2.47515 -0.38537,-0.34352 -3.45167,-1.71359 -6.814,-3.04462 -3.36233,-1.33102 -5.93877,-2.59459 -5.72544,-2.80793 0.21335,-0.21334 3.69227,0.89987 7.73095,2.4738 4.78225,1.86371 7.03612,3.08305 6.46299,3.49648 -0.55344,0.39919 -0.2638,0.4997 0.78043,0.27081 1.06818,-0.23413 1.48545,-0.0807 1.16973,0.43013 -0.31341,0.5071 -0.0334,0.61858 0.77484,0.30845 0.85292,-0.3273 1.09342,-0.20704 0.73755,0.36877 -0.35245,0.57028 -0.1208,0.69814 0.69668,0.38447 1.22313,-0.46937 9.37372,2.23406 9.3085,3.08747 -0.0189,0.24794 -3.02752,2.77409 -6.68572,5.61367 -4.45622,3.45902 -7.30489,5.16285 -8.63178,5.16285 -3.8254,0 -2.35595,1.51402 5.53943,5.70745 7.86935,4.17959 10.18131,4.82621 10.18131,2.84754 z m -34.29615,-2.97981 c 0,-0.38172 -0.36342,-0.91863 -0.8076,-1.19314 -0.49769,-0.30759 -0.0462,-0.99857 1.17637,-1.80059 3.09049,-2.02735 0.81397,-2.55726 -2.64188,-0.61496 l -3.00443,1.68859 1.61414,1.30706 c 1.74343,1.41173 3.6634,1.73302 3.6634,0.61304 z m -3.33795,-7.05027 c 5.85896,-3.85371 11.00771,-7.00675 11.44164,-7.00675 0.43394,0 2.76144,0.9957 5.17224,2.21266 2.41078,1.21696 4.72969,2.21266 5.15312,2.21266 1.08182,0 11.22929,-7.46508 10.77077,-7.92361 -0.20684,-0.20683 -1.39749,-0.49499 -2.64591,-0.64034 -1.24843,-0.14535 -2.89943,-0.60122 -3.6689,-1.01302 -1.76748,-0.94593 -2.44762,-0.95424 -1.87202,-0.0229 0.24675,0.39923 1.50793,1.00037 2.80263,1.33585 l 2.35401,0.60999 -3.95953,2.66651 -3.95954,2.66651 -3.97921,-1.9516 c -2.45195,-1.20255 -3.84012,-2.31408 -3.6168,-2.89604 0.22599,-0.58892 -0.25355,-0.95429 -1.27392,-0.97058 -0.89999,-0.0144 -2.46609,-0.50046 -3.48022,-1.08019 -1.01413,-0.57973 -2.17579,-1.0519 -2.58143,-1.04928 -0.40566,0.002 0.34605,0.58277 1.67045,1.2892 l 2.40803,1.28441 -10.85943,6.98212 c -5.97269,3.84018 -11.61989,7.25871 -12.54935,7.59675 -2.54876,0.927 -1.91941,2.45856 1.08733,2.64614 0.51334,0.0321 5.72706,-3.09481 11.58604,-6.94852 z m -40.86666,4.76814 c 1.22979,-0.65816 1.42662,-1.58589 1.42662,-6.72399 0,-5.82131 -0.0388,-5.9501 -1.65949,-5.51576 -0.91273,0.2446 -1.90843,0.44926 -2.21266,0.45479 -0.89743,0.0163 -0.66485,12.54845 0.23287,12.54845 0.43232,0 1.42802,-0.34357 2.21266,-0.76349 z m 37.93514,-10.7901 c 4.63879,-2.77272 8.44495,-5.2375 8.45814,-5.47726 0.0514,-0.93499 -7.4593,-4.44509 -9.01882,-4.21491 -1.40917,0.208 -1.13029,0.55466 1.8993,2.36093 l 3.55099,2.11714 -2.81345,1.6415 c -1.54738,0.90283 -5.2197,3.03071 -8.16068,4.72862 -2.94099,1.69792 -5.34725,3.44309 -5.34725,3.87816 0,1.3684 2.73583,0.16363 11.43177,-5.03418 z m 12.90743,3.7574 c 0,-0.20283 -0.6638,-0.0135 -1.4751,0.42067 -0.81132,0.43421 -1.47511,0.95541 -1.47511,1.15824 0,0.20282 0.66379,0.0135 1.47511,-0.42069 0.8113,-0.43419 1.4751,-0.95539 1.4751,-1.15822 z m -24.15481,-5.00823 c 3.95511,-1.85901 7.19112,-3.75679 7.19112,-4.21731 0,-0.46054 0.48722,-0.65036 1.08271,-0.42185 0.59549,0.22852 1.26135,0.12641 1.4797,-0.22686 0.21835,-0.35331 -0.002,-0.77533 -0.48956,-0.93787 -1.21823,-0.40609 -7.97326,2.93019 -7.97326,3.93793 0,0.44811 -0.4547,0.64023 -1.01044,0.42698 -0.55575,-0.21326 -4.08652,1.20183 -7.84616,3.14466 -3.75965,1.94281 -6.37502,3.69521 -5.81191,3.8942 0.56309,0.199 2.18545,-0.21907 3.60523,-0.92903 1.41979,-0.70997 5.81744,-2.81185 9.77257,-4.67085 z m 35.64171,-2.20972 2.55801,-1.73822 -9.76037,-4.079 c -5.3682,-2.24345 -10.21011,-3.90642 -10.75979,-3.69548 -1.55256,0.59577 -0.40616,1.22268 8.47154,4.63267 7.69843,2.95704 10.38842,4.92802 5.35063,3.92046 -2.57667,-0.51533 -2.91519,0.64466 -0.52457,1.79761 0.91273,0.44018 1.76007,0.8228 1.88301,0.85025 0.12293,0.0274 1.37462,-0.73227 2.78154,-1.68829 z m -7.06159,-2.30333 c 0,-0.91626 -6.13661,-3.35841 -7.41747,-2.95188 -0.78823,0.25017 -1.43316,0.14088 -1.43316,-0.2429 0,-0.93598 -4.10246,-2.59188 -5.30976,-2.14321 -1.29011,0.47944 5.18359,3.44249 7.56584,3.46293 1.03801,0.009 2.53156,0.50348 3.31899,1.09907 1.38705,1.04912 3.27556,1.49651 3.27556,0.77599 z"
       id="path5304"
       inkscape:connector-curvature="0" />
  </g>
</svg>
